<svg id="Layer_2" data-name="Layer 2" xmlns="http://www.w3.org/2000/svg" width="100.645" height="100.645" viewBox="0 0 100.645 100.645">
  <g id="Layer_1" data-name="Layer 1">
    <path id="Path_302" data-name="Path 302" d="M100.645,50.325A50.323,50.323,0,1,1,50.325,0a50.324,50.324,0,0,1,50.32,50.325" fill="#d1d3d4" fill-rule="evenodd"/>
    <path id="Path_303" data-name="Path 303" d="M76.384,301.527a48.1,48.1,0,0,0,40.531-22.177H35.85a48.1,48.1,0,0,0,40.534,22.177" transform="translate(-26.059 -203.053)" fill="#363435" fill-rule="evenodd"/>
    <path id="Path_304" data-name="Path 304" d="M56.133,8A48.138,48.138,0,0,0,15.6,82.112H96.664A48.138,48.138,0,0,0,56.133,8" transform="translate(-5.808 -5.815)" fill="#363435" fill-rule="evenodd"/>
    <path id="Path_305" data-name="Path 305" d="M105.364,63.049a4.564,4.564,0,0,0,0,9.128A10.045,10.045,0,1,1,95.319,82.222V45.184a4.564,4.564,0,0,0-9.128,0V82.222a19.173,19.173,0,1,0,19.173-19.173m-42.309.273H61.638a17.939,17.939,0,0,0-9.5,2.731,4.561,4.561,0,0,0-9.046.819v13.88a4.835,4.835,0,0,0,.057.565c-.022.385-.057.767-.057,1.161v13.88a4.567,4.567,0,0,0,9.13,0V82.511c0-5.536,4.225-10.045,9.417-10.045h1.426c5.189,0,9.417,4.509,9.417,10.045v13.88a4.564,4.564,0,0,0,9.128,0V82.511C81.6,71.931,73.281,63.33,63.055,63.33Z" transform="translate(-31.321 -29.526)" fill="#fff" fill-rule="evenodd"/>
    <path id="Path_306" data-name="Path 306" d="M92.639,300.334a3.277,3.277,0,0,0,.893,2.346,2.862,2.862,0,0,0,2.155.942,2.832,2.832,0,0,0,2.1-.948,3.1,3.1,0,0,0,.912-2.223,3.3,3.3,0,0,0-.9-2.33,2.8,2.8,0,0,0-2.117-.967,2.9,2.9,0,0,0-2.149.918,3.111,3.111,0,0,0-.9,2.261m.724,4.714a2.007,2.007,0,0,0,.844,1.093,2.731,2.731,0,0,0,1.486.388,2.832,2.832,0,0,0,2.185-.907A3.461,3.461,0,0,0,98.7,303.2v-.227a4.1,4.1,0,0,1-1.325,1.194,3.387,3.387,0,0,1-1.639.4,4.236,4.236,0,0,1-3-7.169,3.938,3.938,0,0,1,2.92-1.2,3.89,3.89,0,0,1,1.753.369,3.589,3.589,0,0,1,1.306,1.142v-1.319h1.005v6.683a4.766,4.766,0,0,1-1.054,3.277,3.6,3.6,0,0,1-2.89,1.163,4.018,4.018,0,0,1-2.338-.672,2.988,2.988,0,0,1-1.259-1.792Z" transform="translate(-66.545 -215.298)" fill="#fff" fill-rule="evenodd"/>
    <path id="Path_307" data-name="Path 307" d="M141.9,304.568H140.86v-8h.967v.92a2.532,2.532,0,0,1,.819-.773,2.237,2.237,0,0,1,1.038-.273v1.109a1.922,1.922,0,0,0-1.366.579,2.49,2.49,0,0,0-.415,1.6Z" transform="translate(-102.388 -215.476)" fill="#fff" fill-rule="evenodd"/>
    <path id="Path_308" data-name="Path 308" d="M167.628,300.249a3.258,3.258,0,0,0,.877,2.319,2.868,2.868,0,0,0,2.185.934,2.821,2.821,0,0,0,2.152-.934,3.277,3.277,0,0,0,.871-2.332,3.226,3.226,0,0,0-.882-2.332,2.971,2.971,0,0,0-2.237-.912,2.756,2.756,0,0,0-2.092.94,3.277,3.277,0,0,0-.871,2.319m-1.092,0a4.176,4.176,0,0,1,1.207-3A3.837,3.837,0,0,1,170.608,296a4.192,4.192,0,0,1,4.187,4.16,4.28,4.28,0,0,1-1.2,3.053,3.859,3.859,0,0,1-2.909,1.254,3.933,3.933,0,0,1-2.931-1.232,4.119,4.119,0,0,1-1.215-2.977Z" transform="translate(-121.053 -215.156)" fill="#fff" fill-rule="evenodd"/>
    <path id="Path_309" data-name="Path 309" d="M214.72,296.9h1.019v4.242a3.819,3.819,0,0,0,.53,2.313,2.093,2.093,0,0,0,1.748.68,2.551,2.551,0,0,0,1.215-.273,2.147,2.147,0,0,0,.844-.819,2.349,2.349,0,0,0,.273-.737,9.422,9.422,0,0,0,.079-1.478V296.9h1.019v8h-1.019v-.874a2.884,2.884,0,0,1-1.041.819,3.45,3.45,0,0,1-1.393.254,3.056,3.056,0,0,1-2.5-.934,4.913,4.913,0,0,1-.765-3.105Z" transform="translate(-156.075 -215.81)" fill="#fff" fill-rule="evenodd"/>
    <path id="Path_310" data-name="Path 310" d="M259.806,300.315a3.318,3.318,0,0,0,.9,2.341,2.8,2.8,0,0,0,2.122.972,2.9,2.9,0,0,0,2.158-.92,3.111,3.111,0,0,0,.9-2.261,3.277,3.277,0,0,0-.9-2.357,2.914,2.914,0,0,0-2.185-.95,2.794,2.794,0,0,0-2.087.956,3.135,3.135,0,0,0-.9,2.22m-1.016-3.944h1.016v1.3a3.068,3.068,0,0,1,1.248-1.092,3.849,3.849,0,0,1,1.729-.4,4.042,4.042,0,0,1,3,1.2,4.37,4.37,0,0,1,.014,5.979,3.925,3.925,0,0,1-2.944,1.234,3.993,3.993,0,0,1-1.756-.377,3.384,3.384,0,0,1-1.3-1.092V307H258.79Z" transform="translate(-188.109 -215.282)" fill="#fff" fill-rule="evenodd"/>
    <path id="Path_311" data-name="Path 311" d="M156.819,19.905s-5.667,12.837-1,22.767c.2.434.429.866.675,1.289,5.853,10.078-20.806-10.078-.325-25.032Z" transform="translate(-107.796 -13.76)" fill="#fff"/>
    <path id="Path_312" data-name="Path 312" d="M118.28,36.078s-.527,11.119,5.774,17.144a10.021,10.021,0,0,0,.869.762c7.216,5.79-18.3-1.508-7.4-18.444Z" transform="translate(-83.424 -25.833)" fill="#fff"/>
    <path id="Path_313" data-name="Path 313" d="M275.859,85.3a.77.77,0,0,0-.147-.475.855.855,0,0,0-.494-.273,1.964,1.964,0,0,0-.246-.036h-.986v1.6h.727a1.856,1.856,0,0,0,.511-.06,1.117,1.117,0,0,0,.358-.169.669.669,0,0,0,.21-.257.738.738,0,0,0,.068-.32m1.123,3.351a.1.1,0,0,1,0,.052.1.1,0,0,1-.057.038.689.689,0,0,1-.12.022H276.6a1.709,1.709,0,0,1-.186,0,.519.519,0,0,1-.115-.025.145.145,0,0,1-.066-.046.238.238,0,0,1-.041-.074l-.53-1.147a3.507,3.507,0,0,0-.188-.352,1.2,1.2,0,0,0-.232-.273,1.029,1.029,0,0,0-.317-.18,1.3,1.3,0,0,0-.437-.066h-.5v2.032a.068.068,0,0,1-.019.052.117.117,0,0,1-.06.036.741.741,0,0,1-.112.022,1.136,1.136,0,0,1-.18,0,1.153,1.153,0,0,1-.183,0,.676.676,0,0,1-.112-.022.1.1,0,0,1-.06-.036.068.068,0,0,1-.019-.052V84.233a.221.221,0,0,1,.09-.2.333.333,0,0,1,.188-.057h1.546l.251.022a2.494,2.494,0,0,1,.576.15,1.33,1.33,0,0,1,.418.273,1.008,1.008,0,0,1,.254.363,1.153,1.153,0,0,1,.085.451,1.122,1.122,0,0,1-.076.429,1.049,1.049,0,0,1-.218.336,1.434,1.434,0,0,1-.344.251,2.293,2.293,0,0,1-.445.18,1.214,1.214,0,0,1,.251.131,1.148,1.148,0,0,1,.21.191,1.908,1.908,0,0,1,.186.254c.057.1.115.2.172.325l.5,1.052a1.583,1.583,0,0,1,.076.186.24.24,0,0,1,.019.079Zm-1.871-5.992a1.54,1.54,0,1,1,0-.014Zm0-.254a1.645,1.645,0,1,1,0-.014Z" transform="translate(-197.086 -59.895)" fill="#fff" fill-rule="evenodd"/>
  </g>
</svg>
