<svg xmlns="http://www.w3.org/2000/svg" width="122.001" height="46.477" viewBox="0 0 122.001 46.477">
  <g id="Layer_2" data-name="Layer 2" transform="translate(0.016 0.044)">
    <g id="Layer_1" data-name="Layer 1" transform="translate(-0.016 -0.044)">
      <path id="Path_322" data-name="Path 322" d="M50.142,21.411c-.33.452-.63.825-.891,1.215-.85,1.278-1.716,2.547-2.523,3.852s-1.561,2.613-2.289,3.948a15.854,15.854,0,0,0-.849,2,.766.766,0,0,0,.866,1.083,4.574,4.574,0,0,0,1.568-.68,22.155,22.155,0,0,0,4.006-3.772c.46-.527.928-1.05,1.392-1.573.045-.051.091-.118.149-.138a1.485,1.485,0,0,1,.3-.041c-.02.1-.008.22-.065.285-.413.476-.831.951-1.268,1.4-1.027,1.073-2.021,2.174-3.114,3.171a11.257,11.257,0,0,1-2.261,1.544,1.806,1.806,0,0,1-2.689-1.286,9.434,9.434,0,0,1-.191-1.989,1.085,1.085,0,0,0-.139-.356,1.146,1.146,0,0,0-.311.165C41,31,40.2,31.8,39.334,32.508a5.263,5.263,0,0,1-2.694,1.41,2.528,2.528,0,0,1-2.745-1.747,9.26,9.26,0,0,1-.2-3.832,1.69,1.69,0,0,0,.017-.37c-.011-.083-.075-.226-.118-.227a.383.383,0,0,0-.264.12,27.176,27.176,0,0,1-3.806,3.809,11.021,11.021,0,0,1-5.553,2.421,12.774,12.774,0,0,1-3.893-.165,37.831,37.831,0,0,1-5.5-1.684,10.314,10.314,0,0,1-1.019-.445.968.968,0,0,0-1.007.07,15.286,15.286,0,0,1-7.08,2.317,8.131,8.131,0,0,1-3.919-.668,2.533,2.533,0,0,1-1.5-1.74,1.973,1.973,0,0,1,1.01-2.3,7.142,7.142,0,0,1,2.01-.529,11.406,11.406,0,0,1,3.427.268c1.136.224,2.306.335,3.445.567a17.365,17.365,0,0,1,2.36.684c.762.271.887.281,1.445-.295A18.834,18.834,0,0,0,16.5,27.07c.8-1.3,1.573-2.606,2.321-3.931.606-1.073,1.155-2.178,1.729-3.27q.43-.819.843-1.65c.144-.286.033-.462-.289-.437a8.356,8.356,0,0,0-.935.142,20.291,20.291,0,0,1-6.07.172,11.691,11.691,0,0,1-5.98-2.421,7.172,7.172,0,0,1-2.932-4.835A7.859,7.859,0,0,1,7.665,3.591,15.267,15.267,0,0,1,10.8,1.438,13.254,13.254,0,0,1,14.94.131a11.718,11.718,0,0,1,4.3.051,28.151,28.151,0,0,1,3.2.748,23.559,23.559,0,0,1,3.119,1.359,15.087,15.087,0,0,1,4.456,3.594c.24.269.447.248.686-.014a17.4,17.4,0,0,1,5.111-3.821,5.128,5.128,0,0,1,3.23-.556,1.949,1.949,0,0,1,1.422,1.537,5.238,5.238,0,0,1-1.077,3.789A22.423,22.423,0,0,1,34,11.915a41.2,41.2,0,0,1-5.721,3.4,12.535,12.535,0,0,1-1.868.844,3.2,3.2,0,0,0-1.742,1.681c-1.386,2.255-2.753,4.524-4.235,6.715a23.784,23.784,0,0,1-4.1,4.539c-.611.545-1.314.983-1.967,1.478-.1.073-.205.219-.193.315s.165.217.271.248c1.942.48,3.879.976,5.834,1.409a15.051,15.051,0,0,0,4.447.418,8.6,8.6,0,0,0,2.9-.7,15.364,15.364,0,0,0,4.823-3.977c.6-.66,1.183-1.334,1.8-1.981s1.247-1.313,1.911-1.925a12.144,12.144,0,0,1,5.36-3,10.6,10.6,0,0,1,2.1-.3,1.636,1.636,0,0,1,1.823,1.568,8.256,8.256,0,0,1,0,1.187,2.418,2.418,0,0,0-.026.367,1.267,1.267,0,0,0,.141.314c.093-.063.222-.1.274-.19q.6-1.008,1.167-2.033a1.46,1.46,0,0,1,1.432-.908c.413.023.825-.023,1.238-.027A3.773,3.773,0,0,1,50.142,21.411ZM17.279,16.629l.008.1c1.609-.138,3.218-.26,4.826-.43a1.143,1.143,0,0,0,.66-.432c.392-.5.728-1.028,1.091-1.544.825-1.176,1.609-2.393,2.5-3.514,1.088-1.369,2.28-2.66,3.408-4a.564.564,0,0,0,.048-.531,11.718,11.718,0,0,0-1.172-1.264A16.642,16.642,0,0,0,23.1,1.573,16.869,16.869,0,0,0,17.645.445,15.927,15.927,0,0,0,14.736.62a13.6,13.6,0,0,0-2.971.781A16.126,16.126,0,0,0,8.912,2.995a6.8,6.8,0,0,0-3.169,5.81A8.183,8.183,0,0,0,5.9,9.9a5.527,5.527,0,0,0,1.438,2.991,10.886,10.886,0,0,0,3.8,2.677,12,12,0,0,0,4.9,1.073C16.455,16.629,16.868,16.629,17.279,16.629ZM32.692,9.967l-.155.083a5.018,5.018,0,0,1-.413-.488c-.393-.595-.771-1.2-1.155-1.8-.211-.33-.429-.318-.654,0-1.584,2.266-2.684,4.807-4.077,7.179a.459.459,0,0,0,0,.413c.067.083.286.083.4.033,1.388-.618,2.8-1.2,4.145-1.9a26.024,26.024,0,0,0,4.629-3.12A16.141,16.141,0,0,0,39.424,6,4.643,4.643,0,0,0,40.09,3.37a1.57,1.57,0,0,0-1.572-1.534,5.59,5.59,0,0,0-3.424,1.222,21.507,21.507,0,0,0-3.923,3.493.5.5,0,0,0-.053.7c.5.759.957,1.536,1.424,2.311a2.262,2.262,0,0,1,.149.412Zm2.633,21.779v.413a1.215,1.215,0,0,0,1.712,1.277A6.327,6.327,0,0,0,39.6,31.928a21.919,21.919,0,0,0,4.591-5.612,6.159,6.159,0,0,0,.862-3.344,1.387,1.387,0,0,0-1.493-1.457,4.924,4.924,0,0,0-3.4,1.457,16.957,16.957,0,0,0-3.543,4.615,8.551,8.551,0,0,0-1.288,4.162ZM4.7,33.821a15.806,15.806,0,0,0,7.335-2.048c.083-.043.179-.181.165-.242a.433.433,0,0,0-.234-.252c-.257-.093-.531-.139-.792-.22-1.174-.364-2.34-.755-3.52-1.094a13.627,13.627,0,0,0-3.477-.578,6.784,6.784,0,0,0-2.467.248A1.713,1.713,0,0,0,.48,30.995a1.643,1.643,0,0,0,.711,1.726A6.3,6.3,0,0,0,4.7,33.821Z" transform="translate(0.016 0.044)" fill="#363435"/>
      <path id="Path_323" data-name="Path 323" d="M1016.756,160.141a1.764,1.764,0,0,0-.421.266c-.825.95-1.635,1.915-2.458,2.867-.952,1.1-1.863,2.24-2.879,3.276-1.189,1.212-2.446,2.363-3.728,3.478a4.41,4.41,0,0,1-2.506,1.164c-1.134.094-2.2-.269-2.387-1.721a6.632,6.632,0,0,1,.47-3.089,19.068,19.068,0,0,1,2.634-4.394c.312-.451.652-.882.956-1.337a1.271,1.271,0,0,0,.11-.438c-.135.053-.31.068-.4.165-1.271,1.386-2.528,2.785-3.8,4.175a2.564,2.564,0,0,1-.4.3l-.133-.147c.229-.292.441-.6.689-.874,1.4-1.546,2.853-3.048,4.191-4.647a1.89,1.89,0,0,1,1.721-.763c.382.021.767-.032,1.155-.041a2.252,2.252,0,0,1,.38.068c-.213.356-.391.66-.573.956-1.171,1.919-2.358,3.83-3.51,5.762-.68,1.14-1.313,2.311-1.95,3.474a4.521,4.521,0,0,0-.343.88,1,1,0,0,0,.3,1.018,1.01,1.01,0,0,0,1.191.191,15.733,15.733,0,0,0,2.193-1.2,25.327,25.327,0,0,0,4.278-4.14c1.307-1.459,2.641-2.895,3.908-4.39,1.22-1.442,2.372-2.943,3.549-4.426.374-.472.729-.961,1.073-1.457a.577.577,0,0,0,.1-.442c-.03-.089-.239-.156-.374-.165-.342-.023-.687,0-1.03-.017-.083,0-.165-.1-.242-.159.083-.057.16-.161.243-.165a10.991,10.991,0,0,1,1.277,0,.753.753,0,0,0,.779-.413c.761-1.238,1.522-2.476,2.3-3.7.124-.194.353-.434.549-.448.73-.054,1.467-.021,2.261-.021a3.406,3.406,0,0,1-.223.485c-.771,1.165-1.555,2.323-2.324,3.491-.074.113-.14.347-.083.405a.694.694,0,0,0,.459.182c1.485.01,2.971,0,4.456,0a3.4,3.4,0,0,1,.555.089v.165a1.586,1.586,0,0,1-.382.1c-1.691,0-3.383,0-5.072-.019a.841.841,0,0,0-.772.45c-1.078,1.685-2.169,3.361-3.225,5.06-1.259,2.027-2.513,4.057-3.714,6.117-.6,1.027-1.1,2.114-1.6,3.194-.293.626-.153,1.2.33,1.386a1.744,1.744,0,0,0,.957.036,6.329,6.329,0,0,0,2.778-1.541c1.174-1.054,2.32-2.146,3.42-3.275.829-.853,1.52-1.844,2.36-2.687a35.663,35.663,0,0,1,3.033-2.713,11.709,11.709,0,0,1,4.417-2.028,6.5,6.5,0,0,1,2-.116,1.581,1.581,0,0,1,1.439,1.551c.03.464-.017.932-.008,1.4a1.874,1.874,0,0,0,.11.446c.138-.1.33-.165.4-.295.33-.553.626-1.126.934-1.691.046-.083.095-.165.141-.252a1.568,1.568,0,0,1,1.65-.885,10.877,10.877,0,0,0,1.112-.023c.268,0,.315.118.165.334-.782,1.126-1.589,2.236-2.336,3.383-.77,1.183-1.5,2.393-2.21,3.615-.5.851-.948,1.733-1.394,2.609a5.152,5.152,0,0,0-.418,1.113.79.79,0,0,0,.192.908,1.072,1.072,0,0,0,1.088.123,7.4,7.4,0,0,0,2.294-1.493,34.376,34.376,0,0,0,3.851-4,4.672,4.672,0,0,1,.486-.5,1.042,1.042,0,0,1,.34-.13,1,1,0,0,1-.093.35,8.827,8.827,0,0,1-.695.813c-1.3,1.32-2.572,2.669-3.92,3.937a6.157,6.157,0,0,1-1.943,1.283c-1.466.559-2.465.087-2.768-1.556a15.6,15.6,0,0,1-.106-1.742c-.007-.1-.054-.236-.122-.267a.343.343,0,0,0-.3.06c-.145.122-.247.3-.39.422-.99.842-1.971,1.7-2.995,2.5a3.242,3.242,0,0,1-2.152.825,2.38,2.38,0,0,1-2.457-1.828,6.924,6.924,0,0,1-.148-3.856,1.552,1.552,0,0,0-.061-.534,1.727,1.727,0,0,0-.468.269,28.39,28.39,0,0,1-5.5,5.11,3.72,3.72,0,0,1-2.775.783,1.688,1.688,0,0,1-1.53-1.485,5.792,5.792,0,0,1,.5-3.438,26.8,26.8,0,0,1,2.986-5l.66-.956Zm17.632.413c0-.137.008-.275,0-.413a1.337,1.337,0,0,0-1.115-1.3,3.708,3.708,0,0,0-2.6.531,9.587,9.587,0,0,0-2.408,2.089,16.1,16.1,0,0,0-3.54,6.419,3.722,3.722,0,0,0-.082,2.032,1.068,1.068,0,0,0,1.371.857,6.2,6.2,0,0,0,1.726-.721,13.775,13.775,0,0,0,3.038-2.736,20.013,20.013,0,0,0,2.641-3.606A7.267,7.267,0,0,0,1034.388,160.553Z" transform="translate(-919.146 -137.227)" fill="#363435"/>
      <path id="Path_324" data-name="Path 324" d="M699.462,49.325a3.239,3.239,0,0,0,.57-.3c1.693-1.394,3.417-2.752,5.05-4.209,1.5-1.344,2.949-2.761,4.341-4.221s2.67-2.982,3.987-4.489q1.517-1.733,3-3.494c1.37-1.626,2.711-3.275,4.088-4.894s2.78-3.218,4.179-4.819a28.2,28.2,0,0,1,4.592-4.235,7.06,7.06,0,0,1,1.91-1.013,1.768,1.768,0,0,1,1.812,2.985,1.706,1.706,0,0,1-1.65.023c-.438-.281-.825-.587-1.261-.847a1.149,1.149,0,0,0-1.141-.011,8.417,8.417,0,0,0-2.38,1.743c-1.106,1.128-2.219,2.252-3.267,3.433-1.22,1.375-2.371,2.806-3.555,4.216-.848,1.008-1.706,2.008-2.553,3.016-.926,1.1-1.839,2.214-2.769,3.313-.664.786-1.32,1.579-2.022,2.33-1.674,1.8-3.312,3.631-5.078,5.336-1.815,1.749-3.737,3.388-5.661,5.018-1.033.875-2.169,1.629-3.259,2.437-.044.033-.092.087-.138.083-.258,0-.515-.024-.772-.039a1.84,1.84,0,0,1,.315-.567,13.519,13.519,0,0,0,3.622-5.328c.694-1.608,1.262-3.272,1.859-4.921.668-1.844,1.314-3.7,1.956-5.55.552-1.6,1.041-3.213,1.641-4.786.476-1.251,1.073-2.458,1.627-3.678.18-.394.151-.512-.281-.647a11.922,11.922,0,0,1-2.958-1.309,6.327,6.327,0,0,1-2.036-2.278c-.342-.594-.66-1.2-1-1.8a3.367,3.367,0,0,0-3.631-1.7,10.717,10.717,0,0,0-4.563,1.527,15.222,15.222,0,0,0-5.612,5.612,7.482,7.482,0,0,0-1.045,3.891,13.855,13.855,0,0,0,.239,2.363,3.3,3.3,0,0,0,3.13,2.393,7.929,7.929,0,0,0,4.808-1.617,10.933,10.933,0,0,0,3.009-3.232,18.68,18.68,0,0,0,1.362-2.624c.468-1.094.825-2.236,1.251-3.35.053-.138.224-.231.339-.344a1.212,1.212,0,0,1,.109.461c-.179.938-.346,1.882-.589,2.806a14.18,14.18,0,0,1-2.228,4.824,17.384,17.384,0,0,1-1.608,1.921,7.185,7.185,0,0,1-2.946,1.9,6.665,6.665,0,0,1-1.578.253,6.117,6.117,0,0,1-3.584-.687,4.476,4.476,0,0,1-2.2-3.173,8.191,8.191,0,0,1,.323-4.259,10.992,10.992,0,0,1,2.228-3.763,19.241,19.241,0,0,1,3.5-3.18,12.854,12.854,0,0,1,4.923-2.086,12.621,12.621,0,0,1,3.845-.123,4.224,4.224,0,0,1,3.807,2.759c.343.908.776,1.781,1.172,2.668a3.168,3.168,0,0,0,1.882,1.616.506.506,0,0,0,.668-.233c.561-.825,1.1-1.674,1.721-2.458a15.98,15.98,0,0,1,3.62-3.631,3.733,3.733,0,0,1,2.982-.772,1.421,1.421,0,0,1,1.1,1.354,4.1,4.1,0,0,1-1.4,3.259,9.564,9.564,0,0,1-4.606,2.825q-.715.186-1.441.33a.7.7,0,0,0-.6.578c-.462,1.748-.9,3.5-1.448,5.226-.475,1.5-1.046,2.977-1.639,4.438-.455,1.117-.971,2.212-1.533,3.279-.722,1.369-1.469,2.73-2.294,4.038-.972,1.541-2.033,3.025-3.069,4.526-.312.451-.673.868-1,1.308a4.7,4.7,0,0,0-.276.471ZM718.35,19.06a3.026,3.026,0,0,0-.172-.522c-.323-.647-1.01-.772-1.887-.512a5.753,5.753,0,0,0-2.888,2.152,13.9,13.9,0,0,0-2.3,4.059c-.137.405.012.6.43.529.391-.063.774-.172,1.159-.267a8.341,8.341,0,0,0,4.663-2.971A4.4,4.4,0,0,0,718.35,19.06Z" transform="translate(-630.084 -16.045)" fill="#363435"/>
      <path id="Path_325" data-name="Path 325" d="M870.388,505.945c-.215-.256-.405-.394-.472-.578-.37-1-.7-2.02-1.064-3.028a1.642,1.642,0,0,0-.269-.37,1.58,1.58,0,0,0-.27.362c-.375,1.046-.722,2.1-1.117,3.136a.721.721,0,0,1-.5.325c-.1.02-.3-.165-.352-.3q-.743-2.094-1.437-4.2c-.045-.135.065-.321.1-.484.149.107.383.184.434.326.384,1.073.728,2.156,1.1,3.232a1.519,1.519,0,0,0,.243.346,1.42,1.42,0,0,0,.289-.363q.543-1.552,1.051-3.117c.083-.248.186-.427.47-.432s.337.215.413.432c.343,1.042.692,2.083,1.056,3.118.048.135.194.235.295.352a1.583,1.583,0,0,0,.253-.344c.373-1.046.732-2.1,1.1-3.148.022-.065.017-.165.061-.192a3.448,3.448,0,0,1,.405-.193c.03.117.11.248.083.35-.174.578-.373,1.148-.566,1.72-.285.845-.562,1.693-.867,2.532C870.77,505.588,870.594,505.707,870.388,505.945Z" transform="translate(-793.527 -459.468)" fill="#363435"/>
      <path id="Path_326" data-name="Path 326" d="M1091.047,503.565c0,.687.009,1.375-.008,2.063a1.29,1.29,0,0,1-.165.423c-.15-.069-.347-.1-.442-.215-.838-1.015-1.65-2.048-2.488-3.066a1.779,1.779,0,0,0-.44-.289,1.987,1.987,0,0,0-.147.517c-.01.866.011,1.733,0,2.6a.813.813,0,0,1-.14.4c-.031.048-.224.066-.248.03a.659.659,0,0,1-.135-.359c-.008-1.073,0-2.146,0-3.218,0-.33-.018-.66.007-.99.01-.129.1-.34.18-.355a.513.513,0,0,1,.413.15c.838,1.015,1.659,2.045,2.484,3.071a.525.525,0,0,0,.107.124c.108.068.224.123.337.182a1.178,1.178,0,0,0,.16-.389c0-.838-.021-1.675-.022-2.514,0-.253-.129-.642.286-.643s.248.388.255.616c.019.618.007,1.238.007,1.855Z" transform="translate(-997.143 -459.735)" fill="#363435"/>
      <path id="Path_327" data-name="Path 327" d="M690.437,499.43a3.466,3.466,0,0,1,.773.4.812.812,0,0,1,.112,1.238,2.181,2.181,0,0,1-.278.3c-.593.541-.593.54,0,1.129.156.154.3.316.463.468.188.179.341.14.448-.092.011-.025.012-.054.024-.083.082-.183.068-.51.373-.4.076.026.116.484.013.632-.291.42-.189.688.17.976.083.068.063.273.091.413-.129-.029-.3-.015-.378-.094a.52.52,0,0,0-.829-.083,2.309,2.309,0,0,1-2.659-.049c-.66-.523-.507-1.254.089-1.9a.727.727,0,0,1,.1-.073c.6-.469.6-.469.182-1.094a1.036,1.036,0,0,1,.549-1.537C689.885,499.517,690.107,499.5,690.437,499.43Zm-.269,4.781a9.864,9.864,0,0,0,.99-.356.293.293,0,0,0,.083-.512c-.334-.342-.673-.682-1.027-1a.618.618,0,0,0-.4-.165,1.236,1.236,0,0,0-.87,1.272C689.053,503.855,689.54,504.137,690.168,504.211Zm.154-4.364a.85.85,0,0,0-.837.692c-.01.365.383.871.669.862a1.162,1.162,0,0,0,.9-.933A.7.7,0,0,0,690.322,499.848Z" transform="translate(-631.525 -458.212)" fill="#363435"/>
      <path id="Path_328" data-name="Path 328" d="M519.93,503.239c0-.673.014-1.346-.006-2.019-.01-.343.128-.469.456-.467.893,0,1.785-.013,2.677,0,.114,0,.224.165.336.248-.125.091-.247.254-.374.258-.644.022-1.291,0-1.936,0-.519,0-.584.083-.573.607.021,1.018-.159,1.061,1.066,1.036a9.961,9.961,0,0,1,1.111.006c.14.013.267.165.4.252-.132.078-.26.215-.4.222-.479.026-.961.007-1.441,0-.083,0-.165-.006-.247,0-.451.041-.509.22-.5,1.28,0,.377.146.564.533.558q.969,0,1.941,0a.97.97,0,0,1,.4.059.337.337,0,0,1,.153.253c0,.064-.1.156-.174.194a.634.634,0,0,1-.28.047c-.865,0-1.733,0-2.6-.012-.477,0-.545-.083-.545-.555v-1.981Z" transform="translate(-477.017 -459.423)" fill="#363435"/>
      <path id="Path_329" data-name="Path 329" d="M1203.4,503.236c0-.673.013-1.347,0-2.019-.009-.316.1-.457.42-.456.908,0,1.815-.018,2.723,0,.114,0,.225.165.338.254-.125.089-.248.248-.377.257-.63.023-1.263,0-1.9,0-.543,0-.63.092-.614.616.029,1.026.029,1.027,1.073,1.025.4,0,.8-.024,1.194.007.117.01.223.172.33.265-.113.074-.224.209-.34.214-.535.02-1.073,0-1.607,0-.556,0-.667.119-.653.687,0,.11.007.219.006.33-.012.795.015.825.79.816q.865,0,1.733,0a.531.531,0,0,1,.28.038.447.447,0,0,1,.195.267c.008.063-.115.181-.2.208a1.5,1.5,0,0,1-.448.043c-.825,0-1.65-.014-2.471-.017-.318,0-.477-.123-.469-.469C1203.41,504.61,1203.4,503.923,1203.4,503.236Z" transform="translate(-1104.085 -459.425)" fill="#363435"/>
      <path id="Path_330" data-name="Path 330" d="M298.434,505.842c-.045.054-.095.165-.142.16a.536.536,0,0,1-.369-.094,1.854,1.854,0,0,1-.322-.565.792.792,0,0,0-.908-.582c-.587.039-1.179.015-1.768,0a.6.6,0,0,0-.647.45,1.958,1.958,0,0,1-.3.621c-.087.1-.294.11-.447.16-.007-.133-.061-.287-.013-.4.594-1.353,1.2-2.7,1.809-4.049a.678.678,0,0,1,.165-.281.887.887,0,0,1,.466-.228.55.55,0,0,1,.4.27c.686,1.445,1.35,2.9,2.02,4.353C298.39,505.714,298.4,505.767,298.434,505.842Zm-2.505-1.546c.205,0,.413.006.616,0,.423-.015.513-.157.346-.545-.228-.527-.455-1.055-.7-1.576a1.706,1.706,0,0,0-.267-.33c-.106.1-.248.173-.309.293q-.39.812-.737,1.65c-.134.322-.012.49.35.512C295.464,504.307,295.7,504.3,295.929,504.3Z" transform="translate(-269.272 -459.688)" fill="#363435"/>
      <path id="Path_331" data-name="Path 331" d="M414.993,501c-.545.554-1.042,1.06-1.542,1.563-.531.535-.528.539-.035,1.127s.984,1.177,1.462,1.779a1.03,1.03,0,0,1,.106.352,1.1,1.1,0,0,1-.386,0,1.03,1.03,0,0,1-.348-.281c-.463-.524-.932-1.044-1.37-1.589-.234-.29-.426-.281-.677-.044a1.629,1.629,0,0,0-.709,1.56.488.488,0,0,1-.269.4c-.263.056-.283-.182-.283-.385,0-1.387-.01-2.774.01-4.16a.529.529,0,0,1,.262-.413c.281-.049.3.192.3.413-.009.6-.02,1.208-.011,1.816a1.553,1.553,0,0,0,.125.413,1.263,1.263,0,0,0,.383-.172c.67-.687,1.32-1.394,1.987-2.085C414.239,501.033,414.479,500.737,414.993,501Z" transform="translate(-377.027 -459.554)" fill="#363435"/>
      <path id="Path_332" data-name="Path 332" d="M186.766,502.547a2.548,2.548,0,0,1,3.038-2.534,5.436,5.436,0,0,1,1.155.372.481.481,0,0,1,.188.435c-.1.207-.295.165-.485.032a2.333,2.333,0,0,0-2.476.04,2.055,2.055,0,0,0-.69,2.366,1.929,1.929,0,0,0,2.113,1.3,7.627,7.627,0,0,0,1.119-.353,1.493,1.493,0,0,1,.475.031c-.07.142-.1.348-.216.418a2.723,2.723,0,0,1-3.893-.9A5.415,5.415,0,0,1,186.766,502.547Z" transform="translate(-171.349 -458.706)" fill="#363435"/>
      <path id="Path_333" data-name="Path 333" d="M1125.939,145.955a1.6,1.6,0,0,1-1.307,1.658,1.027,1.027,0,0,1-1.148-.66,1.765,1.765,0,0,1,1.073-2.1A1.02,1.02,0,0,1,1125.939,145.955Z" transform="translate(-1030.706 -132.831)" fill="#363435"/>
      <path id="Path_334" data-name="Path 334" d="M1014.679,503.337v2.02c0,.217.02.489-.3.484s-.3-.272-.3-.5V501.3c0-.229.039-.431.316-.433.3,0,.293.226.293.441v2.021Z" transform="translate(-930.393 -459.533)" fill="#363435"/>
    </g>
  </g>
</svg>
