<svg xmlns="http://www.w3.org/2000/svg" width="126.011" height="60.158" viewBox="0 0 126.011 60.158">
  <g id="Layer_2" data-name="Layer 2" transform="translate(0.011 -0.016)">
    <g id="Layer_1" data-name="Layer 1" transform="translate(-0.011 0.016)">
      <path id="Path_362" data-name="Path 362" d="M118.193,161.119l-.115-.346-2.487-5.868-2.653,6.214Zm-8.664,7.481a3.749,3.749,0,0,1-1.253-.152.63.63,0,0,1-.4-.66c0-.205.152-.436.461-.691a1.728,1.728,0,0,0,.722-.773l.843-2.6a85.546,85.546,0,0,1,3.3-8.1c.5-1.149,1.076-2.333,1.72-3.53a1.439,1.439,0,0,1,.641-.672,3.105,3.105,0,0,1,1.048-.132,2.472,2.472,0,0,1,1.349.267,2.737,2.737,0,0,1,.767,1.144l4.8,11.241.8,2.417a1.473,1.473,0,0,0,.219.416,3.654,3.654,0,0,0,.466.351.742.742,0,0,1,.467.66q0,.8-1.189.8h-3.948c-.978,0-1.464-.256-1.464-.767,0-.261.174-.486.526-.672s.517-.357.517-.517a14.46,14.46,0,0,0-.964-3.223l-.115-.382h-6.554c-.025.1-.129.416-.309.939s-.326.972-.427,1.343a3.452,3.452,0,0,0-.152.863.815.815,0,0,0,.152.531,1.9,1.9,0,0,0,.455.36,2.445,2.445,0,0,1,.458.318.669.669,0,0,1-.281,1.062,4.717,4.717,0,0,1-1.36.146Zm-14.613-3.912A3.8,3.8,0,0,0,95.2,166.5c.194.3.7.447,1.537.447a5.121,5.121,0,0,0,4.308-1.936,7.772,7.772,0,0,0,1.515-4.853,8.9,8.9,0,0,0-.672-3.5,5.857,5.857,0,0,0-2.032-2.566,5.533,5.533,0,0,0-3.28-.958,2.639,2.639,0,0,0-1.152.186.8.8,0,0,0-.422.562,7.072,7.072,0,0,0-.076,1.242Zm2.417-13.236a15.77,15.77,0,0,1,3.726.391,7.529,7.529,0,0,1,2.987,1.5,7.823,7.823,0,0,1,3.069,6.593,10.247,10.247,0,0,1-.587,3.459,7.67,7.67,0,0,1-1.793,2.833A8.865,8.865,0,0,1,98.1,168.6H90.54q-1.152,0-1.149-.8a.562.562,0,0,1,.126-.41,3.59,3.59,0,0,1,.455-.32l.261-.152q.422-.281.422-1.267v-11.2q0-1.033-.422-1.31l-.261-.115c-.385-.236-.582-.492-.582-.767a.649.649,0,0,1,.351-.607,1.588,1.588,0,0,1,.8-.2Zm-20.571,9.791a9.17,9.17,0,0,0,.621,3.906,3.579,3.579,0,0,0,3.561,2,4.449,4.449,0,0,0,1.99-.481,3.136,3.136,0,0,0,1.419-1.318,9.28,9.28,0,0,0,.621-4.066v-7.262a.969.969,0,0,0-.16-.658,2.309,2.309,0,0,0-.607-.385c-.416-.177-.621-.422-.621-.728,0-.537.467-.807,1.388-.807H87q1.374,0,1.374.807c0,.281-.2.531-.607.728a2.375,2.375,0,0,0-.638.385.967.967,0,0,0-.166.658v6.9a20.658,20.658,0,0,1-.244,3.409,5.008,5.008,0,0,1-1.144,2.453q-1.785,2.158-5.786,2.156a10.84,10.84,0,0,1-2.987-.427,5.773,5.773,0,0,1-2.467-1.343,5.3,5.3,0,0,1-1.464-2.546,13.77,13.77,0,0,1-.371-3.372v-6.8c0-.728-.141-1.163-.427-1.31l-.225-.115c-.391-.236-.582-.492-.582-.767q0-.807,1.149-.807h4.5q1.267,0,1.267.807a.807.807,0,0,1-.545.728c-.4.155-.627.281-.689.422a4.6,4.6,0,0,0-.194,1.082ZM64.025,152.68a3,3,0,0,1,.562-1.009,1.5,1.5,0,0,1,.972-.219h4.373a.745.745,0,0,1,.562.225.843.843,0,0,1,.216.621.669.669,0,0,1-.211.562,2.782,2.782,0,0,1-.672.32.843.843,0,0,0-.562.368,1.877,1.877,0,0,0-.126.781v11.323c0,.66.141,1.082.422,1.262l.267.152c.36.23.54.475.54.731q0,.8-1.152.8H64.75q-1.107,0-1.124-.8a.562.562,0,0,1,.121-.416,2.177,2.177,0,0,1,.422-.315l.261-.152c.281-.18.422-.6.422-1.262v-10.17l-3.8,9.4c-.211.5-.351.812-.43.947a.891.891,0,0,1-.4.357,1.846,1.846,0,0,1-.843.155,2.945,2.945,0,0,1-1.152-.16,1.647,1.647,0,0,1-.621-.8l-4.14-9.631v9.937a5.9,5.9,0,0,0,.146.773.8.8,0,0,0,.225.315,1.043,1.043,0,0,0,.312.185c.124.045.239.1.346.146a.8.8,0,0,1,.621.767q0,.728-1.61.728H51.477q-1.571,0-1.574-.728a.776.776,0,0,1,.562-.767,4.725,4.725,0,0,0,.613-.281.68.68,0,0,0,.281-.377,5.778,5.778,0,0,0,.149-.773V154.434a1.31,1.31,0,0,0-.079-.5,1.225,1.225,0,0,0-.925-.843,2.484,2.484,0,0,1-.672-.312.6.6,0,0,1-.205-.531q0-.807,1.343-.807h4.564a1.141,1.141,0,0,1,.986.351,6.643,6.643,0,0,1,.587,1.338l3.26,8.4Zm-25.742,6.989a8.366,8.366,0,0,0,3.78-.927,2.872,2.872,0,0,0,1.706-2.718,2.554,2.554,0,0,0-.939-2.167,3.892,3.892,0,0,0-2.437-.717,2.35,2.35,0,0,0-1.726.461,2.129,2.129,0,0,0-.385,1.534Zm.039,5.983c0,.66.141,1.082.422,1.262l.281.152c.36.225.54.467.54.731q0,.8-1.152.8H33.943q-1.149,0-1.149-.8a.562.562,0,0,1,.126-.41,3.591,3.591,0,0,1,.455-.32l.225-.152c.281-.141.422-.562.422-1.262V154.49c0-.736-.141-1.169-.422-1.31l-.225-.155a3.6,3.6,0,0,1-.461-.326.537.537,0,0,1-.121-.4c0-.54.382-.807,1.149-.807l8.327-.039a8.872,8.872,0,0,1,3.881.66,3.861,3.861,0,0,1,1.574,1.405,3.679,3.679,0,0,1,.607,2.04c0,1.891-1.189,3.409-3.575,4.533a17.9,17.9,0,0,1,3.266,5.71,5.8,5.8,0,0,0,.475.888,2.2,2.2,0,0,0,.638.537,3,3,0,0,1,.467.3.492.492,0,0,1,.115.385q0,.686-1.225.689H43.92a3.333,3.333,0,0,1-1.031-.132.6.6,0,0,1-.388-.635c0-.236.166-.458.5-.663s.5-.422.5-.641a6.624,6.624,0,0,0-1.037-2.678,16.018,16.018,0,0,0-1.841-2.768l-2.3.382Zm-15.5-1.349a5.432,5.432,0,0,0,.214,1.8,1.155,1.155,0,0,0,.882.652,12.912,12.912,0,0,0,2.366.174,7.183,7.183,0,0,0,1.919-.205,3.4,3.4,0,0,0,1.405-.947,10.064,10.064,0,0,1,.773-.843,1.009,1.009,0,0,1,.722-.281.843.843,0,0,1,.582.23.689.689,0,0,1,.264.537,8.211,8.211,0,0,1-.5,2.141,1.63,1.63,0,0,1-.481.9,2.049,2.049,0,0,1-1.054.177H18.445q-1.149,0-1.149-.8a.562.562,0,0,1,.126-.41,3.872,3.872,0,0,1,.455-.326l.261-.146q.422-.281.422-1.267V154.451q0-1.033-.422-1.31l-.261-.115c-.385-.236-.582-.492-.582-.767a.649.649,0,0,1,.351-.607,1.588,1.588,0,0,1,.8-.2H29.374a1.964,1.964,0,0,1,1.31.306,4.08,4.08,0,0,1,.385,2.226c0,.666-.281,1-.843,1-.306,0-.663-.236-1.074-.7a2.7,2.7,0,0,0-1.464-.953,10,10,0,0,0-2.341-.2,5.749,5.749,0,0,0-1.942.2.7.7,0,0,0-.585.68v4.328h3.527a2.336,2.336,0,0,0,.981-.146,2.982,2.982,0,0,0,.587-.422.972.972,0,0,1,.613-.281q.843,0,.843,1.61a5.03,5.03,0,0,1-.16,1.464.663.663,0,0,1-.686.495,1.054,1.054,0,0,1-.652-.281,2.912,2.912,0,0,0-.582-.4,2.268,2.268,0,0,0-.947-.135H22.82Zm-17.3.877a1.933,1.933,0,0,0,.346,1.349,2.556,2.556,0,0,0,1.61.346,5.272,5.272,0,0,0,2.993-.812,2.767,2.767,0,0,0,1.225-2.49,3.024,3.024,0,0,0-.787-2.04,3.962,3.962,0,0,0-1.9-1.222l-3.49.843Zm0-5.9a10.628,10.628,0,0,0,3.592-1.433,3.053,3.053,0,0,0,1.588-2.673q0-2.108-3.223-2.108a2.5,2.5,0,0,0-1.72.422,2.254,2.254,0,0,0-.236,1.265ZM1.144,168.6q-1.152,0-1.152-.812a.545.545,0,0,1,.126-.41,4.14,4.14,0,0,1,.455-.326l.261-.146q.422-.281.422-1.267V154.451c0-.7-.141-1.124-.422-1.31l-.261-.115c-.382-.236-.582-.492-.582-.767a.649.649,0,0,1,.351-.607,1.591,1.591,0,0,1,.8-.2h8.51a7.16,7.16,0,0,1,3.606.731,3.343,3.343,0,0,1,1.849,3.074,3.277,3.277,0,0,1-.961,2.327,6.616,6.616,0,0,1-2.338,1.574,7.065,7.065,0,0,1,2.248.857,4.7,4.7,0,0,1,1.607,1.56,4.033,4.033,0,0,1,.593,2.192,4.232,4.232,0,0,1-1.81,3.608A6.849,6.849,0,0,1,10.2,168.6ZM123.8,153.1a1.012,1.012,0,0,0,.45-.11.343.343,0,0,0,.2-.323.312.312,0,0,0-.112-.259.472.472,0,0,0-.281-.084.281.281,0,0,0-.205.053.256.256,0,0,0-.045.183Zm0,.711c0,.079.017.129.051.149l.034.02a.107.107,0,0,1,.062.087c0,.062-.045.1-.135.1h-.531c-.09,0-.135-.034-.135-.1a.084.084,0,0,1,0-.051l.053-.037.028-.02c.034-.017.051-.065.051-.149v-1.326c0-.087-.017-.138-.051-.155l-.028-.02a.258.258,0,0,1-.053-.039v-.048a.135.135,0,0,1,.135-.1h.989a1.1,1.1,0,0,1,.464.076.487.487,0,0,1,.185.169.436.436,0,0,1,.073.242c0,.225-.141.4-.424.54a2.161,2.161,0,0,1,.388.677.673.673,0,0,0,.056.107.264.264,0,0,0,.076.065.47.47,0,0,1,.056.034.07.07,0,0,1,0,.048c0,.053-.048.081-.143.081h-.545a.357.357,0,0,1-.121-.017.073.073,0,0,1-.048-.076c0-.028.02-.053.059-.079a.1.1,0,0,0,.059-.076.781.781,0,0,0-.121-.318,2.044,2.044,0,0,0-.219-.329l-.281.045Zm1.967-.669a1.6,1.6,0,1,0-.006,0Zm.233,0a1.835,1.835,0,1,1-.006,0Z" transform="translate(0.011 -108.777)" fill="#363435"/>
      <path id="Path_363" data-name="Path 363" d="M118.155,72.794l6.694-6.691a.947.947,0,0,1,1.338,0l6.691,6.691a.953.953,0,0,1,0,1.34l-6.691,6.691a.947.947,0,0,1-1.338,0l-6.694-6.691a.953.953,0,0,1,0-1.34" transform="translate(-84.749 -47.331)" fill="#363435" fill-rule="evenodd"/>
      <path id="Path_364" data-name="Path 364" d="M151.068,39.884l6.694-6.691a.947.947,0,0,1,1.338,0l6.694,6.691a.953.953,0,0,1,0,1.338L159.1,47.916a.947.947,0,0,1-1.338,0l-6.694-6.694a.953.953,0,0,1,0-1.338" transform="translate(-108.414 -23.67)" fill="#363435" fill-rule="evenodd"/>
      <path id="Path_365" data-name="Path 365" d="M183.982,6.981,190.674.292a.947.947,0,0,1,1.338,0l6.694,6.688a.947.947,0,0,1,0,1.338l-6.694,6.691a.947.947,0,0,1-1.338,0l-6.691-6.691a.947.947,0,0,1,0-1.338" transform="translate(-132.076 -0.016)" fill="#363435" fill-rule="evenodd"/>
      <path id="Path_366" data-name="Path 366" d="M264.544,72.794,257.85,66.1a.947.947,0,0,0-1.338,0l-6.694,6.691a.955.955,0,0,0,0,1.34l6.694,6.691a.947.947,0,0,0,1.338,0l6.694-6.691a.953.953,0,0,0,0-1.341" transform="translate(-179.411 -47.331)" fill="#363435" fill-rule="evenodd"/>
      <path id="Path_367" data-name="Path 367" d="M231.626,39.884l-6.691-6.691a.947.947,0,0,0-1.338,0L216.9,39.884a.947.947,0,0,0,0,1.338l6.694,6.694a.947.947,0,0,0,1.338,0l6.691-6.694a.947.947,0,0,0,0-1.338" transform="translate(-155.745 -23.67)" fill="#363435" fill-rule="evenodd"/>
      <path id="Path_368" data-name="Path 368" d="M198.708,72.794,192.014,66.1a.947.947,0,0,0-1.338,0l-6.691,6.691a.953.953,0,0,0,0,1.341l6.691,6.691a.947.947,0,0,0,1.338,0l6.694-6.691a.953.953,0,0,0,0-1.341" transform="translate(-132.079 -47.331)" fill="#363435" fill-rule="evenodd"/>
    </g>
  </g>
</svg>
