<svg xmlns="http://www.w3.org/2000/svg" width="122" height="57.535" viewBox="0 0 122 57.535">
  <g id="Layer_2" data-name="Layer 2" transform="translate(0.007 0.012)">
    <g id="Layer_1" data-name="Layer 1" transform="translate(-0.007 -0.012)">
      <path id="Path_454" data-name="Path 454" d="M100.092,151.053c.473-3.384,5.737-3.018,8.719-3.018a14.361,14.361,0,0,1,3.685.445,5.384,5.384,0,0,1,2.6,1.434,3.943,3.943,0,0,1,.947,2.84q0,.932-.258,4.227T115.4,165.6c-1.119-.024-2.234-.036-3.337-.036s-2.215.012-3.422.036c.159-1.233.327-3.775.518-7.63a11,11,0,0,1-1.013.44c-.237.092-.672.237-1.285.412s-1.1.334-1.439.459a3.451,3.451,0,0,0-.9.473,1.768,1.768,0,0,0-.542.6,1.389,1.389,0,0,0-.163.682,1.285,1.285,0,0,0,.473.992,2.226,2.226,0,0,0,1.474.407,5.445,5.445,0,0,0,.776-.059c2.27-.331.653,3.666-2.84,3.666a9.4,9.4,0,0,1-3.529-.577A4.419,4.419,0,0,1,98,163.591,5.06,5.06,0,0,1,97.247,161a4.414,4.414,0,0,1,.279-1.546,5.069,5.069,0,0,1,.88-1.479,5.916,5.916,0,0,1,1.394-1.231,9.757,9.757,0,0,1,2.187-.968,29.157,29.157,0,0,1,3.522-.854q.885-.17,1.626-.36a7.57,7.57,0,0,0,1.056-.338,1.786,1.786,0,0,0,.509-.331,1.169,1.169,0,0,0,.279-.4,1.124,1.124,0,0,0,.088-.44,1.105,1.105,0,0,0-.542-.992,2.954,2.954,0,0,0-1.6-.348c-4.833,0-7.389,3.4-6.823-.66M88.175,165.6l.185-2.182.118-1.434.66-12.543c.154-5.569-1.406-6.719,3.756-6.719,4.672,0,3.432,0,3.048,5.122l-.622,12.7-.135,5.069c-1.224-.012-2.322-.019-3.313-.019H90.35Zm-9.874,0,.3-3.616.658-12.543c.156-5.569-1.406-6.719,3.756-6.719,4.672,0,3.434,0,3.051,5.122l-.637,12.69L85.3,165.6c-1.226-.012-2.322-.019-3.3-.019ZM64.963,155.111h5.656c.012-.189.017-.348.017-.473a3.257,3.257,0,0,0-.315-1.491,1.988,1.988,0,0,0-.909-.9,3.19,3.19,0,0,0-2.322-.125,2.755,2.755,0,0,0-.869.473,2.951,2.951,0,0,0-.641.71,3.564,3.564,0,0,0-.379.772,10.458,10.458,0,0,0-.251,1.037Zm6.374,10.8c-.9.085-1.813.13-2.741.13a23.5,23.5,0,0,1-3.754-.272,8.757,8.757,0,0,1-2.956-.985,7.043,7.043,0,0,1-2.083-1.747,7.389,7.389,0,0,1-1.278-2.492,10.215,10.215,0,0,1-.435-2.968,10.664,10.664,0,0,1,.873-4.206,8.3,8.3,0,0,1,2.246-3.207,8.161,8.161,0,0,1,3.171-1.645,13.917,13.917,0,0,1,3.68-.485,15.2,15.2,0,0,1,3.713.445,6.916,6.916,0,0,1,3.008,1.548,6.35,6.35,0,0,1,1.756,2.5,8.6,8.6,0,0,1,.518,3,12.208,12.208,0,0,1-.208,2.13l-12.02.017c-.012.178-.017.338-.017.488a2.95,2.95,0,0,0,1.323,2.663,5.827,5.827,0,0,0,3.2.854,14.876,14.876,0,0,0,2.6-.258c6.764-1.209,3.47,4.1-.618,4.492ZM44.47,165.6l.542-7.46.175-4.284c0-.774.017-1.56.017-2.367,0-3.7-.594-3.008,3.242-3.008,3.06,0,3.3-.824,3.19,1.893a12.76,12.76,0,0,1,1.1-1.1,5.444,5.444,0,0,1,.973-.653,4.773,4.773,0,0,1,1.15-.435,5.3,5.3,0,0,1,1.252-.142c2.05,0,1.347,1.254,1.458,3.19.154,3.214.606,2.308-1.642,2.308a4.816,4.816,0,0,0-1.775.293,3.709,3.709,0,0,0-1.335.895,4.383,4.383,0,0,0-.916,1.484,9.915,9.915,0,0,0-.473,2.819c-.083,1.29-.14,2.755-.14,4.411q0,.878.071,2.166c-1.108-.024-2.222-.036-3.337-.036s-2.3,0-3.567.028ZM32.8,152.981a3.55,3.55,0,0,0-1.967.561,3.455,3.455,0,0,0-1.287,1.616,6.059,6.059,0,0,0-.438,2.319,3.9,3.9,0,0,0,.947,2.819,3.143,3.143,0,0,0,2.367.98,3.335,3.335,0,0,0,3.223-2.218,6.3,6.3,0,0,0,.438-2.367,4.946,4.946,0,0,0-.343-1.872,2.826,2.826,0,0,0-1.122-1.335,3.247,3.247,0,0,0-1.829-.5Zm.116-4.949a13.14,13.14,0,0,1,4.083.634,9.216,9.216,0,0,1,3.313,1.839,7.337,7.337,0,0,1,1.974,2.8,9.211,9.211,0,0,1,.641,3.448,10.25,10.25,0,0,1-.568,3.415,8.534,8.534,0,0,1-5.422,5.162,14.5,14.5,0,0,1-8.648.085,9.02,9.02,0,0,1-3.342-1.815,7.573,7.573,0,0,1-2.019-2.854,9.2,9.2,0,0,1-.686-3.479,9.419,9.419,0,0,1,.667-3.488A8.106,8.106,0,0,1,25,150.795a9.611,9.611,0,0,1,3.526-2.04,13.567,13.567,0,0,1,4.381-.719Zm-12.8,14.74c-.644,4.049-2.073,3.276-6.906,3.276a18.645,18.645,0,0,1-5.148-.682,12.7,12.7,0,0,1-4.369-2.227,8.859,8.859,0,0,1-2.84-3.654,13.443,13.443,0,0,1,.3-10.167,10.707,10.707,0,0,1,3.313-4.045A13.857,13.857,0,0,1,9.2,142.958a20.4,20.4,0,0,1,5.33-.7c2.4,0,6.227-.381,6.286,2.057.019.613.052,1.283.095,2.021.173,2.823-.106,1.673-3.119,1.278a17.732,17.732,0,0,0-2.3-.166,9.356,9.356,0,0,0-4.154.9,6.946,6.946,0,0,0-2.9,2.637,7.185,7.185,0,0,0-1.063,3.825,5.727,5.727,0,0,0,3.285,5.4,8.352,8.352,0,0,0,3.732.745,20.244,20.244,0,0,0,2.634-.189C20.983,160.245,20.748,158.917,20.112,162.772Z" transform="translate(0.007 -108.572)" fill="#363435"/>
      <path id="Path_455" data-name="Path 455" d="M502.374,165.11a1.785,1.785,0,0,1,.869.218,1.621,1.621,0,0,1,.665.641,1.805,1.805,0,0,1,.237.88,1.771,1.771,0,0,1-.237.878,1.631,1.631,0,0,1-.634.67,1.761,1.761,0,0,1-.873.237,1.784,1.784,0,0,1-.876-.222,1.639,1.639,0,0,1-.658-.644,1.8,1.8,0,0,1-.237-.873,1.777,1.777,0,0,1,.237-.885,1.614,1.614,0,0,1,.651-.658,1.794,1.794,0,0,1,.862-.237m0,.22a1.567,1.567,0,0,0-.753.206,1.406,1.406,0,0,0-.57.575,1.543,1.543,0,0,0,.012,1.536,1.42,1.42,0,0,0,.577.563,1.529,1.529,0,0,0,1.529-.017,1.432,1.432,0,0,0,.563-.575,1.541,1.541,0,0,0,.194-.767,1.564,1.564,0,0,0-.213-.769,1.421,1.421,0,0,0-.58-.563,1.572,1.572,0,0,0-.764-.2Zm-.947.525h.9a1.276,1.276,0,0,1,.632.1.473.473,0,0,1,.256.431.506.506,0,0,1-.107.315.636.636,0,0,1-.331.2l.346.615a.646.646,0,0,0,.156.2.2.2,0,0,0,.106.045v.085h-.6l-.518-.906h-.116v.492a.44.44,0,0,0,.059.27.386.386,0,0,0,.237.064v.085H501.4v-.083a.255.255,0,0,0,.2-.054.474.474,0,0,0,.066-.275v-1.172a.474.474,0,0,0-.047-.258.237.237,0,0,0-.177-.069Zm.722.961a1.142,1.142,0,0,0,.142,0,.367.367,0,0,0,.275-.123.455.455,0,0,0,.111-.327.419.419,0,0,0-.111-.315.443.443,0,0,0-.331-.1h-.1Z" transform="translate(-382.145 -126.03)" fill="#363435"/>
      <path id="Path_456" data-name="Path 456" d="M123.711,32.322c-.237-.1-.454-.206-.689-.3q-.237-.1-.473-.178l.592.258c.187.078.374.156.566.222m-31.988-1.74c.052.137.1.275.149.414a.409.409,0,0,1-.454.528,3.164,3.164,0,0,1-2.582-1.467A6.648,6.648,0,0,1,88.474,29c-.173-.679-.473-2.426.175-3.058a.4.4,0,0,1-.054-.111,1.766,1.766,0,0,1,.083-1.394c.672-1.245,2.906-1.38,4.123-1.377a16.264,16.264,0,0,1,2.4.185,6.2,6.2,0,0,1,1.441.357h.277l.32-.035.554-.116L97.5,22.9a2.076,2.076,0,0,1-1.221-1.032,5.846,5.846,0,0,1-.293-2.426,12.864,12.864,0,0,0-.021-1.318,9.524,9.524,0,0,0-2.587-5.443,2.787,2.787,0,0,0-.286-.237c-.166-.128-.331-.256-.495-.386a5.141,5.141,0,0,1-.608-.547,1.383,1.383,0,0,1-.362-1.548,1.5,1.5,0,0,1,.615-.667,1.3,1.3,0,0,1-.177-.57,1.657,1.657,0,0,1,.237-.906,1.134,1.134,0,0,1,.674-.551,3,3,0,0,1,2.246.2,1.848,1.848,0,0,1,.265-.523,1.145,1.145,0,0,1,.71-.473,2.785,2.785,0,0,1,2.336.859,1.5,1.5,0,0,1,.8-1.183,1.155,1.155,0,0,1,.253-.092,1.811,1.811,0,0,1,1.99,1.138,5.444,5.444,0,0,1,.521,1.358c.021.092.04.189.054.286l.021-.012a.963.963,0,0,1,.821-.064c.873.348,1.025,1.264,1,2.116a.9.9,0,0,1,.331.057,1.157,1.157,0,0,1,.727.731,1.657,1.657,0,0,1,.062.689,1.257,1.257,0,0,1,.514.017.793.793,0,0,1,.62.755v.237a18.122,18.122,0,0,0,2.776-6.814,6.813,6.813,0,0,0,.071-.693c.028-.362.052-.724.085-1.089.1-1.131.263-2.885,1.571-3.3a1.635,1.635,0,0,1,1.349.178,2.347,2.347,0,0,1,.554-.994,2.255,2.255,0,0,1,1.172-.632,1.228,1.228,0,0,1,1.115.289,4.823,4.823,0,0,1,1.42,3.349,2.191,2.191,0,0,1,.947-.279,1.224,1.224,0,0,1,1.022.412c.923,1.044.906,2.916.62,4.307a1.9,1.9,0,0,1,2.187-.4,1.217,1.217,0,0,1,.282.222c.925.982.611,2.435.128,3.576a10.978,10.978,0,0,1-1.183,2.109,7.752,7.752,0,0,1-.6.71,1.813,1.813,0,0,1,.331.151,1.212,1.212,0,0,1,.608.909,2.622,2.622,0,0,1-.095,1.209,5.259,5.259,0,0,1-1.822,2.331,1.224,1.224,0,0,1,.336.651,2.1,2.1,0,0,1-.265,1.489,2.29,2.29,0,0,1-.267.3c-.142.149-.289.3-.433.443l-.293.289a1.754,1.754,0,0,1,.542.847,1.276,1.276,0,0,1-.331,1.269,3.51,3.51,0,0,1-.71.551,1.706,1.706,0,0,1,.379.689,1.278,1.278,0,0,1-.431,1.337.4.4,0,0,1-.2.09,2.617,2.617,0,0,0-.386.085l1.018.218a24,24,0,0,1,3.744,1.072l10.887,2.57c1.825.267,3.673.473,5.519.592.743.045,1.491.073,2.237.066a14.122,14.122,0,0,0,1.7-.1.388.388,0,0,1,.433.3.407.407,0,0,1-.256.473,22.72,22.72,0,0,1-6.3,1.453c.864.237,1.735.473,2.6.667.682.156,1.368.3,2.059.412a14.238,14.238,0,0,0,1.581.18.386.386,0,0,1,.372.369.409.409,0,0,1-.329.421,21.146,21.146,0,0,1-7.259.237,35.709,35.709,0,0,1-8.22-2.478.412.412,0,0,1-.237.163,9.723,9.723,0,0,1-3.945-.076,38.746,38.746,0,0,1-3.844-.947,8.028,8.028,0,0,0-.85-.194,14.243,14.243,0,0,0-3.448-.1c-1.257.09-2.509.256-3.763.372a26.074,26.074,0,0,1-7.531-.414c-1.363-.267-2.705-.62-4.023-1.011-.523-.154-1.093-.256-1.631-.369-.355-.076-.71-.151-1.06-.237a4.856,4.856,0,0,1-.857-.286.426.426,0,0,1-.106-.073.435.435,0,0,1-.133.078,6.449,6.449,0,0,1-3.365.27Z" transform="translate(-67.363 0.012)" fill="#fff" fill-rule="evenodd"/>
      <path id="Path_457" data-name="Path 457" d="M91.941,28.932c.265,1.214-.151,1.167,1.032,2.556a6.285,6.285,0,0,0,3.287-.222c-.514-.265-.066-.8-.509-1.306s-1,.04-1.657-.2-.426-.585-.845-1.157c-.334-.454-.585-.258-.909-.516-.3-.071-.495.5-.4.843M90.5,31.206c.381.866,1.467,1.105,2.291,1.243-.142-.426-.289-.767-.4-1.084a4.226,4.226,0,0,1-.568-3.3l-1.257-.625c-.878-.161-.746,2.232-.069,3.765Zm36.483,2.743c5.917,2.445,10.177,3.829,16.247,2.627a42.086,42.086,0,0,1-8.844-2.014,21.09,21.09,0,0,0,8.773-1.484,41.489,41.489,0,0,1-9.583-.561l-10.932-2.573a23.388,23.388,0,0,0-3.709-1.063l-1.287-.284h-.045c-.095-.3-.279-.648.743-.8a.871.871,0,0,0,.3-.928,1.657,1.657,0,0,0-.724-.9,3.24,3.24,0,0,0,.35-.149,3.076,3.076,0,0,0,.816-.585.861.861,0,0,0,.237-.871,1.477,1.477,0,0,0-.8-.914c.175-.121,1.254-1.214,1.3-1.287a1.688,1.688,0,0,0,.2-1.212.817.817,0,0,0-.473-.615c-.054-.026-.109-.047-.166-.069a.785.785,0,0,0,.076-.057c1.053-.814,2.381-1.976,2.144-3.46a.819.819,0,0,0-.426-.608,1.245,1.245,0,0,0-.3-.135h-.021c-.059-.024-.114-.045-.173-.064l-.035-.019a.809.809,0,0,0-.331-.1,9.31,9.31,0,0,0,1-1.129,10.611,10.611,0,0,0,1.136-2.028c.417-.98.748-2.3-.054-3.15a.81.81,0,0,0-.194-.151c-.727-.419-1.474.1-2.009.6a11.034,11.034,0,0,0-.809.85,8.932,8.932,0,0,0,.362-1.1c.329-1.278.473-3.313-.445-4.333a.831.831,0,0,0-.71-.284,1.777,1.777,0,0,0-1.347.762,4.834,4.834,0,0,0-1.3-3.931.838.838,0,0,0-.76-.2,1.83,1.83,0,0,0-.947.511,2.414,2.414,0,0,0-.575,1.451c-.028-.031-.057-.062-.088-.09a1.413,1.413,0,0,0-1.42-.433c-1.079.341-1.2,2.012-1.285,2.942-.033.362-.057.724-.085,1.084-.019.237-.035.5-.078.734a18.035,18.035,0,0,1-7.573,11.715c-.992.656.13,3.02-.9,3.628.821-.963-.4-2.84.57-3.64,2.109-1.735,3.825-3.1,4.161-4.281.031-.078.059-.159.083-.237a1.893,1.893,0,0,0,.078-.632.4.4,0,0,0-.322-.4,1.1,1.1,0,0,0-.8.156.473.473,0,0,0-.017-.222.71.71,0,0,1,0-.2,1.657,1.657,0,0,0-.031-.693.774.774,0,0,0-.492-.492.589.589,0,0,0-.514.071q-.054.033-.106.071a.541.541,0,0,0,0-.059c.066-.755.128-1.917-.729-2.258a.563.563,0,0,0-.488.045,1,1,0,0,0-.2.123h-.014l-.109.073-.024.014a.727.727,0,0,0-.194.151,5.208,5.208,0,0,0-.1-.9,5.159,5.159,0,0,0-.473-1.257,1.452,1.452,0,0,0-1.56-.947.679.679,0,0,0-.159.059,1.317,1.317,0,0,0-.6,1.295,6.47,6.47,0,0,0,.052.71,4.151,4.151,0,0,0-.374-.542,2.665,2.665,0,0,0-2.31-1.1.722.722,0,0,0-.452.3,1.183,1.183,0,0,0-.237.977,2.78,2.78,0,0,0-2.494-.5.738.738,0,0,0-.435.355,1.249,1.249,0,0,0-.175.686,1.1,1.1,0,0,0,.462.774l-.083.021a1.231,1.231,0,0,0-.84.641c-.317.71.445,1.29.861,1.624.161.13.327.256.49.383a3.257,3.257,0,0,1,.322.272,9.9,9.9,0,0,1,2.7,5.661c.059.438,0,.911.026,1.363.035,1.306-.2,2.665,1.394,3.145l.62,1.16-1.108.237-.364.04h-.4c-.947-.556-8.52-1.4-7.554,1.706a12.78,12.78,0,0,0,1.614.611c.975-1.373,3.616-2.632,4.151.284.211,1.515.338.852,1.183,1.316.237.947-.3,1.4-.414,2.042.71.338,2.6.613,3.491.876a29.3,29.3,0,0,0,11.415,1.42c2.925-.272,5.68-.783,8.205-.069,1.709.473,5.5,1.586,7.573,1.015a10.911,10.911,0,0,1-4.629-1.351c-4.812-2.13-6.43-1.039-9.538-2.435a27.231,27.231,0,0,1-3.259-1.811h0l-.024-.014h-.012l-.021-.014h-.012l-.043-.031h0l-.052-.036h0l-.05-.036h0l-.05-.035h0l-.031-.021h0l-.04-.028h-.012l-.021-.014h0l-.019-.014h0l-.036-.026h0l-.045-.033c1.484-.473,3.467-1.1,5-.433l.033.017h.026l.024.012h.125l.031.017h0l.031.017h.036l.038.019h0l.076.043h0l.073.04h.014l.192.107h0l.04.021h.021c.106.059.215.118.324.173l.021.012a2.527,2.527,0,0,0,1.392.364,1.42,1.42,0,0,0,.447-.073c1.119.412,2.163.89,2.222,1.541-1,.6-2.367.355-3.4.521,1.624.322,6.092,1.247,7.493,1.678a27.413,27.413,0,0,0,3.112,1.252Z" transform="translate(-68.66 -1.305)" fill="#231f20" fill-rule="evenodd"/>
      <path id="Path_458" data-name="Path 458" d="M112.857,45.049c.608-.433.724-3.649.646-4.5a9.5,9.5,0,0,0-.966-3.351c-.473-.914-2.076-3.422-3.986-2.84-.606,1.108,1.7.85,3.522,4.712a10.759,10.759,0,0,1,.843,2.8,8.809,8.809,0,0,1-.059,3.186" transform="translate(-82.784 -26.159)" fill="#363435" fill-rule="evenodd"/>
      <path id="Path_459" data-name="Path 459" d="M123.751,40.034c-.073.916-.329,1.957-.355,2.39,1.441-2.84,1.749-8.047.05-10.115-.36-.435-1.164-1.1-1.846-.959-.293.412-.021.741.135,1.011.189.331.407.554.582.866a9.978,9.978,0,0,1,1.309,3.891,17.662,17.662,0,0,1,.125,2.916" transform="translate(-92.72 -23.914)" fill="#363435" fill-rule="evenodd"/>
      <path id="Path_460" data-name="Path 460" d="M110.618,51.463c.722-1.841.185-4.113-.291-5.574-.265-.819-1.829-4.229-3.787-3.7-1.2.324.774,1.474,1.25,1.955a10.34,10.34,0,0,1,2.812,5.9,13.36,13.36,0,0,1,.028,1.42" transform="translate(-81.033 -32.16)" fill="#363435" fill-rule="evenodd"/>
      <path id="Path_461" data-name="Path 461" d="M134.968,46.8c-.367.963-.885,1.922-1.278,2.84a.549.549,0,0,0,.135-.128l1.586-2.253a24.851,24.851,0,0,0,1.666-2.745l.111-.237c.992-2.014.282-4.641-.525-2.568-.594,1.482-1.051,3.441-1.683,5.1" transform="translate(-102.048 -31.256)" fill="#363435" fill-rule="evenodd"/>
      <path id="Path_462" data-name="Path 462" d="M144.987,56.249c-.346-.085-.925.528-1.245.824a13.524,13.524,0,0,0-1.167,1.183l-2.485,2.7c1.484-.786,4.97-3.136,4.9-4.712" transform="translate(-106.933 -42.927)" fill="#363435" fill-rule="evenodd"/>
      <path id="Path_463" data-name="Path 463" d="M136.71,56.433a22.124,22.124,0,0,1,1.571-1.692c.514-.514,1.1-1.183,1.583-1.616l.4-.473c.447-.54,1.361-2.255.533-2.561a3.92,3.92,0,0,0-.947,1.243l-.182.3c-.381.585-3.022,4.693-3.044,4.97Z" transform="translate(-104.285 -38.232)" fill="#363435" fill-rule="evenodd"/>
      <path id="Path_464" data-name="Path 464" d="M132.11,38.622c-.156.634-.641,1.931-.71,2.414a18.493,18.493,0,0,0,2.6-6.968,7.651,7.651,0,0,0,.047-2.646c-.073-.317-.6-2.095-1.477-1.893-.492.253.059,2.31.111,3.268a20.434,20.434,0,0,1-.575,5.824" transform="translate(-100.3 -22.525)" fill="#363435" fill-rule="evenodd"/>
      <path id="Path_465" data-name="Path 465" d="M157.12,22.94c.985.36,4.923-3.018,5.888-4.059a19.237,19.237,0,0,0,3.273-4.97c.736-1.633,2.513-6.556.35-8.5-1.784.391.286,3.238-2.949,9.926a21.808,21.808,0,0,1-2.705,4.2c-.528.646-2.984,3.24-3.858,3.408" transform="translate(-119.933 -4.127)" fill="#363435" fill-rule="evenodd"/>
      <path id="Path_466" data-name="Path 466" d="M164.111,32.058c-1.15.906-2.6,1.7-3.131,2.13,4.5-1.153,10.977-6.452,12.146-11.008.237-.963.421-2.776-.26-3.55-.71.052-.9.779-1.108,1.287-.253.62-.355,1.157-.592,1.737a20.527,20.527,0,0,1-3.661,6.03,30.92,30.92,0,0,1-3.394,3.361" transform="translate(-122.879 -14.981)" fill="#363435" fill-rule="evenodd"/>
      <path id="Path_467" data-name="Path 467" d="M153.47,27.245c2.757-1.041,5.065-4.26,6.452-6.5.776-1.257,3.664-7.1,1.524-9.192-1.3-1.269-1.183,2.663-1.385,3.832a22.039,22.039,0,0,1-4.92,10.269,22.98,22.98,0,0,1-1.671,1.588" transform="translate(-117.147 -8.629)" fill="#363435" fill-rule="evenodd"/>
      <path id="Path_468" data-name="Path 468" d="M169.1,69.006c-1.42.556-2.975.906-4.381,1.385a.561.561,0,0,0,.256.045l3.907-.312a29.712,29.712,0,0,0,4.565-.781l.372-.109c1.082-.293,4.26-1.893,4-3.614-.189-.1-.028-.017-.237-.1-.63-.18-7.138,3.138-8.48,3.5" transform="translate(-125.734 -50.003)" fill="#363435" fill-rule="evenodd"/>
      <path id="Path_469" data-name="Path 469" d="M180.651,94.436c-.163-.561-1.34-.675-1.936-.783a15.019,15.019,0,0,0-2.319-.275l-5-.208a4.838,4.838,0,0,0,1.167.324c2.031.71,6.537,2.494,8.085.947" transform="translate(-130.833 -71.117)" fill="#363435" fill-rule="evenodd"/>
      <path id="Path_470" data-name="Path 470" d="M167.31,84.773a25.672,25.672,0,0,1,3.223.272c1.557.208,7.98,1.06,7.479-1.683a4.534,4.534,0,0,0-2.218.066l-.495.078c-.989.123-7.924,1.044-8.26,1.311Z" transform="translate(-127.505 -63.536)" fill="#363435" fill-rule="evenodd"/>
      <path id="Path_471" data-name="Path 471" d="M173.17,97.73a23.807,23.807,0,0,1,2.84,1.46c.961.53,3.526,2.7,5.33,1.219-.237-.861-6.759-2.539-8.16-2.679" transform="translate(-132.184 -74.597)" fill="#363435" fill-rule="evenodd"/>
      <path id="Path_472" data-name="Path 472" d="M165.762,46.4c-.878.473-2.8,1.247-3.422,1.7A25.211,25.211,0,0,0,172.673,44a13.106,13.106,0,0,0,3.2-2.84c.324-.445,2.047-3.107,1.141-4.071-.679-.391-2.722,2.6-3.827,3.73a33.153,33.153,0,0,1-7.427,5.578" transform="translate(-123.917 -28.281)" fill="#363435" fill-rule="evenodd"/>
      <path id="Path_473" data-name="Path 473" d="M125.058,111.879c1.368.973-.3,1.051-.433,1.893-.116.753,1.1.857,1.893,1.183.168.069,2.4.677,2.573.71a30.727,30.727,0,0,0,3.55.648,13.028,13.028,0,0,0,2.27.249c.925-.04,3.486.088,4.059-.521.3-.319-1.086-.192-1.669-.871-4.684-5.465-9.23.509-10.816-3.881-.249-.691-1.908.263-1.42.611" transform="translate(-95.123 -84.761)" fill="#363435" fill-rule="evenodd"/>
      <path id="Path_474" data-name="Path 474" d="M104.48,106.7l.892-.646a.842.842,0,0,1,.267.594,1.115,1.115,0,0,1-1.138,1.02,1.056,1.056,0,0,1-1.183-.918,1.1,1.1,0,0,1,1.138-1.02Z" transform="translate(-78.864 -80.704)" fill="#363435" fill-rule="evenodd"/>
      <path id="Path_475" data-name="Path 475" d="M106.727,108.168a.421.421,0,0,1,.473.369.443.443,0,0,1-.457.409.419.419,0,0,1-.473-.369.445.445,0,0,1,.457-.409" transform="translate(-81.117 -82.563)" fill="#231f20" fill-rule="evenodd"/>
      <path id="Path_476" data-name="Path 476" d="M248.85,130.419c.566.095,1,.263,1.657.412,3.574.814,6.047,1.285,9.661.757-3.817,0-10.667-2.367-11.31-1.169" transform="translate(-189.953 -99.292)" fill="#363435" fill-rule="evenodd"/>
      <path id="Path_477" data-name="Path 477" d="M229,128.49c.566.166,5.917,2.367,6.556,2.6,3.583,1.273,6.063,2.059,9.687,2-3.827-.5-15.6-5.713-16.243-4.608" transform="translate(-174.801 -97.957)" fill="#363435" fill-rule="evenodd"/>
      <path id="Path_478" data-name="Path 478" d="M219.22,122.885a8.714,8.714,0,0,0,.947-.035,8.692,8.692,0,0,1,5.55,1.441c-2.2-.866-6.08-.062-6.489-1.406" transform="translate(-167.336 -93.772)" fill="#363435" fill-rule="evenodd"/>
    </g>
  </g>
</svg>
