<svg xmlns="http://www.w3.org/2000/svg" width="122" height="71.934" viewBox="0 0 122 71.934">
  <g id="Layer_2" data-name="Layer 2" transform="translate(-0.004 -0.036)">
    <g id="Layer_1" data-name="Layer 1" transform="translate(0.004 0.036)">
      <path id="Path_287" data-name="Path 287" d="M363.824,33.986l-.2-.009-.2.01a2.071,2.071,0,0,1-.53-.521,3.035,3.035,0,0,0-.006-.41c.148-.174.294-.347.438-.523a4.049,4.049,0,0,0,.069-.47c.229-.634-.063-1.386.439-1.957.3-.48.468-1.051.793-1.477,1.354-1.8,1.6-3.331-.786-4.43a3.807,3.807,0,0,0-1.928-.543c-1.051-.486-2.326-.076-3.3-1.174-.8-.9-1.238-1.626-.7-2.745.628-.861,1.212-1.755,1.9-2.564a1.565,1.565,0,0,0,.246-2.013,13.125,13.125,0,0,1-1.439-4.661,10.819,10.819,0,0,1,.394-5.336,1.941,1.941,0,0,1,2.641-1.477,18.611,18.611,0,0,1,5.366,2.374c.406.274.808.556,1.223.82a1.011,1.011,0,0,0,1.346-.081c.18-.166.362-.332.525-.516,2.37-2.632,5.481-4.1,8.628-5.5a7.348,7.348,0,0,1,3.322-.738,1.9,1.9,0,0,1,1.767,1.1,12.473,12.473,0,0,1,1.131,4.99,25.6,25.6,0,0,1-.874,8.747c-.332,1.2-.284,1.212.914,1.886s2.432,1.354,3.594,2.113a7.2,7.2,0,0,1,2.359,2.461,1.584,1.584,0,0,1-.24,2.222,9.373,9.373,0,0,1-1.515,1.231c-2.484,1.653-5.071,3.018-8.2,2.845a1.247,1.247,0,0,0-1.421,1.061,8.288,8.288,0,0,1-1.17,2.692,1.512,1.512,0,0,1-2.292.624,13.672,13.672,0,0,1-5.436-4.472c-.329-.471-.639-.956-1-1.4a.51.51,0,0,0-.838.018,3.953,3.953,0,0,0-1.08,1.9c-.352.484-.417,1.151-.966,1.51v.006C366.025,31.186,366.032,33.334,363.824,33.986Z" transform="translate(-313.662 -0.036)" fill="#363435"/>
      <path id="Path_288" data-name="Path 288" d="M897.384,359.382c0,1.723.031,3.438-.012,5.155-.023.96-.436,1.272-1.4,1.3a2.435,2.435,0,0,1-2-.738c-.5-.538-1.039-1.047-1.512-1.608-1.317-1.559-2.6-3.144-3.921-4.7a.879.879,0,0,0-.615-.267c-.3.007-.337.317-.341.554-.02,1.392-.013,2.782-.034,4.173a15.236,15.236,0,0,1-.1,1.709.887.887,0,0,1-.811.806,7.65,7.65,0,0,1-1.463.018.947.947,0,0,1-.96-.935q-.033-5.519.015-11.039a1.167,1.167,0,0,1,1.107-1.126,2.347,2.347,0,0,1,2.259.635q1.181,1.246,2.327,2.523a11.152,11.152,0,0,0,.914,1.147c.95.818,1.483,2.145,2.891,2.411.546-1.165.148-2.4.253-3.6.043-.492-.006-.984.028-1.477.086-1.217.538-1.675,1.629-1.693,1.126-.018,1.65.433,1.723,1.589.055.815.03,1.635.033,2.454v2.7Z" transform="translate(-775.396 -309.241)" fill="#363435"/>
      <path id="Path_289" data-name="Path 289" d="M671.54,352.842a23.425,23.425,0,0,0-6.58-.385c-.965.023-1.3.393-1.32,1.4-.042,1.8-.012,3.6-.012,5.4h.02c0,1.723-.032,3.437.013,5.152.022.829.389,1.178,1.231,1.211,1.388.054,2.779.037,4.169.041a9.693,9.693,0,0,0,4.664-1.339,3.779,3.779,0,0,0,1.477-1.264C678.167,358.289,675.382,353.861,671.54,352.842Zm-3.751,10.371a1.061,1.061,0,0,1-.9-1.031c-.052-1.052-.016-2.109-.016-3.165h-.028c0-.893-.055-1.792.015-2.679a1.237,1.237,0,0,1,1.5-1.231,18.083,18.083,0,0,1,2.83.672,2.868,2.868,0,0,1,1.835,2.668C673.472,362.042,671.061,363.738,667.789,363.213Z" transform="translate(-581.958 -309.047)" fill="#363435"/>
      <path id="Path_290" data-name="Path 290" d="M567.427,364.266c-.808-1.693-1.66-3.365-2.515-5.087.153-.544.645-.882,1.007-1.314a2.68,2.68,0,0,0,.6-1.82,3.6,3.6,0,0,0-2.382-3.385c-2.215-.85-4.51-.577-6.789-.426a1.116,1.116,0,0,0-.991.956,4.531,4.531,0,0,0-.106.972q-.009,4.784,0,9.57a3.629,3.629,0,0,0,.036.492c.1.716.4,1.026,1.091,1.1a5.773,5.773,0,0,0,.978.02c.844-.057,1.208-.369,1.266-1.186.07-.977.025-1.969.123-2.939a1.049,1.049,0,0,1,1.794-.738,4.708,4.708,0,0,1,1.334,1.731,13.627,13.627,0,0,1,.66,1.584,2.118,2.118,0,0,0,2.428,1.582c.246-.028.492,0,.738-.015C567.509,365.314,567.765,364.974,567.427,364.266Zm-5.144-6.748a7.209,7.209,0,0,1-1.009.142c-1.126-.06-1.544-.644-1.383-1.681a1.212,1.212,0,0,1,1.544-1.107,6.186,6.186,0,0,1,.918.3,1.114,1.114,0,0,1,.826,1.066A1.277,1.277,0,0,1,562.284,357.518Z" transform="translate(-487.798 -308.75)" fill="#363435"/>
      <path id="Path_291" data-name="Path 291" d="M321.317,360.97c-.009,2.615-.3,3.1-2.9,3.713a9.431,9.431,0,0,1-6.7-.525,6.053,6.053,0,0,1-3.685-5.855,6.3,6.3,0,0,1,4.094-5.9,10.427,10.427,0,0,1,7.685-.086,1.963,1.963,0,0,1,.822,2.687.527.527,0,0,1-.409.2,10.945,10.945,0,0,1-1.43-.316,9.92,9.92,0,0,0-3.9-.2,3.724,3.724,0,0,0-.717,7.274,4.772,4.772,0,0,0,2.185.167c.87-.164,1.354-.422,1.325-.845-.052-.644-.615-.658-1.052-.852-.644-.285-.708-.842-.609-1.447a1.019,1.019,0,0,1,1.009-.895c.406-.041.817-.044,1.231-.05C321.261,357.995,321.323,358.055,321.317,360.97Z" transform="translate(-270.127 -308.363)" fill="#363435"/>
      <path id="Path_292" data-name="Path 292" d="M443.073,364.4c-1.554-3.519-3.18-7.008-4.664-10.556-.5-1.192-1.212-1.672-2.215-1.555-1.675.01-2.222-.069-2.936,1.824-.984,2.6-2.114,5.146-3.171,7.72-.342.832-.658,1.676-.966,2.521a.738.738,0,0,0,.185.893c.861.651,2.79.343,3.193-.672a2.3,2.3,0,0,1,2.7-1.531,16.077,16.077,0,0,0,1.969,0c1.068-.05,1.937.149,2.309,1.34a1.7,1.7,0,0,0,1.94,1.153c.326-.016.655,0,.984-.015C443.178,365.487,443.407,365.141,443.073,364.4Zm-6.522-3.618h-.5c-.065-.006-.39-.02-.708-.069a.773.773,0,0,1-.655-1.071,7.238,7.238,0,0,1,1.322-2.788c1.179.458,1,1.712,1.458,2.584C437.95,360.34,437.6,360.743,436.551,360.781Z" transform="translate(-376.256 -308.928)" fill="#363435"/>
      <path id="Path_293" data-name="Path 293" d="M784.1,359.1c0-1.637-.042-3.276.014-4.91.041-1.206.453-1.633,1.655-1.662,2.126-.054,4.254-.025,6.382-.009a2.524,2.524,0,0,1,.949.2,1.125,1.125,0,0,1,.668,1.195.93.93,0,0,1-.918.957c-.738.061-1.477.042-2.206.065-.653.021-1.312.009-1.958.092a1.389,1.389,0,0,0,.094,2.727c.647.074,1.306.053,1.959.078.572.021,1.148.01,1.714.08a1.05,1.05,0,0,1,.895,1.247.976.976,0,0,1-.85,1.031,12.117,12.117,0,0,1-1.466.092c-.738.02-1.477-.009-2.207.039-.847.054-1.222.448-1.245,1.2-.031.916.356,1.532,1.137,1.621.808.092,1.632.06,2.448.1a15.789,15.789,0,0,1,1.949.138c.577.1.738.6.738,1.12a1.015,1.015,0,0,1-.749,1.115,2.9,2.9,0,0,1-.725.1c-2.128.01-4.255.043-6.382,0-1.466-.032-1.846-.432-1.891-1.955-.049-1.553-.011-3.11-.011-4.665Z" transform="translate(-687.593 -309.125)" fill="#363435"/>
      <path id="Path_294" data-name="Path 294" d="M54.181,353.527a6.075,6.075,0,0,1-.266.938q-2.252,4.9-4.527,9.777a4.537,4.537,0,0,1-.208.443,1.192,1.192,0,0,1-2.034.1,17.775,17.775,0,0,1-1.283-2.36c-1.231-2.576-2.44-5.168-3.658-7.752-.07-.148-.149-.29-.217-.439-.528-1.149-.545-1.766-.058-1.958,1.052-.413,2.528-.246,2.927.477.71,1.285,1.295,2.637,1.941,3.954.34.692.33,1.846,1.33,1.79.754-.039.9-1.068,1.189-1.717a31.684,31.684,0,0,1,1.953-4.216c.719-.078,1.436-.223,2.153-.233C54.205,352.324,54.684,352.652,54.181,353.527Z" transform="translate(-36.461 -308.74)" fill="#363435"/>
      <path id="Path_295" data-name="Path 295" d="M123.251,353.462c-.13-.615-.474-1-1.133-.812a2.171,2.171,0,0,1-1.778-.148,1.6,1.6,0,0,1,1.107-.448c1.634-.01,3.267,0,4.9-.009a2.525,2.525,0,0,1,2.232,1.26c.454.677.964,1.318,1.477,1.949.413.506.757.486,1.171-.062.492-.65.916-1.354,1.431-1.986a3.248,3.248,0,0,1,3.749-1.011.545.545,0,0,1,.3.806,9.884,9.884,0,0,1-.9,1.445c-.912,1.254-1.8,2.531-2.791,3.72a3.823,3.823,0,0,0-.885,2.707c.025,1.062.016,2.126-.042,3.186-.044.821-.429,1.142-1.25,1.2-1.518.1-2.03-.361-2.126-1.953-.03-.492-.02-.984-.021-1.47-.011-2.918-.012-2.915-1.646-5.152-.817-1.12-1.619-2.252-2.438-3.372C124.236,352.8,124.173,352.816,123.251,353.462Z" transform="translate(-105.532 -308.675)" fill="#363435"/>
      <path id="Path_296" data-name="Path 296" d="M406.629,509.739c-.471-3.047-2.39-4.868-5.524-4.564a4.691,4.691,0,0,0-4.2,4.093A5.894,5.894,0,0,0,398.4,514c3.021,1.107,3.021,1.107,5.4.565a1.846,1.846,0,0,1,.432-.074c.528-.107.746-.562,1.042-.928a7.026,7.026,0,0,0,1.185-2.39A4.643,4.643,0,0,0,406.629,509.739Zm-5.16,3.185a2.96,2.96,0,0,1-2.555-3.112,2.854,2.854,0,0,1,2.972-2.653c1.586.031,2.432.984,2.433,2.743A2.874,2.874,0,0,1,401.469,512.924Z" transform="translate(-348.021 -442.987)" fill="#363435"/>
      <path id="Path_297" data-name="Path 297" d="M.014,358.862c0-1.639-.03-3.279.01-4.922.025-1.016.4-1.376,1.295-1.434,1.245-.08,1.87.3,2.037,1.26a2.831,2.831,0,0,1,.05.492q0,5.039-.012,10.081c0,.492-.09,1.03-.64,1.217a2.483,2.483,0,0,1-2.338-.167,1.251,1.251,0,0,1-.4-1.117C.009,362.469.014,360.666.014,358.862Z" transform="translate(-0.004 -309.125)" fill="#363435"/>
      <path id="Path_298" data-name="Path 298" d="M315.975,511.044c0,1.066.014,2.13-.009,3.2a2.691,2.691,0,0,1-.183.952.783.783,0,0,1-.784.475c-.361,0-.72-.149-.784-.464-.143-.715-.159-1.456-.246-2.183-.1-.824-.45-1.119-1.3-1.146-1-.031-1.423.277-1.525,1.171-.074.648-.073,1.307-.169,1.95a.793.793,0,0,1-.888.666.847.847,0,0,1-.888-.692,2.974,2.974,0,0,1-.106-.726q-.014-3.2,0-6.39a2.216,2.216,0,0,1,.133-.719.867.867,0,0,1,.962-.584.741.741,0,0,1,.744.527c.111.473.123.968.191,1.452a1.521,1.521,0,0,0,2.349,1.119,1.04,1.04,0,0,0,.479-.812c.071-.567.085-1.146.212-1.7a.8.8,0,0,1,.946-.578.786.786,0,0,1,.725.561,3.6,3.6,0,0,1,.137.966C315.986,509.076,315.975,510.06,315.975,511.044Z" transform="translate(-271.052 -444.224)" fill="#363435"/>
      <path id="Path_299" data-name="Path 299" d="M573.091,510.242c0-1.061-.037-2.124.011-3.183.039-.879.359-1.231,1.172-1.269,1.057-.05,2.12-.037,3.178.007a.891.891,0,0,1,.888.962c-.028.6-.41.849-.944.92-.565.075-1.141.09-1.693.213a.71.71,0,0,0-.407.53.676.676,0,0,0,.358.555c.633.137,1.288.156,1.928.266a.861.861,0,0,1,.763.823.911.911,0,0,1-.847,1c-.4.063-.816.043-1.219.1-.818.111-1.144.418-1.115,1.009s.278.785,1.195.944c.4.069.808.1,1.206.176a1.069,1.069,0,0,1,.413.246.8.8,0,0,1,.289.869.913.913,0,0,1-.448.529,2.576,2.576,0,0,1-.956.151c-4.025.015-3.815.292-3.8-3.623v-1.231Z" transform="translate(-502.54 -443.527)" fill="#363435"/>
      <path id="Path_300" data-name="Path 300" d="M506.767,506.879a.759.759,0,0,1-.4.776c-.9.453-.908,1.259-.915,2.092-.012,1.463-.011,2.927-.079,4.389a1.013,1.013,0,0,1-1.2.938.976.976,0,0,1-1.05-.817,7.65,7.65,0,0,1-.1-1.211q-.024-1.22,0-2.44a3.414,3.414,0,0,0-1.064-3.067c-.754-.625-.287-1.66.7-1.712a28.863,28.863,0,0,1,3.164.044A1.052,1.052,0,0,1,506.767,506.879Z" transform="translate(-439.866 -443.568)" fill="#363435"/>
      <path id="Path_301" data-name="Path 301" d="M644.112,509.763c0-1.063-.031-2.128.016-3.188a2.807,2.807,0,0,1,.345-1.146,1,1,0,0,1,1.059-.454.852.852,0,0,1,.85.738,10.351,10.351,0,0,1,.107,1.462c.017,1.146.025,2.291.011,3.436-.012.941.29,1.587,1.343,1.676a1.591,1.591,0,0,1,.677.246.819.819,0,0,1,.336.861.737.737,0,0,1-.581.7,13.212,13.212,0,0,1-1.947.146c-2.04-.007-2.189-.167-2.235-2.26-.015-.738,0-1.477,0-2.209Z" transform="translate(-564.83 -442.834)" fill="#363435"/>
    </g>
  </g>
</svg>
