<svg id="Layer_2" data-name="Layer 2" xmlns="http://www.w3.org/2000/svg" width="73.259" height="101" viewBox="0 0 73.259 101">
  <g id="Layer_1" data-name="Layer 1">
    <path id="Path_369" data-name="Path 369" d="M91.505,217.777l.807-.147.009-.006.006-.009.009-.011.009-.011.006-.012.006-.014.006-.014.006-.017-.055-.649-.009,0-.006,0-.009,0-.006-.006-.011,0-.009,0-.014-.006-.011,0h-.011l-.009,0-.009,0-.011,0-.011.006-.009,0-.009.009-.009,0-.017.049-.017.046-.023.046-.026.046-.032.043-.04.034-.046.032-.055.02-.069,0-.069,0-.069.006-.063,0h-.063l-.06-.006-.057-.009-.055-.02.106-.4.04-.023.046-.02.052-.017.055-.017.052-.017.055-.02.052-.023.049-.029.095,0,.1.006.092.014.1.014.092.009h.092l.089-.014.086-.037.023-.063.009-.069,0-.072-.009-.075-.011-.075-.006-.075.006-.072.023-.075.006-.132.029-.126.043-.121.052-.118.046-.115.037-.115.02-.115-.006-.121-.012-.009-.009-.009-.006,0-.006-.009-.006-.006-.006-.009h-.078l-.256.463-.043-.009-.026-.023-.02-.029-.011-.04-.009-.043-.006-.046-.011-.043-.014-.04.055-.086.06-.086.066-.08.072-.08.078-.069.086-.063.095-.052.1-.04.02.086.037.08.052.083.063.078.063.075.072.069.069.063.063.055h.011l.011,0h.011l.011-.006.009,0,.009-.006.009-.006.006-.009.089-.184.075-.2.066-.207.063-.21.063-.207.078-.2.095-.2.115-.184.095-.121.095-.118.1-.115.095-.112.1-.109.1-.109.1-.112.1-.115.23-.2.227-.2.224-.187.224-.181.218-.175.224-.17.221-.167.224-.161.026-.034.026-.043.023-.049.017-.052.011-.052.006-.052-.009-.049-.026-.046-.21-.244-.193-.233-.178-.23-.158-.236-.144-.241-.129-.256-.109-.276-.092-.3-.037-.2v-.2l.023-.193.055-.184.072-.172.089-.167.1-.147.115-.138.129-.115.138-.1.141-.089.152-.078.155-.066L96.9,207l.172-.037.181-.026.3.043.276.083.256.118.239.144.221.167.216.175.21.187.21.181.279.376.3.371.31.368.322.365.325.362.328.365.325.362.316.362.376.333.356.342.336.351.316.359.3.374.287.379.276.394.267.4.08.141.06.155.049.164.049.161.057.155.078.135.109.109.149.069.158.046.158.052.155.052.149.057.144.063.138.069.132.069.126.075-.537.284-.043.638.032.032.034.029.037.02.046.014.043.009.049,0,.049,0,.055-.009.181.365.58-.282.009.02.006.026.009.029.006.029.006.029.006.029,0,.032v.026l-.037.066-.055.052-.063.04-.075.029-.08.017-.08.006-.08,0-.078-.017-.009.006-.009,0-.009.009-.006.006-.009.009-.006.006-.009.009-.009.006.006.04.017.034.02.029.034.023.034.02.04.017.043.014.043.011.129.006.135.009.129.009.132.006.126,0h.129l.124-.006.124-.017.063-.057.072-.052.075-.049.075-.052.063-.055.055-.066.032-.083.009-.1-.057-.178-.046-.178-.043-.17-.046-.161-.063-.141-.078-.126-.1-.1-.132-.08-.233-.227-.2-.244-.187-.25-.175-.256-.187-.253-.2-.247-.227-.239-.262-.224-.04-.049-.043-.052-.04-.049-.037-.049-.04-.049-.034-.046-.029-.046-.026-.046-.161-.207-.158-.21-.158-.207-.152-.2-.152-.2-.149-.2-.149-.2-.144-.2-.08-.193-.075-.2-.072-.2-.06-.2-.06-.2-.049-.2-.037-.2-.029-.2-.149-.353-.167-.348-.178-.348-.181-.351-.181-.351-.167-.356-.152-.365-.124-.376-.109-.328-.1-.336-.1-.336-.095-.339-.1-.339-.1-.339-.1-.333-.1-.33-.072-.3-.118-.262-.155-.236-.17-.224-.175-.221-.149-.238-.118-.259-.063-.3.075-.126.457.043.431.109.408.155.4.178.4.181.414.161.431.118.463.049.3.078.3.029.293,0,.293-.026.29-.034.287-.034.29-.02.29,0,.259-.566-.882.02.126-.141.152-.132.167-.129.172-.129.161-.135.147-.147.121-.164.083-.184v-.063l-.187.132-.184.135-.184.138-.193.126-.2.118-.218.092-.241.066-.267.029.078-.1.1-.089.112-.089.115-.089.109-.095.092-.109.063-.121.032-.147h-.009l-.006,0h-.012l-.009,0-.014,0-.009,0-.011-.006-.009,0,.247-.661h-.017l-.006-.006,0-.006v-.006l0,0,0,0-.006.006-.014.006-.624.4h-.017l-.012,0-.014,0-.006-.006-.009-.006,0,0,0-.006v-.006l.055-.129.069-.126.083-.118.095-.112.106-.1.115-.092.124-.08.135-.069,0,0,.006-.009,0-.006.006-.012.006-.009.006-.012.006-.011.009-.014v-.006l0-.006-.006-.009-.006-.009-.006-.006-.009-.006-.006-.006-.009-.006-.6.158.069-.138.078-.138.08-.144.08-.149.072-.152.066-.164.049-.172.032-.187H105.8l-.009-.006,0-.006v-.006l-.006,0,0,0-.011,0-.017.009-.44.46h-.023l-.006,0-.011,0-.009-.006-.009-.009-.009-.012.057-.19.083-.175.109-.164.124-.155.135-.149.135-.147.132-.147.126-.152.026-.078.037-.086.037-.089.04-.092.032-.095.026-.1.006-.1-.011-.1.011-.029.009-.032,0-.026,0-.029,0-.026,0-.026v-.02l.009-.023-.011-.014-.011-.011-.011-.009-.012,0H106.3l-.014,0-.017,0-.109.158-.121.161-.132.161-.138.155-.149.155-.155.144-.164.132-.17.118.034-.158.066-.149.092-.147.109-.141.124-.138.135-.141.138-.138.141-.141.175-.132.187-.126.193-.118.19-.124.187-.126.178-.141.167-.158.152-.184-.144-.02-.138.014-.132.037-.129.057-.126.072-.121.072-.118.072-.112.06-.029-.006-.02-.014-.017-.02-.011-.023-.011-.023-.014-.023-.02-.02-.029-.014-.7.511.109-.6-.006-.006-.006-.009-.014-.006-.011-.006-.014,0h-.014l-.011,0-.009.006-.132.158-.106.178-.1.187-.1.187-.121.17-.141.144-.178.1-.221.049.2-.578,0-.009v-.011l0-.009,0-.009-.006-.009-.006-.009-.006-.009-.006-.009-.029-.017-.032-.014-.034,0-.032,0-.037.009-.034.009-.032.014-.029.017-.049.046-.046.037-.04.034-.037.032-.037.026-.037.023-.04.023-.046.017H104l-.006,0-.009,0-.006-.009-.006-.011,0-.014.017-.118.032-.115.037-.109.049-.109.055-.1.063-.1.066-.095.069-.1V196.2l-.279-.012.092-.178.115-.175.132-.167.141-.161.147-.158.147-.161.144-.158.135-.161v-.052l-.239.063-.221.1-.2.132-.2.155-.19.175-.2.184-.2.19-.21.184h-.026l-.006,0-.009,0-.009-.009-.009-.006-.006-.011-.356-1.247,0,0-.011-.009-.009-.006-.009-.006-.011-.009-.011-.009h-.009l-.009,0-.009.006-.009.006-.011.006-.011.006-.009.009-.006.006-.063.149-.037.155-.011.161.006.161.017.167.026.164.032.167.032.167.023.029.023.026.023.032.02.032.011.034.011.037v.043l-.006.049-.075.158-.066.149-.063.149-.063.141-.066.141-.072.132-.08.129-.095.118-.023,0-.017-.011-.014-.012-.009-.02-.011-.017-.009-.02-.011-.02-.014-.02-.006-.009-.006-.009-.011-.009-.014-.011-.017-.009-.017-.006-.023,0h-.023l-.115.216-.092.227-.078.244-.063.253-.072.256-.08.253-.1.247-.129.233-.132-.8,0-.009-.011-.012-.009-.006-.009-.006-.009-.006-.011-.006-.023.011-.011.017-.011.023-.009.026-.009.032-.011.026-.014.026-.02.017-.006.009-.009.006-.009,0h-.023l-.009,0-.011-.006-.009-.009-.095-.282,0,0-.009-.009-.009-.006-.009-.009-.014-.009-.012-.006h-.009l-.009,0-.009.006-.006.006-.009.006-.006.006-.006.009,0,.006-.063.931h-.055l-.118-.67-.009,0h-.026l-.011.006-.009,0-.012.006-.009,0-.037.3-.049.3-.066.3-.089.29-.118.276-.147.259-.181.236-.216.2-.069.029-.063.026-.06.026-.057.02-.055.029-.049.023-.046.032-.043.034-.345-.284-.382-.253-.408-.227-.42-.21-.425-.2-.417-.213-.4-.227-.365-.256-.057-.052L96,198.91l-.052-.052L95.9,198.8l-.043-.049-.037-.049-.034-.049-.029-.049.057-.115.089-.095.1-.083.118-.078.115-.078.112-.089.095-.106.072-.129-.075-.138-.149.02-.066-.135-.009-.006-.011-.006-.011-.006-.009-.006-.014-.009-.011-.011-.011-.012-.006-.02.2-.25.063-.106.066-.112.063-.121.057-.124.052-.129.046-.132.034-.129.026-.129.017-.049.011-.043.011-.037.006-.04,0-.032,0-.034v-.069l-.006-.014-.009-.011-.011-.006-.012,0-.014,0-.017,0-.02,0-.017.006-.109.135-.02,0-.017-.009-.014-.012-.011-.014-.011-.017-.011-.02-.014-.02-.017-.02h0l-.006,0h-.009l-.009,0h-.011l-.011,0h-.014l-.009,0-.026.126-.023.129-.032.129-.04.126-.055.121-.066.112-.086.1-.1.083-.1.04-.1.034-.1.029-.1.017-.092.006L95.4,197l-.078-.037-.063-.063,0-.026.011-.029.014-.023.023-.026.023-.023.029-.02.032-.017.037-.014.011,0,.011,0,.014.006.011.006.014.006.014,0,.014.006h.017l.006-.006,0,0,.006-.011,0-.009.006-.014,0-.011.006-.017-.014-.049-.026-.049-.034-.046-.043-.04-.052-.037-.052-.032L95.3,196.4l-.049-.023.29-1.33-.009-.014-.006-.014-.006-.011L95.511,195l-.011-.009-.009,0-.014,0h-.017l-.034.023-.026.034-.017.04-.014.046-.014.049-.017.046-.026.043-.032.034h-.066l-.075-.221.135-.078.124-.1.112-.112.1-.126.092-.138.083-.144.078-.152.069-.158-.055-.124-.118-.023-.046-.069-.014-.08.006-.083.017-.092.02-.089.02-.095.006-.092-.009-.089.141-.075.17-.009.2.109.2.126.2.141.2.158.187.17.175.175.161.187.144.19.009.121.034.109.049.1.066.095.078.086.089.086.1.083.1.08.08.055.089.034.089.014h.092l.089-.009.089-.026.083-.034.078-.046.256.083h.037l.011,0,.014,0,.011,0,.009-.012.014-.009.009,0,.006-.006.009-.006.009-.009.032-.147.126-.032.126-.034.124-.034.121-.043.109-.055.1-.069.08-.089.066-.115.012-.055.017-.046.02-.046.02-.04.02-.04.017-.04.011-.04.009-.049.1-.112.095-.129.083-.141.063-.152.04-.155.017-.161-.011-.158-.046-.161-.147-.287-.167-.27-.187-.256-.193-.25-.193-.247-.184-.256-.167-.267-.138-.284-.095-.193-.086-.2-.086-.19-.083-.184-.089-.178-.1-.17-.106-.161-.121-.152v-.017l0-.009.006-.009,0-.006.009-.006.009,0,.014,0,.612-.043.006-.006.014-.011.011-.012.012-.017.009-.014.009-.017,0-.017v-.02l-.095-.126-.014,0-.011,0h-.011l-.011-.006h-.014l-.014-.006-.02-.006-.02-.009-.011-.02-.017-.023-.02-.023-.02-.023-.023-.023-.02-.029-.023-.026-.014-.032.448-.075h.009l.011,0,.009,0,.014-.009.009-.009.009-.014.009-.014.006-.02-.083-.178.471-.4v-.032l-.006-.011-.006-.011-.011-.012-.011-.009-.014-.009-.014-.009-.247.02-.037-.014-.014-.017.006-.017.017-.017.026-.014.029-.017.026-.014.023-.014.069-.034.063-.037.06-.046.052-.049.046-.057.04-.063.032-.072.026-.08-.014-.02-.017-.02-.017-.02-.02-.02-.023-.017-.023-.017-.029-.014-.032-.017-.2,0-.181.04-.161.069-.152.086-.155.1-.158.095-.17.086-.187.06h-.026l-.014,0-.014,0-.011-.006-.011-.006-.012-.006-.009-.009-.075-.135.055-.167.04-.172.029-.17.02-.17.014-.164.014-.167.017-.161.026-.161-.006-.02-.006-.017-.014-.011-.014-.012-.017-.009L98.2,186.4l-.017-.009-.017-.009-.052-.187,0,0-.014-.009-.009-.006-.006-.006-.012,0-.011-.006-.011,0h-.011l-.009,0-.009,0-.014.009-.009.014-.006.115-.017.115-.026.112-.037.109-.049.106-.057.095-.072.089-.08.075-.043.014-.04.02-.04.02-.037.02-.037.017-.037.012-.037,0-.037-.011.014-.083.034-.08.04-.078.043-.083.037-.08.026-.092.009-.095-.011-.109-.537.3-.1-.69L96.813,186,96.73,186l-.083.026-.08.037-.08.049-.078.049-.072.046-.069.034-.046.037-.037.037-.037.04-.034.034-.034.034-.034.029-.034.023-.032.014,0-.057.014-.057.034-.055.049-.055.052-.055.055-.052.049-.049.04-.049.224-.126.236-.066.239-.023.241,0,.241.009.244-.009.233-.034.233-.083-.026-.069-.037-.063-.052-.052-.06-.046-.069-.04-.072-.04-.075-.037-.072-.04-.06-.009-.057-.009-.057-.009-.055-.011-.055-.009-.052-.011-.055-.014-.052-.02v-.043l.017-.037.026-.023.037-.023.037-.017.04-.017.032-.014.026-.023.006-.006,0-.006,0-.006.006-.009v-.009l0-.011v-.012l0-.017-.678-.282-1.052.325.02-.08.043-.069.055-.055.066-.052.072-.046.075-.04.072-.04.069-.037.167-.063.167-.06.17-.055.17-.049.167-.046.167-.043.164-.037.164-.034,0-.011.006-.006.006,0,.006,0h0v-.009l-.009-.012-.014-.02-.33-.106-.342-.029-.353.04-.348.089-.345.129-.328.152-.3.164-.27.158-.1.078-.095.072-.095.072-.092.066-.089.069-.092.066-.086.072-.083.072H94.2l-.011,0h-.009l-.009,0-.009,0-.006,0,.092-.207.132-.193.152-.178.164-.181.155-.181.138-.193.106-.21.057-.238-.092.006-.1.029-.1.049-.1.063-.1.075-.106.075-.1.072-.1.06-.034.034-.029.029-.026.032-.02.029-.02.029-.014.026-.014.023-.011.02-.443.27-.259-.187-.06.037-.052.052-.055.057-.055.063-.063.055-.069.046-.08.032-.092,0-.034.017-.034.014-.034.017-.032.011-.034.011-.034.012-.037.009-.037,0-.023-.023-.009-.029,0-.032.011-.037.009-.037.009-.037v-.04l-.011-.037v0l0,0-.006-.006-.009-.006-.009,0-.011-.006-.011-.006-.014-.009-.138.086-.121.1-.109.106-.095.118-.086.124-.078.129-.072.132-.063.138-.029.009-.02,0-.02-.009-.011-.014-.014-.017-.009-.02-.009-.026-.009-.023-.009-.072,0-.075.011-.069.017-.072.017-.069.017-.072.009-.069v-.069l-.141-.043-.181.1-.443.733-.213-.124h-.034l-.014,0-.009,0-.011,0h-.009l-.072.463-.034.21-.118-.063-.109-.072-.106-.072-.106-.072-.112-.06-.118-.049-.132-.032-.144-.009-.029.034-.011.034,0,.04.011.04.011.037.02.037.017.032.014.026.095.1.072.1.063.1.055.1.049.095.055.092.063.089.075.083.017.046.014.034.017.032.017.029.017.026.017.023.02.026.02.026,0,.014-.006.011-.009.009-.009.006-.014.006-.014.006-.014.006-.017.006-.017.014-.006.023-.006.026v.029l-.006.029-.006.029-.014.029-.02.02-.046-.006-.034-.026-.023-.037-.017-.046-.014-.049-.011-.057-.017-.052-.02-.052v-.063l0-.011v-.011l-.006-.009,0-.012-.037,0-.029.012-.029.023-.02.037-.02.043-.02.043-.017.046-.02.043-.006.152-.011.152-.011.149-.011.149-.009.149,0,.144,0,.144.017.141-.006.011-.011.009-.006.006-.009,0-.011,0h-.009l-.2-.595-.017,0-.006-.006-.006-.006v-.006l0,0h0l-.011.009-.017.014-.078.489-.006.017,0,.014-.006.009-.006.006-.009.006-.009,0-.014,0-.011-.009-.086-.118-.063-.132-.037-.141-.023-.147-.011-.152,0-.155v-.3l.011-.115.009-.112,0-.112,0-.112,0-.109.009-.109.009-.112.017-.109-.009-.029-.014-.014h-.02l-.017.009-.023.02-.017.017-.017.02-.011.017-.069.092-.055.1-.049.1-.04.1-.04.112-.034.112-.032.115-.034.115-.011.017-.011.009-.017.009-.017,0-.02,0-.017,0-.02,0-.014.006-.023.037-.011.043-.009.046v.046l.006.052.009.049.011.052.017.052,0,.02-.006.02-.011.014-.011.009-.017,0h-.014l-.023,0-.02-.011-.184.072-.3-.512-.026.006-.02.011-.023.012-.02.017-.017.02-.017.026-.014.026-.011.029.032.891-.471-.241-.023.115.026.106.055.1.078.1.08.1.078.1.057.106.026.112-.049-.009-.04-.014-.04-.026-.034-.029-.034-.032-.032-.037-.032-.034-.032-.037-.017-.009-.011-.009-.011,0-.014,0-.014,0-.014,0-.014.009-.017.009-.029.066-.009.072.011.072.026.075.034.075.04.072.037.066.037.057.057.066.055.063.052.057.052.06.046.06.049.057.049.063.049.063-.014.034-.014.014-.023,0-.02-.006-.029-.009-.029-.009-.032-.009-.032,0-.014.012-.011.011-.011.014-.009.014-.014.012-.014.011-.017.011-.017.006-.224-.115-.011-.014-.011-.02-.009-.02-.011-.02-.014-.017-.02-.017-.029-.014-.034-.011h-.009l-.009,0-.009,0-.009,0-.014.009,0,.014,0,.089.017.08.032.075.046.066.049.066.057.063.052.06.049.066-.063.187.106.284-.066.147v.135l-.48-.241-.009,0h-.017l-.009,0-.009.006-.006,0-.009.009-.009.009.172.67-.017.009-.017.009-.017.012-.014.009-.017.014-.011.014-.009.017,0,.023.48.836.009.009.011.006.011.006.014.006.014,0h.017l.014,0h.017l.017-.011.014-.02.011-.017.009-.023.011-.02.011-.023.014-.014.017-.017h.014l.009,0,.011,0h.011l.011,0h.009l.011,0,.31.293-.026.046-.014.046-.009.049,0,.049v.052l0,.052.009.055.009.052,0,0,0,.006-.006,0-.006,0-.011,0-.009,0h-.029l-.046-.032-.04-.037-.04-.04-.037-.043-.034-.046-.032-.046-.026-.049-.023-.052,0,0-.009-.009-.009,0-.009-.006-.011-.006-.011-.006-.009,0-.009,0-.011,0-.011,0-.011.009-.011.006-.009.009-.006.009,0,.043,0,.046,0,.046,0,.046-.006.046-.011.046-.02.037-.032.034-.057-.006-.049-.017-.046-.023-.043-.034-.04-.037-.037-.04-.032-.04-.029-.043h-.011l-.011,0-.017-.009-.017-.006-.023,0-.02,0h-.02l-.02,0,.388,1.172-.006.011-.006.009-.011.009-.011.009-.014.006-.017.009-.02.006-.02.006-.126-.032-.121-.037-.118-.043-.112-.052-.109-.057-.1-.069-.1-.078-.086-.092h-.023l-.014,0-.011,0-.017.006-.011.006-.011.012-.009.011.172.316,0,.017-.006.014-.009.014-.009.009-.011.012-.009.011-.011.014-.009.012,0,.014,0,.011,0,.014,0,.012.006.014.006.014,0,.011,0,.012-.011.014-.011.006-.011.006-.011.006-.017.006-.014.006-.014.006-.014.006-.02.017-.009.02-.009.026,0,.029-.006.029-.009.029-.014.029-.017.02.092.106.118.083.129.069.144.069.138.072.132.083.118.106.095.132-.075.21v.011l0,.009,0,.009.009.009.006.009.006.009.009.009.009.011.095.043.1.057.089.072.086.08.078.089.066.095.052.1.037.1.006.037,0,.032,0,.034,0,.032v.034l0,.029-.009.032-.011.032-.138.167-.118.181-.106.2-.089.2-.083.216-.075.218-.075.224-.069.227-.092.546-.147.552-.17.555-.152.557-.1.552-.006.543.124.532.293.509v.017l-.006.014,0,.014,0,.011,0,.014,0,.012-.006.011v.011l.006.014.009.011.009.014.009.009.006.014.009.014.006.017,0,.02-.839,3.434-.264.44-.221.46-.187.483-.152.494-.124.512-.1.52-.078.523-.057.526-.063.325-.083.307-.1.3-.106.29-.115.287-.115.282-.118.282L84.02,212l-.164.428-.207.388-.236.362-.239.351-.224.356-.193.379-.138.414-.06.463v.026l0,.014.006.009,0,.012,0,.009,0,.006h0l.115.063.126.052.138.043.147.032.147.017H83.4l.147-.014.147-.037.132-.089.141-.08.141-.072.141-.075.141-.066.141-.072.138-.072.132-.08.017-.017.017-.023.011-.029.014-.032.009-.032.014-.032.009-.032.014-.034-.006-.023-.014-.02-.014-.02-.017-.02-.02-.014-.026-.017-.026-.011-.026-.009-.517.178-.037-.034-.032-.034-.029-.04-.023-.043-.026-.04-.023-.046-.026-.043-.029-.046.066-.057.083-.043.089-.026.1-.017.1,0,.1,0,.1,0h.095l.149-.06.2-.221.009-.08,0-.08-.017-.078-.029-.075-.04-.072-.046-.069-.049-.06-.052-.06v-.023l0-.006,0-.006.006-.009.009-.006.011-.006.04.009.046.006.043.006h.086l.043-.011.04-.017.034-.032.086-.164.075-.172.066-.178.055-.184.04-.187.034-.187.02-.187.011-.187-.02-.055-.006-.055v-.052l0-.052.006-.049,0-.052-.006-.049-.014-.057.029-.273.052-.264.066-.253.083-.247.092-.241.095-.239.1-.239.095-.244.1-.152.092-.158.089-.158.086-.161.083-.155.089-.152.095-.144.106-.132.124-.394.109-.4.1-.391.109-.385.124-.374.155-.353.19-.33.244-.307.092-.158.092-.155.095-.147.1-.147.1-.141.112-.135.126-.132.138-.129.092.006.083.011.083.023.08.032.075.046.069.049.066.06.063.066-.006.589-.017.586-.034.589-.063.578-.1.572-.141.555-.193.537-.253.52-.118.149-.086.158-.069.17-.057.17-.063.172-.072.167-.089.158-.124.144-.055.08-.055.08-.049.08-.046.075-.046.08-.037.08-.034.083-.032.086-.075.138-.06.141-.055.144-.049.147-.049.147-.052.147-.057.141-.066.141,0,.049-.006.046-.011.049-.009.046-.011.046v.043l.011.04.023.037.19.04.2.009.2-.017.207-.04.2-.055.2-.063.2-.069.184-.066.078-.055.078-.055.075-.052.072-.055.066-.052.066-.055.057-.052.055-.057.02-.014.017-.017.014-.023.009-.029.006-.029.009-.029.006-.029.009-.029.02-.02.026-.011.029,0h.066l.037,0,.034-.006.034-.02.034-.155.014-.161,0-.164,0-.164.009-.158.034-.149.069-.144.121-.129,0-.014.006-.014,0-.011,0-.011,0-.009,0-.009v0l0,0,.049-.221.04-.218.032-.218.029-.218.023-.218.023-.224.029-.227.034-.233.078-.328.075-.336.083-.339.095-.33.109-.319.132-.3.164-.273.2-.244.086.037.092.037.089.04.086.046.078.055.066.066.049.08.034.1,0,.239,0,.239,0,.236.009.233.017.233.026.23.034.23.049.227.164.488.216.443.253.408.287.385.3.374.313.371.307.379.293.4.006.032.006.02.006.02.006.017,0,.017,0,.014.006.017.009.02-.1.273-.121.253-.129.241-.141.227-.152.224-.152.218-.158.221-.152.227-.374.256-.3.3-.253.336-.227.351-.218.353-.23.336-.261.307-.31.259-.144.124-.115.135-.095.147-.075.152-.069.155-.063.155-.066.152-.072.141-.006.072.006.066.011.063.023.052.023.052.037.046.04.043.046.037.126.057.126.049.124.037.124.029.121.029.121.026.118.029.118.037.032-.006h.029l.023.006.026.006.023.009.02.009.02.006Z" transform="translate(-58.836 -130.927)" fill="#363435" fill-rule="evenodd"/>
    <path id="Path_370" data-name="Path 370" d="M161.6,289.724l.247-.106-.006-.086-.029-.083-.049-.078-.06-.08-.072-.075-.072-.075-.066-.08-.055-.08.037.075.029.078.014.08.006.08-.006.083-.009.08-.014.083-.014.078.083.106h.034Z" transform="translate(-115.049 -205.94)" fill="#fff" fill-rule="evenodd"/>
    <path id="Path_371" data-name="Path 371" d="M158.8,285.238l-.537-.6Z" transform="translate(-112.783 -202.847)" fill="#fff" fill-rule="evenodd"/>
    <path id="Path_372" data-name="Path 372" d="M124.251,274.492l.106-.147.187-.132.181-.155.178-.17.175-.181.175-.181.181-.178.181-.167.193-.152.034-.04.026-.04.017-.04.009-.04,0-.034-.006-.034-.014-.034-.02-.032-.032-.043-.029-.052-.029-.043-.023-.049-.026-.043-.026-.04-.026-.04-.026-.034-.037-.006-.029,0-.029.014-.026.02-.026.023-.029.02-.032.014-.04.006-.193-.115-.06-.1-.06-.1-.066-.095-.066-.1-.063-.1-.063-.1-.06-.106-.055-.118-.04-.083-.032-.089-.029-.089-.014-.089-.009-.089.009-.089.02-.086.04-.083.034-.017.034,0,.032.009.034.014.032.023.032.023.026.023.023.023.017.032.02.026.014.023.014.017.011.02.011.017.009.02.011.023-.333-.724-.58.828,0,.032.014.023.02.017.026.011.029.006.034,0,.032,0h.034l.072.052.066.06.055.069.046.072.043.078.043.075.04.078.043.072-.322.563.083.095.095.083.1.08.1.078.092.083.08.092.063.1.043.118-.006.115L125,273.4l-.029.106-.034.1-.046.1-.049.089-.057.08-.06.072-.075.055-.075.072-.072.08-.066.086-.06.083-.055.072-.043.06Z" transform="translate(-88.432 -192.699)" fill="#fff" fill-rule="evenodd"/>
    <path id="Path_373" data-name="Path 373" d="M89.181,281.021l.514-.135.141.063.043-.083.034-.095.02-.1.011-.106-.006-.106-.011-.106-.026-.1-.034-.095-.011-.014-.011-.012-.009-.009,0-.012-.006-.006,0-.006v-.006l-.049.092-.046.092-.052.092-.055.092-.06.086-.069.078-.08.072-.092.057-.055.178-.009.014-.014.012-.02.014-.023.014-.017.014-.014.012v.009Z" transform="translate(-63.546 -199.604)" fill="#fff" fill-rule="evenodd"/>
    <path id="Path_374" data-name="Path 374" d="M103.656,279.1l.046-.032.057-.032.057-.034.06-.04.052-.043.043-.055L104,278.8l.014-.078-.011-.04-.011-.037-.011-.04-.011-.037-.014-.034-.011-.032-.017-.029-.017-.023-.333.586-.006.023,0,.014,0,.011.009.009.009.009.011.006.014.006.017.009,0-.006.009-.006.006-.009Z" transform="translate(-73.809 -198.436)" fill="#fff" fill-rule="evenodd"/>
    <path id="Path_375" data-name="Path 375" d="M115.97,221.073h.141l.055-.069.029-.08,0-.086-.011-.092-.026-.095-.032-.1-.034-.095-.026-.095-.106-.276-.129-.253-.147-.236-.149-.23-.141-.227-.126-.233-.1-.247-.06-.267-.02-.207-.049-.2-.075-.2-.089-.2-.1-.2-.095-.2-.086-.2-.066-.207-.1-.164-.1-.161-.092-.158-.089-.158-.086-.152-.086-.149-.083-.147-.083-.147-.112-.244-.092-.256-.086-.264-.08-.264-.092-.259-.1-.247-.124-.227-.152-.207.017-.063.009-.066v-.063l0-.069-.014-.06-.023-.063-.032-.055-.04-.052-.216-.213-.167-.256-.135-.279-.121-.3-.129-.284-.155-.259-.2-.221-.27-.161-.132-.161-.144-.121-.152-.08-.161-.055-.17-.032-.178-.02-.181-.014-.181-.02-.072-.08-.075-.075-.083-.069-.083-.066-.095-.063-.095-.055-.1-.055-.1-.049-.075-.078-.08-.086-.08-.086-.089-.083-.095-.075-.1-.057-.115-.034-.126,0-.216-.158-.063-.115-.06-.121-.06-.118-.063-.121-.072-.115-.078-.112-.092-.1-.1-.095-.006.307.02.316.029.325.032.322.02.325.006.322-.023.313-.057.3-.017.026-.02.023-.023.02-.023.02-.026.014-.032.014-.029.009h-.043l-.009,0-.009,0-.006-.009-.009-.006-.009-.009-.009-.011-.006-.012.043-.546-.026-.56-.083-.56-.129-.563-.164-.555-.187-.552-.2-.532-.193-.52-.029-.043-.034-.043-.04-.04-.04-.043-.04-.034-.034-.037-.026-.037-.011-.034-.078.46-.115.448-.152.431-.193.408-.227.391-.259.362-.29.336-.322.3h-.055l-.014,0-.014,0-.017-.006-.017-.009-.009,0-.009-.011,0-.006-.006-.011,0-.009,0-.014.089-.112.075-.129.063-.138.057-.149.049-.152.052-.152.055-.149.066-.147.086-.037.072-.052.052-.066.043-.078.034-.083.034-.089.034-.089.04-.092.023-.23.037-.23.037-.23.037-.23.029-.224.014-.227-.011-.224-.037-.227-.009-.057-.014-.06-.017-.06-.02-.06-.011-.057-.006-.057.009-.052.026-.055.02-.014.023-.014.026-.011.029-.011.029-.006.032-.011.029-.009.029-.009-.006-.276.032-.273.06-.264.086-.264.1-.256.115-.253.118-.253.115-.253v-.026l.006-.026,0-.023.009-.023.009-.02.006-.02.006-.02.006-.02L106,202.4l-.227.371-.239.359-.247.353-.256.342-.259.345-.259.342-.261.345-.25.348-.075.141-.072.135-.072.135-.069.132-.069.135-.066.138-.066.141-.06.144-.155.351-.147.356-.132.365-.112.368-.086.374-.046.371,0,.376.049.371.126-.218.126-.224.124-.221.129-.221.138-.216.147-.213.164-.2.184-.2.006,0h.017l.009,0,.009.006.011,0,.009.012.014.009-.115.374-.155.359-.181.351-.2.342-.207.339-.21.339-.2.342-.178.351-.017.006-.011.006-.011.006-.009.006-.014.006h0l-.026,0-.023-.011-.02-.014-.023-.02-.017-.02-.017-.023-.014-.026-.009-.029v-.4l.006-.132,0-.132.009-.135.011-.135.014-.135.069-.3.06-.3.052-.3.052-.3.052-.3.057-.3.063-.3.078-.3.178-.511.2-.477.218-.451.239-.437.247-.42.253-.42.256-.42.256-.437.124-.227.126-.221.135-.216.144-.21.155-.2.172-.2.187-.187.213-.181.216.1.149-1.276-.147.086-.138.112-.135.129-.135.135-.147.129-.152.109-.172.078-.187.037-.014.006-.014,0-.011.006-.011.006-.011.006-.009,0-.006,0-.261.394-.284.379-.3.374-.307.368-.31.371-.3.374-.282.382-.256.394-.063.184-.055.178-.046.178-.043.178-.049.178-.049.178-.057.175-.069.175-.046.437-.04.434-.029.434-.023.425-.014.425,0,.425.006.428.02.425-.006.009,0,.009-.009.009-.006.006-.011.009-.009.009-.011.006-.009.009-.04-.006-.029-.014-.026-.023-.023-.032-.017-.034-.017-.04-.017-.04-.014-.04,0-.075-.009-.078-.014-.072-.014-.072-.017-.069-.017-.072-.014-.069-.009-.069-.115-.178v-.221l-.063-.118-.029-.135-.006-.138.017-.149.023-.147.029-.155.026-.149.011-.149.014-.187.026-.181.032-.178.034-.178.037-.175.037-.172.034-.178.032-.175.106-.178.126-.5.164-.483.193-.46.221-.445.253-.42.282-.408.313-.385.339-.371.175-.227.172-.224.172-.221.172-.221.178-.221.19-.221.2-.221.221-.224.178-.147.152-.158.124-.167.1-.175.089-.181.08-.187.078-.187.078-.193,0,0,.006,0,.006,0,.011,0,.009,0,.011,0h.011l.017,0,0,.006.006.006.006.009.009.009,0,.009.006.011.006.006.006.009-.106.356.126-.026.121-.043.115-.057.112-.066.112-.063.115-.063.115-.049.129-.04.049-.032.052-.029.046-.032.046-.037.04-.037.037-.043.034-.049.029-.055-.454.02-.009.006-.009,0-.009.006-.009,0-.009.006-.009.006-.011.006-.011.006H107.1l-.011-.006-.014,0-.014,0-.014-.006-.014,0-.29.063-.029.012-.026.017-.026.023-.023.023-.029.023-.029.02-.032.02-.034.009-.655.325-.132.124-.144.121-.149.124-.149.124-.141.135-.124.141-.1.158-.078.172-.014.02-.017.009-.02,0-.02,0-.023,0h-.023l-.023.006-.02.011-.078.147-.08.138-.083.135-.086.126-.095.126-.1.115-.109.115-.118.1-.152.4-.147.161-.126.181-.112.2-.1.2-.106.21-.109.21-.118.207-.132.2-.017.043-.017.034-.017.032-.017.029-.017.029-.017.023-.02.026-.017.026-.017.006-.014,0H102.6l-.017,0-.017-.006-.023-.014-.009-.02-.006-.026v-.057l0-.032,0-.029,0-.032-.092.23-.1.218-.109.213-.1.213-.1.216-.086.224-.072.236-.043.253-.158.313-.095.339-.055.362-.026.371-.02.376-.023.368-.046.356-.083.33-.017.009-.014.006-.011.006-.011.006-.009,0-.009,0h0l-.009,0h-.026l-.009,0h-.009l-.009,0-.006,0-.034.092-.017.1,0,.1.009.1.011.1.014.106.011.1.009.1.049.135.034.132.02.126.009.121,0,.124-.011.121-.017.124-.026.124-.144.322-.1.313-.06.31-.02.307.006.31.026.307.043.31.055.31-.009.118,0,.118.011.115.023.109.037.1.052.1.069.089.092.078.014.006.014.009.011.006.014.009.009.011.006.006,0,.006h0l.017-.078v-.086l-.011-.092-.014-.095-.014-.1-.009-.1.006-.1.026-.095,0-.063.006-.06.011-.063.014-.063.014-.057.017-.06.009-.057.006-.057.043-.069.029-.078.02-.075.017-.078.023-.072.032-.06.052-.046.078-.037.052.029.043.034.032.046.026.052.02.06.014.057.014.063.011.057-.014.161-.011.164-.009.164v.161l.011.158.026.147.046.141.069.129.4.313.029-.218-.006-.227-.023-.23-.026-.236-.02-.233,0-.23.034-.227.086-.221.009,0,.014-.009.011-.006.011-.011.014-.009.014-.011.02-.006.023-.009.034.006.034.012.034.02.034.026.029.029.026.034.023.037.02.037.02.161.014.158.009.152.009.149.006.147.011.147.017.149.032.149v.006l.006.009,0,.009.009.006.011.009.014.006.066-1.394.006-.017.011-.023.014-.02.017-.023.02-.02.023-.017.026-.014.032-.012.06.012.049.02.037.037.034.043.023.052.023.055.023.055.029.052.017.149.011.144.006.144.006.138.006.138.011.141.023.138.037.141,0,.009.006.006,0,.006.006.006.006.006.006.009.009.006.009.006.739.167-.006-.161,0-.164.009-.164.017-.167.017-.164.02-.167.023-.167.023-.167.011-.089.017-.089.023-.08.026-.083.023-.08.02-.083.02-.083.011-.089.046-.086.04-.089.04-.095.04-.095.04-.092.04-.092.046-.086.049-.078.072-.129.083-.118.092-.106.1-.1.1-.1.1-.095.1-.1.095-.1.149-.083.055.014.052.026.049.04.043.043.037.052.034.052.032.055.032.052-.934,1.422-.172.566.069-.075.075-.08.078-.08.08-.078.086-.066.095-.057.1-.04.112-.023.006.012.009.009.009.012.009.009.006.009.009.009.009.006.009.009-.385.753-.152.21-.023.112-.02.115-.011.112-.006.112.006.115.017.109.032.1.049.1.612-.273.032.006.032.009.029.011.029.017.02.023.02.026.014.026.009.032,0,.012v.012l0,.014v.009l0,.014,0,.014v.029l-.494.336.052.046.06.032.066.032.072.026.063.034.06.043.046.057.032.072v.029l0,.014,0,.006v.009l0,0v0h0l-.011.02-.011.014-.014.017-.014.017-.02.014-.02.014-.023.012-.026.006h-.095l-.095-.009-.092-.014-.095-.014-.1-.02-.095-.02-.1-.017-.095-.02-.118-.049-.112-.046-.118-.037-.115-.034-.118-.029-.115-.026-.115-.023-.115-.026-.1-.02-.106-.026-.106-.02-.1-.017-.1,0-.1.009-.092.029-.083.049-.078.155-.055.155-.037.158-.026.158-.023.158-.02.158-.029.152-.034.152-.04.2-.017.193,0,.19.009.19.009.187.006.19-.006.187-.02.187.181-.055.023.009.023.011.023.014.02.017.017.02.014.02.011.023.009.023.011.046.006.046v.046l0,.043-.006.046,0,.043-.006.049v.049l.046-.17.072-.155.083-.147.092-.141.095-.144.089-.147.08-.155.063-.17.126-.149.121-.155.109-.164.1-.17.083-.172.063-.184.046-.193.02-.2,0,0,.006,0,.009,0,.009,0h.052l.086.1.055.112.029.126.014.132,0,.141-.009.141-.009.135-.006.129.132.037.135.037.132.046.132.055.115.063.1.08.083.1.06.118.02.055.02.052.017.049.009.043.006.043v.04l-.011.04-.017.034-.006.009-.009.006-.009,0-.009,0-.011.006-.009.006-.011,0-.011.006-.124-.072-.121-.08-.121-.086-.121-.083-.129-.075-.135-.057-.152-.04-.164-.017-.009.009-.011.009-.012.006-.009.006-.014.012-.009.009-.009.011,0,.012,1.247.672.149-.055.1-.149.095-.152.095-.152.092-.152.095-.149.092-.152.092-.152.095-.152.02-.124.023-.124.029-.121.032-.118.037-.112.043-.106.049-.1.057-.095.006-.095-.006-.095-.014-.095-.011-.1-.009-.089.009-.086.026-.08.055-.075.026-.023.029-.012h.032l.037,0,.034.009.034,0h.034l.032-.012-.078-1.394.006,0,.006-.006.009,0,.009-.006.011-.006.011,0,.011,0,.014,0,.115.155.089.175.066.19.052.2.034.213.026.213.023.216.023.207.029.026.037.026.037.029.037.032.034.037.032.037.029.04.02.043.009.164-.02.164-.043.164-.06.158-.075.158-.08.147-.086.144-.083.129-.011.012-.014.009-.009.009-.009,0-.009.006-.006,0h-.023l-.014-.006-.012-.006-.009-.012-.006-.011-.006-.012-.006-.012-.006-.014.075-.4-.132.144-.1.167-.078.184-.063.2-.057.21-.055.21-.06.213-.075.2.011.1-.006.095-.014.1-.02.095-.023.095-.023.092-.017.089-.006.092.293.164.319.112.345.072.362.034.368,0,.368-.029.365-.043.353-.063.218-.095.2-.115.184-.132.17-.149.147-.167.132-.181.115-.2.1-.21.006-.1.02-.106.023-.1.026-.1.023-.1.02-.1.006-.095-.006-.1.043-.2.02-.2-.006-.2-.023-.2-.037-.193-.046-.193-.055-.193-.057-.19-.049-.106-.049-.109-.046-.106-.043-.112-.034-.109-.026-.112-.011-.106,0-.109.006-.009.011-.009.014-.006.017-.006h.037l.02.006.02,0,.256.3.2.328.158.351.129.368.109.376.1.379.112.376.126.368.011.126.017.121.023.121.032.118.032.121.037.118.04.121.043.118.017.034.02.029.02.026.023.026.023.023.026.017.026.017.029.006.086.04.069.06.052.075.046.083.037.089.04.092.04.089.049.078.037.095.04.095.037.092.037.089.032.095.032.095.029.095.023.1.08.161.083.149.092.147.1.138.1.132.109.124.118.121.124.106-.043-.164-.043-.17-.043-.17-.029-.172-.011-.167.02-.164.052-.149.1-.144.006,0,.009,0,.009-.006.009,0,.009,0,.011,0,.009-.006.014,0h.014l.017,0,.014,0,.017,0,.014.006.014,0,.011.006.014.006.333,1.144.129.072.092.132.043.147.006.155-.011.164-.017.167,0,.161.032.155.078.144.164.046.132.08.109.109.095.126.083.138.086.138.095.129.106.115.02.046.017.037.02.037.023.032.026.032.029.023.032.023.037.02h.032Z" transform="translate(-71.913 -141.289)" fill="#fff" fill-rule="evenodd"/>
    <path id="Path_376" data-name="Path 376" d="M106.894,271.229l.129-.649-.353.032.118.575.006.006.009.009.006.006.009.009.009.011.014.009.014.009.02.009,0-.006.006-.006.009-.006Z" transform="translate(-76.018 -192.827)" fill="#fff" fill-rule="evenodd"/>
    <path id="Path_377" data-name="Path 377" d="M94.345,263.345l0,0,.006-.006.009-.009,0,0,.023-.147.083-.092.08-.1.069-.1.063-.109.06-.112.063-.112.06-.115.066-.115.017-.178.032-.184.034-.187.034-.187.023-.187.011-.19-.006-.19-.026-.2.023-.052.032-.052.034-.049.032-.049.032-.04.029-.043.02-.037.014-.034.009-.006.014-.009.017-.009.014-.012.011-.012.011-.017.009-.017.009-.023,0-.006.009-.012.009-.011.014-.012.011-.012.014-.014.011-.009.014-.012.279-.376-.009.02-.011.014-.017.017-.017.012-.02.012-.023.009-.02.014-.02.009-.172-.075-.184-.02-.2.376-.011.017-.011.014-.014.014-.011.011-.017.012-.02.009-.026.012-.029.006-.1.1-.092.106-.086.118-.08.121-.08.126-.072.132-.069.135-.066.135.032.721-.006,0-.009,0-.014.006-.011.006-.017.009-.014,0-.017.006h-.017l0,.02.006.017.011.012.02.011.017.009.023.012.017.009.014.014.075.086.043.1.017.109,0,.118-.011.121-.009.121-.006.121.009.118-.086.144,0,.014,0,.011,0,.012v.012l0,.011v.014l0,.009.009.011h.032Z" transform="translate(-67.11 -185.216)" fill="#fff" fill-rule="evenodd"/>
    <path id="Path_378" data-name="Path 378" d="M117.387,266.057l0,0,.011-.006.011-.009.006,0-.034-.213-.046-.218-.057-.227-.049-.23-.049-.233-.029-.236-.006-.233.023-.233-.029-.02-.026-.014-.026-.017-.026-.014-.029-.012-.026-.014-.032-.011-.032-.012-.055.118-.023.129v.135l.017.138.026.141.029.141.029.141.017.135.049.115.046.112.043.112.04.109.037.109.043.109.046.106.052.106h.043Z" transform="translate(-83.287 -188.209)" fill="#fff" fill-rule="evenodd"/>
    <path id="Path_379" data-name="Path 379" d="M139.464,260.631v-.043l-.121-.365-.1-.083-.089-.095-.08-.1-.072-.106-.072-.109-.072-.109-.075-.109-.083-.106-.037-.1-.04-.092-.046-.086-.049-.086-.046-.086-.043-.089-.04-.1-.032-.106-.052.112-.034.115-.02.124v.126l.011.129.026.124.04.118.052.106.132.132.135.126.135.126.135.126.135.126.126.126.124.132.118.129h.006l.011,0,.011,0Z" transform="translate(-98.53 -184.332)" fill="#fff" fill-rule="evenodd"/>
    <path id="Path_380" data-name="Path 380" d="M137.959,263.773l-.342-.333-.017.04.011.04.032.046.049.043.055.046.057.04.052.037.04.032.011.009.012.006.011.006.011,0,.006.006h.009v0h0v-.023Z" transform="translate(-98.06 -187.739)" fill="#fff" fill-rule="evenodd"/>
    <path id="Path_381" data-name="Path 381" d="M128.672,258.471h.043l.109-.095.112-.089.115-.075.121-.069.124-.06.129-.057.135-.052.144-.057.135-.012.129-.023.118-.029.112-.043.1-.055.092-.075.078-.095.072-.121h0v0l0-.009v-.012l0-.011,0-.012-.006-.012-.006-.014-.115-.034-.126-.009-.129.017-.135.032-.138.043-.138.046-.135.043-.126.029-.06.026-.055.023-.057.029-.052.029-.055.023-.052.02-.055.014-.055,0-.092.055-.078.06-.072.063-.063.069-.06.072-.057.078-.057.083-.057.086,0,.032.009.023.014.026.02.023.023.02.026.023.026.017.029.014h.023Z" transform="translate(-91.575 -183.399)" fill="#000002" fill-rule="evenodd"/>
    <path id="Path_382" data-name="Path 382" d="M99.83,258.734l.086-.25-.011-.011-.009,0-.011,0-.011.011Z" transform="translate(-71.143 -184.197)" fill="#fff" fill-rule="evenodd"/>
    <path id="Path_383" data-name="Path 383" d="M146.989,257.173l.009-.095-.006-.095-.017-.095-.026-.095-.034-.092-.043-.092-.049-.086-.049-.083h-.063l.256.744h0l.009-.006.009,0Z" transform="translate(-104.552 -182.75)" fill="#fff" fill-rule="evenodd"/>
    <path id="Path_384" data-name="Path 384" d="M120.263,254.2l.011,0,.009-.006h0l0,0h0l.006,0,.011-.006.023-.012.066-.147.052-.161.034-.164.017-.167-.009-.167-.032-.161-.06-.152-.092-.138-.017,0-.011,0-.011.009-.009.009-.009.012-.009.011,0,.014-.006.014.032.1.037.109.034.109.026.106.011.106-.009.1-.034.1-.066.089-.063.284v.032l0,.011v.014l.006.011.006.011.009.011.006,0h.009l.006,0h.006l.006,0Z" transform="translate(-85.66 -180.235)" fill="#000002" fill-rule="evenodd"/>
    <path id="Path_385" data-name="Path 385" d="M110.722,255.211l.011-.014.014-.017.011-.023.011-.029.006-.029.006-.029v-.029l-.006-.029-.014-.006-.011-.014-.017-.012-.014-.011-.017-.009-.017-.009-.017,0h-.017l-.026.029-.011.032,0,.032.006.034.009.037.011.034.014.034.02.029h.052Z" transform="translate(-78.826 -181.689)" fill="#000002" fill-rule="evenodd"/>
    <path id="Path_386" data-name="Path 386" d="M110.963,252.4h.055l.032,0,.037-.006.032-.009.032-.014.032-.017.029-.026,0-.034-.009-.032-.017-.029-.023-.029-.029-.026-.034-.023-.032-.02-.037-.017-.043-.014-.043-.009-.037,0-.037,0-.034,0-.034-.009-.032-.017-.029-.026-.009-.012-.006-.017-.011-.014-.009-.017-.011-.014-.017-.014-.017-.009-.026-.006.086.356Z" transform="translate(-78.84 -179.536)" fill="#000002" fill-rule="evenodd"/>
    <path id="Path_387" data-name="Path 387" d="M101.859,251.215l.006,0h.049l.014,0,.011,0,.014-.009-.58-.333-.017.017-.006.02.006.023.014.029.017.029.023.029.02.029.017.023.052.029.055.023.052.02.052.014.049.014.052.014.049.014Z" transform="translate(-72.226 -178.781)" fill="#fff" fill-rule="evenodd"/>
    <path id="Path_388" data-name="Path 388" d="M153.438,247.066h.02l.011-.178.057-.069.078-.052.092-.034.1-.023.106-.023.1-.023.1-.034.092-.055-.083-.049-.095-.032-.1-.02-.109-.011-.115,0-.112,0h-.112l-.106,0-.6.336Z" transform="translate(-108.863 -175.638)" fill="#fff" fill-rule="evenodd"/>
    <path id="Path_389" data-name="Path 389" d="M134.364,243.66h.009l.011,0,.009,0,.012-.006.006-.006.009,0,0-.006.006-.006-.009-.325-.009-.011-.006-.012-.012-.011-.011-.011-.014-.012-.014-.009-.017-.009-.014-.009h-.026l-.011,0-.011,0-.009,0h-.009l-.075.21,0,.034.011.034.017.029.02.026.023.026.029.026.029.023.029.023h.023Z" transform="translate(-95.623 -173.329)" fill="#000002" fill-rule="evenodd"/>
    <path id="Path_390" data-name="Path 390" d="M142.868,241.212l.293-.06.273-.1.262-.126.259-.135.259-.126.273-.095.293-.049.325.014.376-.7-.273.109-.259.132-.256.147-.256.147-.264.144-.276.121-.3.1-.322.057-.138.02-.132.023-.129.029-.126.029-.126.032-.126.029-.129.026-.132.02-.014.017-.011.009-.009.011-.011.009-.009.006-.011,0-.012.006-.009,0,.072.052.08.037.089.023.092.014.095.009.1.006.1.009Z" transform="translate(-101.302 -170.913)" fill="#fff" fill-rule="evenodd"/>
    <path id="Path_391" data-name="Path 391" d="M96.963,240.312l.172-.848-.006-.009-.006-.011,0-.012v-.014l-.006-.009-.006-.012-.011-.006-.017,0-.052.106-.049.112-.043.121-.032.124-.023.126,0,.124.014.124.037.118.006-.006.011-.012.009-.009Z" transform="translate(-69.041 -170.6)" fill="#fff" fill-rule="evenodd"/>
    <path id="Path_392" data-name="Path 392" d="M144.333,241.193h.193l.368-.523-.069.012-.063.026-.066.046-.063.052-.066.06-.063.066-.06.066-.055.057-.014.023-.011.017-.009.017-.009.012-.009.014-.009.011-.009.017-.009.014,0,0,.009,0,.006.006Z" transform="translate(-102.842 -171.512)" fill="#fff" fill-rule="evenodd"/>
    <path id="Path_393" data-name="Path 393" d="M157.954,241.568l.471-.112v-.066l-.506.149.006.006.011.009.011.011Z" transform="translate(-112.541 -172.025)" fill="#fff" fill-rule="evenodd"/>
    <path id="Path_394" data-name="Path 394" d="M110.042,234.1l.052-.092.043-.1.043-.1.04-.106.046-.1.049-.1.06-.092.075-.083.057-.135.069-.129.075-.121.083-.118.083-.112.086-.112.08-.112.078-.112,0-.006,0-.006-.009-.006-.006-.006-.011,0-.011,0-.011-.006-.011-.009-.322.293.032-.158.086-.158.126-.149.149-.149.152-.147.147-.147.121-.149.08-.155-.011-.014-.011-.011-.017-.009-.014-.011-.02-.006-.023-.009-.023-.006-.02-.009-.109.049-.1.06-.089.069-.083.075-.083.078-.083.08-.086.078-.086.078-.075.092-.06.092-.057.092-.052.092-.055.095-.055.089-.06.086-.072.083-.089.175-.08.178-.066.187-.046.187-.029.19,0,.19.02.187.057.184h.055Z" transform="translate(-78.327 -164.863)" fill="#000002" fill-rule="evenodd"/>
    <path id="Path_395" data-name="Path 395" d="M149.943,238.649l.115-.078.118-.086.112-.1.109-.106.1-.115.1-.121.083-.124.078-.129-.483.333-.023-.006-.023-.014-.023-.014-.02-.02-.02-.017-.017-.026-.017-.029-.009-.029V237.9l-.2.753h.023Z" transform="translate(-106.84 -169.46)" fill="#fff" fill-rule="evenodd"/>
    <path id="Path_396" data-name="Path 396" d="M113.963,236.978h.011l.014,0,.014,0,.017-.006.014-.006.011-.006.014-.009.009-.009.862-.994v-.02l0-.009,0-.009.006-.011,0-.014.006-.012,0-.006v-.009l-.006-.009,0-.009-.006-.006-.009-.009-.009-.009-.009-.009-.017,0-.023,0h-.023l-.023,0-.026.006-.023.006-.02.006-.017.009-.112.138-.124.129-.132.132-.126.129-.118.135-.1.144-.072.155-.034.167,0,0h.009l.006,0,.009,0,.009.006Z" transform="translate(-81.184 -168.041)" fill="#000002" fill-rule="evenodd"/>
    <path id="Path_397" data-name="Path 397" d="M156.826,239.2l.408-.21-.474.167.009.006.009.006.006,0,.009.006.009.006.009.006.009.006Z" transform="translate(-111.714 -170.315)" fill="#fff" fill-rule="evenodd"/>
    <path id="Path_398" data-name="Path 398" d="M155.34,236.7l.184-.4Z" transform="translate(-110.702 -168.398)" fill="#fff" fill-rule="evenodd"/>
    <path id="Path_399" data-name="Path 399" d="M163.256,234.451l.052-.135-.02-.006-.014,0-.014.012-.014.014-.011.023-.014.02-.014.02-.014.017v.009l0,.011,0,.014.006.014.009.011h.012l.014-.006Z" transform="translate(-116.296 -166.98)" fill="#fff" fill-rule="evenodd"/>
    <path id="Path_400" data-name="Path 400" d="M158.463,233.781l.04-.017.04-.02.032-.023.034-.026.029-.029.026-.032.023-.034.023-.04-.037.006-.034.014-.034.023-.032.032-.034.034-.032.037-.034.034-.032.029,0,0,.009,0,.006.006Z" transform="translate(-112.911 -166.445)" fill="#fff" fill-rule="evenodd"/>
    <path id="Path_401" data-name="Path 401" d="M154.725,233.3v-.052l0-.029,0-.029-.006-.026-.009-.029-.014-.026-.02-.02Z" transform="translate(-110.225 -166.11)" fill="#fff" fill-rule="evenodd"/>
    <path id="Path_402" data-name="Path 402" d="M126.214,233.321l.009,0h.014l.011,0,.014-.006.011-.006.009-.009.009-.009.006-.014.066-.135-.009-.017-.014-.006h-.017l-.02.006-.023.009-.023.009-.026.006-.017,0-.02.012-.009.014-.006.02v.043l0,.023v.023l0,.023.006,0,.009,0,.014,0Z" transform="translate(-89.921 -166.132)" fill="#fff" fill-rule="evenodd"/>
    <path id="Path_403" data-name="Path 403" d="M128.446,232.315l.164-.135-.227.095,0,.011,0,.009.006.014.009.009.009.009.014.006.012-.006Z" transform="translate(-91.489 -165.462)" fill="#fff" fill-rule="evenodd"/>
    <path id="Path_404" data-name="Path 404" d="M125.5,231.536l.506-.126-.612.011-.02.017v.017l.006.017.017.014.023.017.026.012.026.011Z" transform="translate(-89.344 -164.913)" fill="#fff" fill-rule="evenodd"/>
    <path id="Path_405" data-name="Path 405" d="M155.613,230.137l-.129-.4h-.023l-.009,0h-.009l-.009.006-.006.006-.006.006,0,.009.161.368h.032Z" transform="translate(-110.759 -163.723)" fill="#fff" fill-rule="evenodd"/>
    <path id="Path_406" data-name="Path 406" d="M123.223,227.323l.463-.313,0-.026,0-.029-.009-.023-.011-.026-.014-.02-.014-.023-.02-.02-.023-.023-.546.23-.006,0,0,.006-.006.009,0,.009,0,.009-.006.011,0,.011,0,.006.193.218h0l.006,0,.009,0Z" transform="translate(-87.662 -161.642)" fill="#fff" fill-rule="evenodd"/>
    <path id="Path_407" data-name="Path 407" d="M121.864,225.963l.011-.009.017-.011.014-.009.017-.012.014-.011.014-.017.011-.02.006-.026-.006-.02-.011-.023-.014-.02-.014-.02-.02-.017-.02-.017-.026-.02-.026-.02-.023.023-.023.023-.026.017-.023.02-.026.023-.02.023-.017.029-.014.032,0,.026.011.017.017.014.023.006.023.006.026.006.023.006.023.011h.017l.011,0h.009l.009,0h.006Z" transform="translate(-86.7 -160.837)" fill="#fff" fill-rule="evenodd"/>
    <path id="Path_408" data-name="Path 408" d="M125.54,224.6l.287-.368Z" transform="translate(-89.465 -159.796)" fill="#fff" fill-rule="evenodd"/>
    <path id="Path_409" data-name="Path 409" d="M120.334,216.971l.451-.21v-.017l.006-.014.009-.014.009-.011.011-.011.011-.014.009-.011.011-.02.149-.063.032-.052.04-.055.046-.052.052-.046.057-.04.066-.032.066-.023.072-.014.014.009.017.012.017.014.017.011.014.02.014.02.011.023.011.026.032.356.089-.046.08-.063.069-.078.066-.089.063-.095.066-.1.069-.092.078-.089.04-.1.04-.109.034-.1.037-.106.034-.1.037-.1.04-.1.046-.106-.187-.026-.167-.066-.155-.095-.144-.115-.144-.121-.144-.121-.152-.106-.164-.083-.141.124-.121.141-.1.155-.089.167-.083.178-.078.175-.083.178-.086.172-.04.144-.032.144-.026.144-.017.141-.009.141-.006.141,0,.138,0,.138.006,0,.011,0,.009.006Z" transform="translate(-85.731 -152.891)" fill="#fff" fill-rule="evenodd"/>
    <path id="Path_410" data-name="Path 410" d="M137.151,221.507l-.129-.187-.02,0-.009.006,0,.011.006.011.006.017.009.014.009.017,0,.014.006.017.011.012.012.011.014.011.017.014.02.011.02.011.029.014h0v-.011Z" transform="translate(-97.625 -157.722)" fill="#fff" fill-rule="evenodd"/>
    <path id="Path_411" data-name="Path 411" d="M138.643,220.8l0-.006-.006-.006-.006-.006-.009-.011-.009-.009-.009-.009-.012-.009-.011-.009-.014.006-.006.006,0,.012.012.011.014.011.014.014.017.011.014.011v0l.006-.006v-.009Z" transform="translate(-98.744 -157.309)" fill="#fff" fill-rule="evenodd"/>
    <path id="Path_412" data-name="Path 412" d="M127.942,202.276l-.083-1.069.04-.049.055-.04.066-.023.072-.02.08-.006h.083l.086.006.086.009.034.014.034.012.032.011.034.009.032.009.034,0h.037l.04-.006-.026-.04-.029-.043-.034-.043-.04-.043-.043-.037-.049-.032-.052-.023-.049-.011-.029,0-.02,0-.02-.006-.017-.006-.017-.006-.011,0-.017,0-.017,0-.08.083-.083.078-.086.08-.08.086-.078.089-.066.1-.049.109-.026.121-.009,0h-.006l-.011,0h-.006l-.009,0-.009,0h-.026l-.034-.023-.026-.026-.023-.034-.012-.04-.011-.04-.006-.049v-.055l0-.057.034-.066.037-.072.029-.075.026-.075.011-.075,0-.078-.014-.072-.029-.075-.049-.06-.046-.055-.049-.052-.046-.052-.043-.049-.037-.052-.032-.052-.02-.057v-.029l0-.009,0-.011.006-.014.009-.012,0-.006.012-.011.009,0,.009-.006.009-.009.014-.009.741.609-.092-.425-.152-.388-.2-.356-.227-.339-.241-.33-.23-.339-.207-.356-.164-.388-.009-.02-.009-.02-.009-.017-.009-.017-.009-.011-.006-.014-.009-.012-.009-.014H126.5l-.011-.006h-.014l-.011-.006h-.011l-.011,0-.014-.006-.014-.009-.043.48-.009.006-.009.006-.009.006-.009.006-.009.009-.011.006-.011.009-.009.009h-.032l-.029-.006-.026-.009-.023-.012-.026-.014-.023-.011-.026-.012-.032-.011-.017,0-.014.006-.009.011-.006.011-.006.014,0,.017-.006.014-.006.017.049.089.072.08.078.08.083.078.072.089.055.095.029.112-.006.129.011.026.014.023.011.017.014.017.011.02.014.017.009.023.011.023.7.724,0,.006v.017l0,.009-.006.006,0,.009-.009.009-.009.009,0,.009-.006.006-.009.006-.009.006-.014,0-.011.006-.014,0-.011,0-.152-.072-.135-.1-.118-.124-.112-.135-.112-.138-.118-.132-.126-.124-.147-.1-.034-.046-.037-.052-.043-.055-.046-.052-.052-.04-.055-.032-.057-.014-.06.009.032.147,0,.011v.014l0,.014-.006.012-.006.014-.006.014-.009.011-.011.012-.055.026H125.6l-.055-.009-.055-.026-.057-.029-.055-.032-.052-.032-.046-.026-.046-.032-.034-.032-.026-.037-.017-.037-.014-.037-.009-.043-.012-.04,0-.043-.034-.017h-.032l-.032.011-.034.017-.034.02-.04.014-.04.011-.046-.006-.118-.167-.124-.167-.129-.164-.124-.17-.121-.178-.106-.187-.086-.2-.06-.216.009-.032.026-.023.032-.012.04-.006.037.006.04.009.034.011.029.014.1.106.095.1.092.092.092.086.089.083.089.083.092.086.092.086.247-.072-.106-.253.086-.187.267-.147.009-.011.006-.012v-.011l0-.014-.006-.012-.006-.014-.006-.014,0-.014-.095-.086-.1-.086-.1-.089-.1-.095-.092-.1-.072-.112-.057-.121-.029-.138.078-.115.066-.124.057-.129.043-.138.026-.135.006-.138-.017-.138L125,195.23l-.158.118-.112.147-.078.164-.057.175-.052.184-.052.181-.075.175-.1.155.549.106.006.012.006.011.006.009.009.009.009.011.009.009.009.011.011.012v.06l-.089.066-.1.046-.112.032-.121.017-.126.009h-.124l-.124,0-.115-.009-.095.23-.017.009-.017,0h-.017l-.011-.006-.017,0-.009-.009-.011-.006-.009-.009-.213-.376-.138.1-.115.115-.1.132-.086.144-.083.155-.075.158-.072.161-.075.158.1.187.075.2.055.216.043.224.034.23.034.233.034.23.046.227.178.161.178.175.175.181.184.17.187.149.2.118.216.075.236.02.017-.086.006-.092,0-.095,0-.1,0-.095.017-.092.037-.086.066-.08.046-.049.057-.049.06-.043.069-.043.075-.034.08-.029.083-.023.086-.011.184-.115.345-.178.017.009.014.009.014.011.011.009.009.014.009.014.006.017.006.02-.647.721.006.017.014,0,.02-.017.026-.029.029-.026.032-.026.029-.017.029,0,.161.04.164,0,.17-.029.167-.043.167-.037.164-.017.161.02.158.069,0,0h0l.006.009,0,.006.006.009,0,.011,0,.011.006.014-.023.08-.04.066-.055.055-.063.043-.072.043-.075.034-.075.032-.069.034-.083.034-.078.034-.078.032-.078.029-.078.032-.075.029-.075.032-.069.029-.078.293.155.009.161,0,.161,0,.164,0,.161.011.161.02.155.046.149.072v.282l.807.762v0l0-.006,0-.006Z" transform="translate(-87.548 -139.129)" fill="#fff" fill-rule="evenodd"/>
    <path id="Path_413" data-name="Path 413" d="M137.593,219.325l0-.02-.009-.017-.011-.017-.012-.014-.014-.014-.017-.012-.017-.011-.014-.009-.006.023v.02l0,.02.011.014.014.017.017.011.02.011.026.009v0l.006,0,0,0Z" transform="translate(-97.981 -156.219)" fill="#fff" fill-rule="evenodd"/>
    <path id="Path_414" data-name="Path 414" d="M143.383,217.934h.055l.011,0,.009-.006.017-.011.009-.017,0-.014v-.02l0-.017-.006-.02-.006-.017,0-.017h-.02l-.017.009-.014.012-.014.014-.014.02-.014.017-.017.02-.017.011v.02l0,.006.006.009.009,0,.009,0Z" transform="translate(-102.15 -155.207)" fill="#fff" fill-rule="evenodd"/>
    <path id="Path_415" data-name="Path 415" d="M102.079,211.842l0,0v-.009l0-.011V211.8l0-.011,0-.012v-.014l-.227-.207.006.043.014.043.023.043.032.037.034.037.04.032.043.029Z" transform="translate(-72.576 -150.767)" fill="#fff" fill-rule="evenodd"/>
    <path id="Path_416" data-name="Path 416" d="M136.386,207.54l0,0,.006-.009.009-.006,0,0-.012-.227-.069-.21-.109-.19-.135-.181-.147-.172-.141-.17-.126-.17-.089-.178-.009-.009-.011-.006-.014-.009-.011-.006-.014-.006-.014,0-.014,0-.017,0-.014.006-.006.006,0,0h0l0,0,0,.006-.009.009-.014.011.08.193.1.19.115.19.129.187.135.193.135.19.126.193.124.2,0,0,.006,0,.009,0Z" transform="translate(-96.506 -146.79)" fill="#363435" fill-rule="evenodd"/>
    <path id="Path_417" data-name="Path 417" d="M121.648,208.916v-.566l-.138.491.118.106,0-.006.006-.012.009-.009Z" transform="translate(-86.593 -148.479)" fill="#fff" fill-rule="evenodd"/>
    <path id="Path_418" data-name="Path 418" d="M124.389,204.18l.075-.2.057-.218.034-.224.014-.227-.009-.224-.032-.216-.057-.207-.083-.187-.014-.006-.011-.009-.017-.009-.014-.011-.02-.012-.023-.009-.023-.006-.026,0,.011.132.029.138.04.141.043.141.034.144.02.144v.147l-.029.144.006.078v.138l-.009.066-.011.066-.014.066-.02.066-.026.066.055.095h.02Z" transform="translate(-88.539 -144.246)" fill="#363435" fill-rule="evenodd"/>
    <path id="Path_419" data-name="Path 419" d="M104.865,206.265l.259-.02-.569-.555-.011.011-.009.014-.009.014-.009.014-.009.017-.006.017,0,.017v.02l.342.46h0l.009-.006.006,0Z" transform="translate(-74.471 -146.584)" fill="#fff" fill-rule="evenodd"/>
    <path id="Path_420" data-name="Path 420" d="M106.109,201.982l.009-.011.011-.011.009-.012.011-.009.011-.006.014-.009.017-.009.023-.009.259.106.04-.144.011-.158-.009-.161-.014-.167-.011-.164.009-.158.037-.152.078-.141,0-.006v-.026l-.006-.011,0-.012-.006-.011-.006-.009-.009-.011-.011-.009-.011-.012-.011-.009-.017-.009-.017-.009-.02-.009-.02-.009-.333.974-.006.006-.006,0-.009.006h-.006l-.011.006h-.037l-.365-.583-.02-.009-.02-.006-.026-.006-.023-.006h-.049l-.026.006-.02.009-.029-.006-.026-.012-.023-.014-.02-.02-.023-.02-.017-.023-.017-.02-.014-.02-.032.115-.006.109.011.112.026.112.032.115.034.115.029.121.02.121.592.21h0l.006,0,.009-.006.011-.006.009-.006.009-.006.009,0Z" transform="translate(-75.049 -142.971)" fill="#fff" fill-rule="evenodd"/>
    <path id="Path_421" data-name="Path 421" d="M133.377,203.318v-.075l-.115-.1H133.2l-.006.037.009.034.017.029.026.023.026.023.034.02.032.017.034.014v0l0-.006,0-.009Z" transform="translate(-94.917 -144.766)" fill="#fff" fill-rule="evenodd"/>
    <path id="Path_422" data-name="Path 422" d="M101.539,202.668v0l.006-.009v-.006l0-.006-.006-.017-.009-.014-.011-.012-.017-.011-.017-.009-.017-.009-.02-.009-.02-.014.014.011.011.017.009.017.011.017.009.02.014.014.017.014Z" transform="translate(-72.283 -144.346)" fill="#fff" fill-rule="evenodd"/>
    <path id="Path_423" data-name="Path 423" d="M110.366,201.213l.106-.221.011-.006.011-.009.014-.009.014-.009.014-.009.017-.009.014-.011.023-.012.023-.032.017-.04.014-.046.009-.052V200.7l-.006-.049-.011-.043-.014-.034-.014-.02-.011-.017-.014-.014-.011-.017-.011-.009-.006-.009-.006-.006v0h-.078l-.086.408-.009.014-.014,0-.017,0h-.052l-.02,0-.014.009.086.293h.02Z" transform="translate(-78.576 -142.871)" fill="#fff" fill-rule="evenodd"/>
    <path id="Path_424" data-name="Path 424" d="M136.719,201.853l.365-.063-.474.012Z" transform="translate(-97.354 -143.804)" fill="#fff" fill-rule="evenodd"/>
    <path id="Path_425" data-name="Path 425" d="M134.9,199.633h0l.006,0,.009-.006,0,0-.017-.034-.029-.029-.034-.014-.046-.011-.049-.006-.052-.006-.049-.009-.046-.014-.026-.006-.023-.011-.02-.017-.02-.02-.02-.02-.017-.023-.02-.026-.014-.023v-.014l.006-.017.009-.011.012-.012.014-.011.017-.011.017-.009.02-.009.043.02.046.014.049.014.052.006.052,0,.055-.009.052-.02.052-.029-.807-.126-.224.147-.31-.095.132.1.141.086.155.075.161.063.167.052.178.04.184.023Z" transform="translate(-95.202 -141.909)" fill="#fff" fill-rule="evenodd"/>
    <path id="Path_426" data-name="Path 426" d="M112.21,196.279v-.6l.009-.02.014-.02.02-.014.026-.012.026-.009.029-.009.032-.009.037-.011.02-.859h-.009l-.009,0-.011,0-.009-.006-.014-.006-.011,0-.011-.006-.011-.006-.052-.147-.02.555-.026.006-.023,0h-.023l-.02-.006-.023,0-.02-.009-.02-.009-.017-.014-.017.011-.009.011-.011.017-.006.017-.009.02-.006.014-.012.02-.009.014-.009,0L112,195.2l-.009,0-.009.006-.011,0-.011.006-.014,0-.014,0-.138-.043Z" transform="translate(-79.666 -138.638)" fill="#fff" fill-rule="evenodd"/>
    <path id="Path_427" data-name="Path 427" d="M135.415,199.7h.078l.012,0,.014-.006.006-.012.009-.014.006-.014,0-.017,0-.02v-.02l-.006-.009-.006-.012-.012-.006-.009-.009-.017-.006-.012-.006-.017-.009-.017-.009-.023.006-.02.006-.017.009-.012.009-.011.014-.009.017-.009.02-.009.026v.011l0,.009.006.014.009.011.009.012.014.006.014,0Z" transform="translate(-96.449 -142.194)" fill="#000002" fill-rule="evenodd"/>
    <path id="Path_428" data-name="Path 428" d="M139.46,197.785l.25-.092-.04-.017-.04-.006-.043.006-.04.011-.04.02-.034.026-.029.032-.023.032h.006l.006,0,.009,0h.009l.006,0h.006Z" transform="translate(-99.357 -140.868)" fill="#fff" fill-rule="evenodd"/>
    <path id="Path_429" data-name="Path 429" d="M134.34,197.522l.006-.006,0-.006.009-.006.006-.009.009-.009.011-.011.009-.009.014-.009-.006-.017-.011-.011h-.02l-.017.006-.02.012-.017.014-.011.02,0,.02v.009l0,.011.006.006.006,0,.012,0Z" transform="translate(-95.708 -140.697)" fill="#fff" fill-rule="evenodd"/>
    <path id="Path_430" data-name="Path 430" d="M115.592,191.991l.006,0,.009,0,.009,0,.006,0,.009-.006,0,0h0l.109-.178.141-.043.026-.034.023-.04.017-.04.017-.043.02-.037.029-.034.037-.026.055-.014.184.115.063-.052.06-.066.066-.075.066-.08.072-.075.075-.066.083-.055.092-.034.014.006.014,0,.011.011.009.009.009.011.009.014.006.017.006.02-.109.463.655-.523.023,0,.026.009.02.012.023.017.017.02.017.023.014.026.011.026.052,0,.052,0,.049.009.052.017.043.026.046.032.043.037.04.046.032-.006.026-.014.02-.017.023-.023.014-.023.017-.026.017-.026.02-.02.138-.121.132-.132.129-.135.132-.144.132-.138.138-.138.144-.126.152-.115.043-.049.034-.057.023-.06.02-.066.017-.063.02-.069.023-.063.032-.063-.187.046-.184.1-.181.141-.175.167-.175.178-.167.181-.161.167-.155.132h-.046l-.009,0-.011,0-.009,0-.023-.063-.009-.066,0-.069.011-.072.02-.069.026-.072.032-.063.034-.06-.066.006-.075.034-.078.057-.078.069-.078.078-.072.078-.066.072-.057.055h-.063l-.017.006-.014.006-.009.017-.009.017-.011.02-.011.017-.014.014-.017.014-.023.012-.023,0-.026,0-.02-.009-.017-.009-.011-.012-.011-.014-.009-.02-.009-.023,0-.026.106-.408-.02.006-.014.009-.014.014-.009.02-.014.02-.009.02-.014.02-.011.017-.02.017-.02.012-.023,0h-.023l-.029,0-.026,0h-.026l-.029.006-.063.218-.009.006-.009,0-.009.006-.009,0-.011,0-.009.006-.011,0-.011,0h-.009l-.009,0h-.009l-.009,0-.009-.006-.009-.006-.011-.006-.011-.009-.063-.44-.014.011-.011.014-.009.017,0,.017-.006.023-.006.023-.009.026-.009.026-.009.006-.009.009-.011.009-.011.011-.014.014-.011.012-.014.011-.014.011-.052-.006-.034-.023-.026-.029-.02-.034-.023-.034-.023-.037-.029-.026-.04-.02-.152.345,0,0-.009,0H116.2l-.006,0-.011,0-.009,0-.009.006-.009,0-.3-.138-.138.345-.009.009-.009.009-.009.009-.009.006-.011.006-.009,0-.011,0H115.6l-.009-.006-.009,0-.011-.009-.011-.009-.009-.017h-.006v-.006l-.006-.009-.006-.014-.006-.014-.006-.017,0-.014v-.02l-.032.144-.026.144-.017.149-.006.152.006.152.017.152.034.152.055.149h.04Z" transform="translate(-82.268 -135.21)" fill="#fff" fill-rule="evenodd"/>
    <path id="Path_431" data-name="Path 431" d="M132.141,190.024l.029-.006.032-.006h.034l.037,0,.032,0,.034-.006.032-.009.029-.017-.009-.023-.009-.014-.011-.014-.011-.011-.014-.009-.014-.009-.02-.006-.02-.009-.31.02.106.124h.055Z" transform="translate(-94.055 -135.317)" fill="#fff" fill-rule="evenodd"/>
    <path id="Path_432" data-name="Path 432" d="M126.13,187.894h.063l.034-.009.032-.014.029-.02.026-.026.023-.026.02-.026.017-.026.014-.023-.034-.014-.034,0-.034.014-.037.023-.037.032-.034.032-.034.037-.032.032,0,0,.006,0,.009,0Z" transform="translate(-89.871 -133.77)" fill="#fff" fill-rule="evenodd"/>
    <path id="Path_433" data-name="Path 433" d="M70.8,61.846l16.224,38.282,4.658,11.48L82.594,84.851,92.565,107.8l-13.282-36.3,13.739,32.856L81.042,69.846l12.675,31.147L73.4,41.13l-2.6,7.158-2.6-7.158L47.87,100.992,60.545,69.846l-11.98,34.506L62.3,71.495,49.022,107.8l9.971-22.945L49.91,111.607l4.658-11.48L70.792,61.846Z" transform="translate(-34.114 -29.311)" fill="#363435" fill-rule="evenodd"/>
    <path id="Path_434" data-name="Path 434" d="M120.01,9.618l2.152,6.71,2.221-6.7L122.162,0Z" transform="translate(-85.524)" fill="#363435" fill-rule="evenodd"/>
    <path id="Path_435" data-name="Path 435" d="M72.534,321.742H64.727v-11.27h3.555v8.787h4.253ZM57.27,316.1a2.724,2.724,0,0,0-1.118-2.2,4.624,4.624,0,0,0-5.48,0,2.727,2.727,0,0,0,0,4.394,4.624,4.624,0,0,0,5.48,0A2.724,2.724,0,0,0,57.27,316.1Zm3.707,0a5.18,5.18,0,0,1-2.158,4.247,8.537,8.537,0,0,1-5.414,1.69,8.474,8.474,0,0,1-5.4-1.69,5.268,5.268,0,0,1,0-8.491,8.5,8.5,0,0,1,5.4-1.69,8.514,8.514,0,0,1,5.414,1.69A5.182,5.182,0,0,1,60.977,316.1Zm-21.8-1.868a1.193,1.193,0,0,0-.5-1.083,3.018,3.018,0,0,0-1.609-.325H36.02v2.81h1.089a2.989,2.989,0,0,0,1.589-.316,1.2,1.2,0,0,0,.483-1.086Zm3.707-.057q0,3.825-4.81,3.825H36.02v3.736H32.471V310.472h5.422a6.166,6.166,0,0,1,3.7.957,3.221,3.221,0,0,1,1.293,2.75Zm-13.882-3.707L22.6,319.259h5.7v2.483H16.569l6.506-8.79H17.7v-2.48ZM8.856,317.348,7.244,313.44l-1.626,3.908Zm5.626,4.394h-3.81l-.9-2.138H4.7l-.885,2.152H0l5.172-11.27H9.307Z" transform="translate(0 -221.041)" fill="#363435"/>
    <path id="Path_436" data-name="Path 436" d="M246.829,299.317h0a1.19,1.19,0,0,0-.825.333,1.121,1.121,0,0,0-.342.807h0a1.121,1.121,0,0,0,.342.8,1.181,1.181,0,0,0,.828.336h0a1.178,1.178,0,0,0,.825-.336,1.124,1.124,0,0,0,.342-.8h0a1.129,1.129,0,0,0-.342-.8,1.2,1.2,0,0,0-.828-.333m0-.187h0a1.376,1.376,0,0,1,.963.388,1.3,1.3,0,0,1,.4.937h0a1.307,1.307,0,0,1-.4.94,1.377,1.377,0,0,1-.96.388h0a1.368,1.368,0,0,1-.963-.391,1.3,1.3,0,0,1-.4-.937h0a1.3,1.3,0,0,1,.4-.94,1.377,1.377,0,0,1,.96-.388h0Z" transform="translate(-174.933 -213.173)" fill="#363435"/>
    <path id="Path_437" data-name="Path 437" d="M247.926,301.176v.626c.356,0,.534-.112.534-.333a.308.308,0,0,0-.1-.238.365.365,0,0,0-.253-.095.468.468,0,0,0-.178.04m.417.681.359.431a1.35,1.35,0,0,0,.167.178.405.405,0,0,0,.221.1v.04h-.414l-.6-.724h-.149v.425a1.2,1.2,0,0,0,0,.129.132.132,0,0,0,.072.1.353.353,0,0,0,.147.029v.04h-.693v-.04c.118,0,.184-.034.207-.092a.644.644,0,0,0,0-.17v-1.072a.138.138,0,0,0-.066-.1.287.287,0,0,0-.124-.032h-.029v-.04h.736a.759.759,0,0,1,.382.086.348.348,0,0,1,.181.316C248.75,301.656,248.61,301.788,248.342,301.857Z" transform="translate(-176.337 -214.547)" fill="#363435"/>
  </g>
</svg>
