<svg id="Layer_2" data-name="Layer 2" xmlns="http://www.w3.org/2000/svg" width="72" height="101.091" viewBox="0 0 72 101.091">
  <g id="Layer_1" data-name="Layer 1" transform="translate(0 0)">
    <path id="Path_335" data-name="Path 335" d="M312.519,133.848c0-2.968-.007-5.939.008-8.905,0-.406-.064-.577-.525-.655a7.962,7.962,0,0,1-4.027-1.818c-2.247-1.964-2.736-4.458-2.13-7.259.493-2.282,1.341-4.473,1.784-6.771a29.156,29.156,0,0,0,.556-5.166c0-.384.048-.556.512-.554,3.189.024,6.379.011,9.57.013.242,0,.52-.087.518.356a37.3,37.3,0,0,0,2.068,10.884,8.841,8.841,0,0,1,.349,4.77c-.777,3.069-2.893,4.727-5.847,5.467-.868.217-.878.181-.878,1.084,0,5.818.008,11.636-.013,17.446,0,.526.158.623.642.612,1.493-.032,2.988-.012,4.485-.01.772,0,1.082.276,1.091.958s-.325.99-1.063.99h-12.3a.9.9,0,0,1-1.025-.979c0-.636.337-.964,1.028-.97,1.535-.006,3.069-.022,4.606,0,.471.007.613-.115.606-.606-.024-2.968-.012-5.939-.012-8.9Z" transform="translate(-268.564 -90.269)" fill="#fcfcfc"/>
    <path id="Path_336" data-name="Path 336" d="M240.949,123.724V103.431c0-.787.019-.8.815-.635a4.145,4.145,0,0,1,3.328,4.242q.011,6.667,0,13.333v3.21c-.007,1.04-.435,1.488-1.481,1.44-.576-.025-.727.121-.727.714.024,6.061.013,12.115.012,18.173,0,.161.008.324-.007.485a.97.97,0,0,1-.97.9,1,1,0,0,1-.97-.9c-.016-.16,0-.324,0-.485Q240.955,133.811,240.949,123.724Z" transform="translate(-211.737 -90.261)" fill="#fcfcfc"/>
    <path id="Path_337" data-name="Path 337" d="M160.111,132.44c0-3.918-.008-7.834.011-11.752,0-.478-.072-.668-.606-.641a1.2,1.2,0,0,1-1.356-1.333q-.008-7.48,0-14.96c0-.413.081-.8.606-.784s.582.4.582.807V114.5a5.081,5.081,0,0,0,.015.544.525.525,0,0,0,.531.485.513.513,0,0,0,.576-.428,2.748,2.748,0,0,0,.042-.538V103.78a1.52,1.52,0,0,1,.058-.476.517.517,0,0,1,.577-.341.485.485,0,0,1,.485.379,2.291,2.291,0,0,1,.035.541v10.6a3.1,3.1,0,0,0,.022.542.558.558,0,0,0,.585.5.568.568,0,0,0,.566-.531,2.589,2.589,0,0,0,.008-.423v-10.6a3.254,3.254,0,0,1,.017-.544.518.518,0,0,1,.541-.468.5.5,0,0,1,.573.422,6.56,6.56,0,0,1,.051.97V118.47c0,1.175-.376,1.592-1.531,1.576-.5,0-.435.272-.435.566v23.439c0,.182,0,.364-.011.545a.929.929,0,0,1-.9.9.976.976,0,0,1-1.035-.823,3.451,3.451,0,0,1-.021-.606Z" transform="translate(-138.985 -90.482)" fill="#f7f6f6"/>
    <path id="Path_338" data-name="Path 338" d="M99.4,535.164a4.769,4.769,0,0,1,1.6.849,3.483,3.483,0,0,1-1.322,5.848,7.968,7.968,0,0,1-2.39.268c-1.029,0-2.061-.015-3.088.008-.355.009-.485-.062-.485-.454.016-4.158.01-8.315.017-12.473,0-.185-.127-.469.274-.454a37.738,37.738,0,0,1,4.771.121c1.7.274,2.724,1.187,2.851,2.47C101.828,533.354,101.226,534.406,99.4,535.164Zm-4.79,3.314c0,.807.013,1.616-.007,2.424-.008.348.121.461.455.454.928-.015,1.861.042,2.788-.023a3.727,3.727,0,0,0,2.57-.829,2.789,2.789,0,0,0,.576-2.97,2.44,2.44,0,0,0-2.052-1.728,22.747,22.747,0,0,0-3.981-.162c-.316-.01-.354.152-.349.413C94.617,536.862,94.609,537.67,94.609,538.478Zm0-6.276c0,.745.008,1.491,0,2.236,0,.279.081.4.378.389a27.847,27.847,0,0,0,3.5-.121,2.539,2.539,0,0,0,2.291-2.524,2.268,2.268,0,0,0-2-2.518,24.417,24.417,0,0,0-3.861-.1c-.284,0-.307.181-.305.406,0,.742,0,1.488,0,2.234Z" transform="translate(-82.353 -464.649)" fill="#f7f6f6"/>
    <path id="Path_339" data-name="Path 339" d="M257.143,536.086l4.242,6.013a1.23,1.23,0,0,1-1.536-.585c-1.065-1.613-2.219-3.167-3.3-4.767a1.119,1.119,0,0,0-1.177-.594,4.705,4.705,0,0,1-1.028,0c-.372-.034-.485.091-.476.468.021,1.676,0,3.353.016,5.028,0,.364-.055.527-.485.53s-.485-.155-.485-.522q.018-6.182,0-12.364c0-.436.121-.541.541-.519a35.383,35.383,0,0,1,4.227.121,3.4,3.4,0,0,1,3.132,3.381,3.587,3.587,0,0,1-3.076,3.667C257.565,535.987,257.39,536.03,257.143,536.086Zm-3.273-3.615v2.48c0,.171-.052.387.242.379A12.3,12.3,0,0,0,258.12,535a2.393,2.393,0,0,0,1.775-2.482,2.547,2.547,0,0,0-1.945-2.752,16.65,16.65,0,0,0-3.789-.183c-.315-.009-.288.2-.288.406q0,1.238,0,2.479Z" transform="translate(-222.254 -464.675)" fill="#f7f6f6"/>
    <path id="Path_340" data-name="Path 340" d="M340.1,536.13l4.222,5.979c-.788.228-.97.172-1.421-.461-1.183-1.679-2.372-3.351-3.538-5.048a.776.776,0,0,0-.787-.4c-.559.051-1.286-.227-1.64.1-.39.364-.121,1.105-.121,1.681-.022,1.251-.015,2.5,0,3.758,0,.349-.067.485-.459.485s-.452-.135-.451-.485c.012-4.141.006-8.281.008-12.421,0-.215-.115-.5.312-.485a34.14,34.14,0,0,1,4.591.136,3.521,3.521,0,0,1,2.453,5.37,3.966,3.966,0,0,1-2.5,1.653C340.582,536.033,340.385,536.071,340.1,536.13Zm-3.3-3.611v2.424c0,.282.044.456.393.445a18.54,18.54,0,0,0,3.2-.135c1.568-.321,2.582-1.1,2.441-3.053a2.587,2.587,0,0,0-2.644-2.509c-.97-.053-1.939-.032-2.9-.067-.364-.013-.5.095-.485.475C336.824,530.9,336.807,531.712,336.806,532.519Z" transform="translate(-295.188 -464.722)" fill="#f7f6f6"/>
    <path id="Path_341" data-name="Path 341" d="M177.433,535.523c0-2.039.015-4.079-.011-6.118-.006-.485.148-.593.612-.587,2.2.024,4.4.011,6.6.007.265,0,.5-.049.5.378s-.215.429-.521.429c-1.9,0-3.8.007-5.7-.012-.435,0-.6.093-.588.567.034,1.372.025,2.747,0,4.121,0,.4.113.519.513.514,1.594-.021,3.19-.006,4.785-.012.3,0,.522-.014.531.423.008.478-.265.4-.541.4-1.555,0-3.11.018-4.664-.014-.516-.011-.639.158-.628.651q.047,2.271,0,4.543c-.008.464.1.63.6.622,1.9-.029,3.8-.008,5.7-.012.295,0,.527-.035.521.413s-.255.364-.508.37c-2.242,0-4.485-.01-6.725.011-.408,0-.495-.121-.492-.509.019-2.061.01-4.121.01-6.182Z" transform="translate(-155.914 -464.719)" fill="#f7f6f6"/>
    <path id="Path_342" data-name="Path 342" d="M412.436,535.666c1.137-1.728,2.229-3.394,3.322-5.051a9.434,9.434,0,0,0,.755-1.16,1.1,1.1,0,0,1,1.492-.606c-1.627,2.4-3.242,4.8-4.87,7.182a1.647,1.647,0,0,0-.312,1c.018,1.533.008,3.067.007,4.606,0,.265.09.555-.388.548-.417,0-.485-.159-.478-.53.018-1.533,0-3.067.011-4.606a1.682,1.682,0,0,0-.3-1.006c-1.554-2.3-3.091-4.606-4.633-6.909-.053-.08-.1-.167-.162-.278a1.094,1.094,0,0,1,1.412.532C409.627,531.471,411.016,533.525,412.436,535.666Z" transform="translate(-357.561 -464.677)" fill="#f7f6f6"/>
    <path id="Path_343" data-name="Path 343" d="M419.069,688.117v4.2c0,.139.023.335-.156.341-.212.008-.144-.2-.144-.326q-.007-2.238,0-4.478c0-.129-.075-.31.092-.377.208-.084.328.081.444.227q.876,1.117,1.756,2.234l1.736,2.214v-4.444c0-.131.031-.252.19-.242.121.011.141.121.141.229v.544c0,1.291,0,2.582-.008,3.873,0,.183.128.442-.121.537s-.335-.172-.451-.32q-1.664-2.113-3.318-4.233Z" transform="translate(-367.993 -604.126)" fill="#f7f6f6"/>
    <path id="Path_344" data-name="Path 344" d="M95.85,690.231c.565.8,1.081,1.539,1.611,2.293-.327.171-.429-.068-.547-.234-.423-.588-.868-1.164-1.245-1.782-.262-.428-.638-.308-.96-.262-.288.042-.136.364-.144.56-.023.485,0,.97-.011,1.455,0,.127.055.315-.167.315-.16,0-.167-.142-.167-.267v-4.658c0-.264.161-.29.364-.285.442.012.888,0,1.333.045.857.079,1.269.457,1.352,1.188a1.293,1.293,0,0,1-1.059,1.519C96.1,690.153,96.012,690.182,95.85,690.231Zm-.485-2.572c-.812,0-.812,0-.813.832v.3c0,1.3.084,1.364,1.385,1.1.059-.011.121-.019.177-.035a1.052,1.052,0,0,0,.794-1.383c-.158-.607-.533-.8-1.538-.808Z" transform="translate(-82.799 -604.049)" fill="#f7f6f6"/>
    <path id="Path_345" data-name="Path 345" d="M243.09,692.295c-.025.035-.05.1-.091.121a.2.2,0,0,1-.242-.121c-.141-.312-.291-.621-.4-.944a.475.475,0,0,0-.532-.364c-.7.019-1.412.033-2.116,0a.662.662,0,0,0-.785.531,5.877,5.877,0,0,1-.338.772.186.186,0,0,1-.242.121c-.114-.053-.076-.16-.034-.258.68-1.568,1.352-3.139,2.04-4.7.165-.376.469-.364.622-.034.714,1.576,1.389,3.168,2.076,4.756A.9.9,0,0,1,243.09,692.295Zm-3.808-1.6h2.432c.242,0,.332-.078.223-.326-.408-.925-.808-1.853-1.268-2.909Z" transform="translate(-209.385 -603.874)" fill="#f7f6f6"/>
    <path id="Path_346" data-name="Path 346" d="M374.494,692.591a.275.275,0,0,1-.327-.27c-.2-1.108-.937-1.3-1.892-1.147a.605.605,0,0,1-.181,0c-.988-.15-1.783.013-1.992,1.183-.023.128-.108.315-.284.222s-.03-.242.021-.364l1.939-4.493c.074-.173.136-.338.364-.343s.3.165.372.333q.969,2.247,1.939,4.495C374.5,692.327,374.626,692.475,374.494,692.591Zm-2.354-4.952c-.442,1.026-.849,1.964-1.251,2.9-.093.215-.074.341.206.338.705-.007,1.411,0,2.115,0,.21,0,.3-.064.2-.287-.415-.955-.824-1.914-1.27-2.951Z" transform="translate(-324.918 -604.06)" fill="#f7f6f6"/>
    <path id="Path_347" data-name="Path 347" d="M337.425,690.209c.474.675.919,1.3,1.35,1.928.08.121.314.261.136.394s-.314-.093-.413-.234c-.419-.592-.836-1.185-1.244-1.785a.689.689,0,0,0-.585-.332c-.464-.034-.6.121-.562.572.04.5.007,1.01,0,1.514,0,.121,0,.274-.159.276s-.142-.164-.142-.275q0-2.3-.006-4.606c0-.282.131-.341.37-.33.444.021.89,0,1.333.049a1.315,1.315,0,0,1,1.343,1.221,1.354,1.354,0,0,1-1.059,1.484C337.694,690.12,337.6,690.151,337.425,690.209ZM337,687.634c-.885-.006-.885-.006-.887.882v.3c0,1.219.1,1.3,1.333,1.061.784-.153,1.072-.462,1.058-1.136C338.5,687.954,338.073,687.64,337,687.634Z" transform="translate(-295.097 -604.017)" fill="#f7f6f6"/>
    <path id="Path_348" data-name="Path 348" d="M291.466,689.6a10.765,10.765,0,0,1-.063,1.713,1.926,1.926,0,0,1-2.224,1.587,1.855,1.855,0,0,1-1.978-1.657,28.434,28.434,0,0,1-.067-3.326c0-.121-.008-.27.148-.286.222-.022.184.164.184.3,0,.97-.019,1.939.015,2.909a1.792,1.792,0,0,0,2.453,1.7,1.725,1.725,0,0,0,1.184-1.714c.024-.929,0-1.858.015-2.788,0-.143-.088-.383.147-.4.305-.015.176.261.181.411C291.466,688.528,291.466,689.013,291.466,689.6Z" transform="translate(-252.314 -604.277)" fill="#f7f6f6"/>
    <path id="Path_349" data-name="Path 349" d="M134.668,690.016c-.52,0-1.042.033-1.558-.01s-.777.086-.693.668c.076.531-.228,1.249.128,1.555.3.263,1,.068,1.52.086a3.836,3.836,0,0,1,1.033.057c-.063.258-.2.242-.313.242-.766,0-1.533,0-2.3.011-.31.006-.417-.11-.413-.425q.023-2.21.008-4.416c0-.271.045-.41.355-.4.766.016,1.532,0,2.3,0,.127,0,.326-.039.3.177-.017.154-.19.114-.3.121-.645,0-1.291.013-1.939,0-.28-.007-.364.072-.383.364-.084,1.7-.093,1.7,1.576,1.709.222,0,.469-.079.668.076Z" transform="translate(-116.061 -604.059)" fill="#f7f6f6"/>
    <path id="Path_350" data-name="Path 350" d="M167.5,686.8c.268.068.863-.082.836.235-.03.364-.515-.053-.807.023-.229.059-.478.041-.71.089a.858.858,0,0,0-.754.681.878.878,0,0,0,.433.981c.4.256.848.451,1.27.682a1.385,1.385,0,0,1,.849,1.567,1.429,1.429,0,0,1-1.415,1.1,3.09,3.09,0,0,1-1.256-.085c-.121-.04-.242-.074-.184-.236.052-.138.172-.067.258-.046a2.522,2.522,0,0,0,1.543-.012,1.022,1.022,0,0,0,.727-.807.982.982,0,0,0-.45-1.044,10.54,10.54,0,0,0-1-.547c-.942-.478-1.256-.944-1.1-1.65C165.873,687.133,166.5,686.795,167.5,686.8Z" transform="translate(-145.615 -603.551)" fill="#f7f6f6"/>
    <path id="Path_351" data-name="Path 351" d="M466.216,690.161v2.061c0,.121.074.332-.114.349-.235.022-.2-.2-.2-.354,0-1.333-.022-2.667.012-4,.012-.462-.121-.606-.573-.565a10.079,10.079,0,0,1-1.149,0c-.11,0-.274.049-.29-.121s.132-.171.256-.171h3.813c.121,0,.276-.008.279.152s-.165.138-.274.139c-.444.006-.888.025-1.333,0-.364-.023-.444.121-.433.451C466.229,688.787,466.216,689.475,466.216,690.161Z" transform="translate(-407.67 -604.043)" fill="#f7f6f6"/>
    <path id="Path_352" data-name="Path 352" d="M199.274,690.079c0-.686-.016-1.373.006-2.061.011-.324-.1-.424-.412-.409-.444.022-.888.009-1.333,0-.107,0-.28.052-.291-.121-.016-.216.182-.173.308-.173h3.758c.121,0,.275,0,.282.152.008.177-.158.143-.27.143a11.307,11.307,0,0,1-1.27,0c-.408-.041-.464.14-.461.485.015,1.333.011,2.667.006,4,0,.162.085.44-.178.43s-.135-.291-.138-.441c-.018-.667-.008-1.333-.008-2Z" transform="translate(-173.334 -604.002)" fill="#f7f6f6"/>
    <path id="Path_353" data-name="Path 353" d="M101.063,588.477c0-.807.008-1.616,0-2.424,0-.262.033-.423.349-.413a22.837,22.837,0,0,1,3.981.162,2.441,2.441,0,0,1,2.052,1.729,2.789,2.789,0,0,1-.576,2.97,3.747,3.747,0,0,1-2.57.829c-.91.064-1.857.008-2.788.023-.336,0-.463-.107-.455-.455C101.077,590.092,101.063,589.284,101.063,588.477Z" transform="translate(-88.807 -514.648)" fill="#363435"/>
    <path id="Path_354" data-name="Path 354" d="M.011,50.545q0-25-.011-49.989C0,.1.1,0,.556,0Q36,.021,71.444,0C71.9,0,72,.1,72,.556q-.018,49.989,0,99.978c0,.455-.1.556-.556.556q-35.444-.019-70.887,0c-.455,0-.556-.1-.556-.556Q.021,75.541.011,50.545Zm43.944-6.966h0c0,2.967-.012,5.939.012,8.9,0,.485-.138.606-.606.606-1.535-.028-3.069-.012-4.606,0-.691,0-1.029.328-1.028.97a.9.9,0,0,0,1.025.979h12.3c.738,0,1.069-.31,1.063-.99s-.316-.956-1.091-.958c-1.495,0-2.989-.022-4.485.01-.485.011-.644-.086-.642-.612.022-5.818.013-11.63.013-17.446,0-.9.01-.867.878-1.084,2.954-.738,5.07-2.4,5.847-5.467a8.8,8.8,0,0,0-.349-4.77,37.277,37.277,0,0,1-2.068-10.884c0-.444-.274-.356-.518-.356-3.19,0-6.381.011-9.57-.013-.463,0-.507.17-.512.554a29.16,29.16,0,0,1-.556,5.166c-.444,2.3-1.291,4.485-1.784,6.771-.606,2.8-.121,5.3,2.13,7.259a8,8,0,0,0,4.027,1.818c.461.078.527.242.525.655C43.948,37.642,43.955,40.606,43.955,43.579ZM29.218,33.463V53.635c0,.161-.011.325,0,.485a1,1,0,0,0,.97.9.97.97,0,0,0,.97-.9c.016-.16.007-.322.007-.485,0-6.061.012-12.115-.012-18.173,0-.6.154-.739.727-.714,1.046.048,1.474-.4,1.481-1.44.007-1.07,0-2.139,0-3.21V16.775a4.144,4.144,0,0,0-3.328-4.242c-.8-.166-.815-.152-.815.635Q29.212,23.318,29.218,33.463Zm-8.092,8.495V53.587a3.452,3.452,0,0,0,.021.606.98.98,0,0,0,1.035.823.929.929,0,0,0,.9-.9c.016-.181.011-.364.011-.545V30.13c0-.295-.065-.571.435-.566,1.155.011,1.53-.406,1.531-1.576V13.875a6.556,6.556,0,0,0-.051-.97.5.5,0,0,0-.573-.422.518.518,0,0,0-.541.468,3.258,3.258,0,0,0-.017.544V24.1a2.591,2.591,0,0,1-.008.423.572.572,0,0,1-.566.531.558.558,0,0,1-.585-.5A3.1,3.1,0,0,1,22.691,24V13.4a2.29,2.29,0,0,0-.035-.541.485.485,0,0,0-.485-.379.519.519,0,0,0-.577.341,1.52,1.52,0,0,0-.058.476V24.081a2.749,2.749,0,0,1-.042.538.513.513,0,0,1-.576.428.525.525,0,0,1-.531-.485,5.083,5.083,0,0,1-.015-.544V13.3c0-.411-.052-.8-.582-.807s-.606.371-.606.784v14.96a1.2,1.2,0,0,0,1.356,1.333c.537-.027.606.164.606.641C21.118,34.124,21.126,38.04,21.126,41.958Zm-4.08,28.558c1.827-.758,2.424-1.81,2.232-3.821-.121-1.284-1.15-2.2-2.851-2.47a39.647,39.647,0,0,0-4.771-.121c-.4-.015-.274.269-.274.455-.007,4.158,0,8.315-.017,12.473,0,.393.121.463.485.455,1.029-.023,2.061-.008,3.088-.008a7.855,7.855,0,0,0,2.39-.268,3.484,3.484,0,0,0,1.322-5.848A4.878,4.878,0,0,0,17.046,70.515Zm17.842.9c.242-.056.422-.1.6-.136a3.582,3.582,0,0,0,3.076-3.667,3.4,3.4,0,0,0-3.132-3.381,34.4,34.4,0,0,0-4.227-.121c-.415-.022-.542.082-.541.519q.025,6.182,0,12.364c0,.364.056.525.485.522s.485-.162.485-.53c-.017-1.675,0-3.352-.016-5.028,0-.377.1-.5.476-.468a4.7,4.7,0,0,0,1.028,0,1.119,1.119,0,0,1,1.177.594c1.085,1.6,2.239,3.152,3.3,4.767a1.229,1.229,0,0,0,1.536.585Zm10.028,0c.281-.059.478-.1.672-.144a3.965,3.965,0,0,0,2.5-1.653,3.521,3.521,0,0,0-2.453-5.37,34.139,34.139,0,0,0-4.592-.136c-.427-.018-.31.27-.312.485q0,6.209-.008,12.421c0,.353.055.485.451.485s.464-.132.459-.485c-.017-1.251-.024-2.5,0-3.758.01-.576-.264-1.318.121-1.681.354-.33,1.081-.052,1.64-.1a.777.777,0,0,1,.787.4c1.166,1.7,2.355,3.366,3.538,5.045.446.633.633.688,1.421.461ZM21.522,70.8h0c0,2.061.01,4.121-.01,6.182,0,.385.084.513.492.509,2.241-.021,4.485-.011,6.725-.011.253,0,.5.065.508-.37s-.227-.415-.521-.413c-1.9,0-3.8-.017-5.7.012-.5.008-.606-.158-.6-.622q.04-2.271,0-4.543c-.011-.493.112-.662.628-.651,1.554.033,3.109.013,4.664.015.275,0,.549.081.541-.4-.008-.438-.228-.424-.531-.423-1.6,0-3.192-.008-4.785.012-.4,0-.519-.121-.513-.514.022-1.373.03-2.748,0-4.121-.011-.474.153-.572.588-.567,1.9.019,3.8,0,5.7.012.307,0,.525.007.521-.429s-.235-.378-.5-.378c-2.2,0-4.4.017-6.6-.007-.464-.006-.618.1-.612.587.018,2.038,0,4.078,0,6.116Zm33.356.185c-1.424-2.142-2.813-4.2-4.148-6.28a1.094,1.094,0,0,0-1.412-.532c.064.11.109.2.162.278,1.542,2.3,3.079,4.613,4.633,6.909a1.681,1.681,0,0,1,.3,1.006c-.015,1.533.007,3.067-.011,4.606,0,.371.061.524.478.53.478.007.387-.282.388-.548,0-1.535.011-3.068-.007-4.606a1.647,1.647,0,0,1,.312-1c1.628-2.385,3.244-4.779,4.87-7.182a1.108,1.108,0,0,0-1.492.606,9.45,9.45,0,0,1-.755,1.16c-1.093,1.664-2.185,3.326-3.322,5.055Zm-3.8,13,.159-.018q1.658,2.118,3.318,4.233c.121.148.2.412.451.32s.121-.354.121-.537c.011-1.291.008-2.582.008-3.873v-.544c0-.108-.017-.218-.141-.229-.159-.013-.19.108-.19.242v4.44l-1.736-2.215-1.756-2.234c-.115-.145-.235-.31-.444-.227-.167.067-.092.242-.092.377q-.011,2.238,0,4.478c0,.121-.068.335.144.326.179-.006.156-.2.156-.341v-4.2Zm-38.024,2.19c.161-.053.255-.082.347-.115a1.293,1.293,0,0,0,1.059-1.519c-.082-.727-.495-1.109-1.352-1.188-.44-.041-.886-.033-1.333-.045-.2,0-.364.021-.364.285v4.658c0,.121.007.265.167.267.222,0,.165-.188.167-.315,0-.485-.012-.97.011-1.455.008-.194-.144-.518.144-.56.322-.046.7-.166.96.262.377.618.822,1.194,1.245,1.782.121.166.219.4.547.234C14.132,87.726,13.616,86.989,13.051,86.182ZM33.7,88.416c-.019-.057-.028-.1-.045-.132C32.972,86.7,32.3,85.1,31.583,83.527c-.153-.336-.457-.342-.622.034-.688,1.565-1.36,3.136-2.04,4.7-.042.1-.08.2.034.258A.185.185,0,0,0,29.2,88.4a5.872,5.872,0,0,0,.338-.772.66.66,0,0,1,.785-.531c.7.039,1.412.025,2.116,0a.465.465,0,0,1,.532.364c.109.324.259.633.4.944a.2.2,0,0,0,.242.121c.042,0,.067-.073.092-.108Zm15.879.11c.131-.121.007-.264-.046-.387q-.962-2.249-1.939-4.495c-.073-.168-.142-.337-.372-.333s-.291.17-.364.343Q45.9,85.9,44.922,88.148c-.051.121-.2.273-.021.364s.261-.093.284-.222c.208-1.17,1-1.333,1.992-1.183a.605.605,0,0,0,.181,0c.955-.153,1.7.039,1.892,1.147.022.13.068.3.326.278Zm-7.248-2.339c.173-.058.269-.088.364-.121a1.345,1.345,0,0,0,1.059-1.484,1.3,1.3,0,0,0-1.343-1.221c-.44-.045-.886-.028-1.333-.049-.242-.011-.372.047-.37.33.01,1.533,0,3.068.006,4.606,0,.112-.03.278.142.275.154,0,.158-.155.159-.276,0-.5.035-1.012,0-1.514-.036-.451.1-.606.562-.572a.69.69,0,0,1,.585.332c.407.6.824,1.194,1.244,1.785.1.141.222.378.413.234s-.065-.27-.144-.392c-.432-.633-.876-1.255-1.35-1.93Zm-3.183-.867c0-.584.011-1.069-.006-1.553,0-.15.121-.425-.181-.411-.235.012-.145.252-.147.4-.01.928.01,1.858-.015,2.788a1.721,1.721,0,0,1-1.184,1.714,1.792,1.792,0,0,1-2.453-1.7c-.034-.97-.01-1.939-.015-2.909,0-.132.038-.318-.184-.3-.156.016-.15.164-.148.286a28.442,28.442,0,0,0,.067,3.326,1.854,1.854,0,0,0,1.978,1.657,1.926,1.926,0,0,0,2.224-1.587A12.435,12.435,0,0,0,39.152,85.32Zm-20.538.636v-.19c-.2-.155-.446-.075-.668-.076-1.673-.008-1.663,0-1.576-1.709.015-.3.1-.376.383-.364.645.016,1.291.007,1.939,0,.112,0,.285.039.3-.121.023-.216-.176-.176-.3-.177-.766,0-1.532.011-2.3,0-.31,0-.356.132-.355.4q.015,2.207-.008,4.416c0,.315.1.432.413.425.766-.013,1.533,0,2.3-.011.121,0,.25.019.313-.242a3.835,3.835,0,0,0-1.033-.057c-.522-.018-1.212.177-1.52-.086-.356-.307-.052-1.024-.128-1.555-.084-.582.17-.71.693-.668s1.022.012,1.542.012Zm3.273-2.708c-1,0-1.624.333-1.759.928-.158.705.156,1.172,1.1,1.65a10.512,10.512,0,0,1,1,.547.982.982,0,0,1,.45,1.044,1.018,1.018,0,0,1-.727.807,2.513,2.513,0,0,1-1.543.012c-.086-.021-.206-.092-.258.046-.062.162.065.2.184.236a3.076,3.076,0,0,0,1.256.085A1.43,1.43,0,0,0,23,87.507a1.391,1.391,0,0,0-.848-1.567c-.422-.232-.865-.427-1.27-.682a.878.878,0,0,1-.433-.981A.858.858,0,0,1,21.2,83.6c.233-.047.485-.029.71-.088.292-.076.777.339.807-.023.023-.318-.572-.167-.84-.235Zm36.659,2.869c0-.686.016-1.373-.006-2.061-.011-.333.074-.474.433-.451.442.029.887.01,1.333,0,.109,0,.278.036.274-.139s-.162-.152-.279-.152H56.487c-.121,0-.27,0-.256.171s.179.121.29.121a10.087,10.087,0,0,0,1.149,0c.453-.046.585.1.573.565-.034,1.333-.015,2.667-.012,4,0,.153-.035.376.2.354.188-.017.113-.224.114-.349Q58.545,87.146,58.545,86.118Zm-32.606-.04h0c0,.667-.01,1.333.008,2,0,.15-.131.432.138.441s.177-.268.178-.43c0-1.333.008-2.667-.006-4,0-.342.052-.522.461-.485a11.38,11.38,0,0,0,1.27,0c.113,0,.279.034.27-.143-.007-.153-.16-.152-.282-.152H24.219c-.121,0-.324-.042-.308.173.011.168.184.115.291.121.444.007.888.021,1.333,0,.314-.016.423.085.412.408C25.927,84.7,25.939,85.392,25.939,86.078Z" transform="translate(0 0)" fill="#363435"/>
    <path id="Path_355" data-name="Path 355" d="M101.09,537.974v-2.236c0-.226.022-.411.305-.406a24.7,24.7,0,0,1,3.861.1,2.268,2.268,0,0,1,2,2.518,2.542,2.542,0,0,1-2.291,2.524,26.962,26.962,0,0,1-3.5.121c-.3.008-.383-.11-.378-.389C101.1,539.464,101.09,538.719,101.09,537.974Z" transform="translate(-88.835 -470.421)" fill="#363435"/>
    <path id="Path_356" data-name="Path 356" d="M260.837,538.284v-2.479c0-.2-.027-.415.288-.406a16.649,16.649,0,0,1,3.789.183,2.551,2.551,0,0,1,1.945,2.752,2.4,2.4,0,0,1-1.775,2.482,12.3,12.3,0,0,1-4.007.327c-.293.007-.242-.208-.242-.379C260.834,539.942,260.835,539.111,260.837,538.284Z" transform="translate(-229.216 -470.488)" fill="#363435"/>
    <path id="Path_357" data-name="Path 357" d="M343.287,538.3c0-.807.018-1.615-.007-2.424-.012-.381.121-.485.485-.475.97.035,1.939.013,2.9.067a2.587,2.587,0,0,1,2.644,2.509c.141,1.955-.873,2.732-2.441,3.053a18.527,18.527,0,0,1-3.2.135c-.349.011-.4-.162-.393-.445C343.293,539.92,343.287,539.114,343.287,538.3Z" transform="translate(-301.669 -470.507)" fill="#363435"/>
    <path id="Path_358" data-name="Path 358" d="M97.813,689.817c1.008,0,1.381.2,1.544.813a1.048,1.048,0,0,1-.794,1.383c-.057.016-.121.024-.177.035-1.3.264-1.387.2-1.387-1.1v-.3C97,689.813,97,689.813,97.813,689.817Z" transform="translate(-85.242 -606.202)" fill="#363435"/>
    <path id="Path_359" data-name="Path 359" d="M246.64,692.808l1.387-3.238c.459,1.059.859,1.988,1.268,2.909.109.242.023.327-.223.326Z" transform="translate(-216.744 -605.986)" fill="#363435"/>
    <path id="Path_360" data-name="Path 360" d="M380.156,689.53c.446,1.038.856,2,1.272,2.952.1.223.008.288-.2.287-.7,0-1.41-.007-2.115,0-.28,0-.3-.121-.206-.338C379.31,691.494,379.714,690.557,380.156,689.53Z" transform="translate(-332.933 -605.951)" fill="#363435"/>
    <path id="Path_361" data-name="Path 361" d="M339.335,689.834c1.07,0,1.5.32,1.512,1.109.013.674-.274.983-1.058,1.136-1.235.242-1.333.159-1.333-1.061v-.3C338.45,689.828,338.45,689.828,339.335,689.834Z" transform="translate(-297.43 -606.217)" fill="#363435"/>
  </g>
</svg>
