<svg xmlns="http://www.w3.org/2000/svg" width="122" height="52.99" viewBox="0 0 122 52.99">
  <g id="Layer_2" data-name="Layer 2" transform="translate(0 -0.001)">
    <g id="Layer_1" data-name="Layer 1" transform="translate(0 0.002)">
      <path id="Path_314" data-name="Path 314" d="M213.305,10l.229.239.476-.155-.57-.419Zm-.38,3.3.168-.063c-.138-.308.285-.6.516-.713l-.237-.147C212.813,12.514,212.8,12.854,212.926,13.294Zm1.56-1.661-.065.4-.191.419.078.145.178.26.279-.124a4.226,4.226,0,0,1-.027-1.453l-.092-.021Zm6.453.516.061.713a6.533,6.533,0,0,0,.9-1.468,1.489,1.489,0,0,0-.078-.4Zm-9.712-2.476.344.979c.551.04,1.132.489,1.4-.063l-.021-.052a1.427,1.427,0,0,1-1.447-.95Zm9.957,5.407c.629-.285,1.019-1.43,1.281-2.059l-.172-.27a6.223,6.223,0,0,0-1.113,2.329Zm-6.655-5.37.224.27.21.086.317-.113c.889-.268.057-1.629-.373-1.872l-.055.055c-.048.4.172.237.3.639C215.366,9.409,215.027,9.505,214.53,9.711Zm-1.495-.147-.13.5.384.486h.241l1.008-.321-.086-.241c-.564-.229-.767-.711-1.317-.9Zm6.347,6.774.489-.312h-.063l-1.1-2.606.057-.021C218.027,13.43,219.082,15.936,219.382,16.338Zm.7-5.8a8.439,8.439,0,0,0,.132,1.176c.025.325-.113.939-.113,1.306v.055a1.612,1.612,0,0,0,.235.971,1.623,1.623,0,0,0,.382-.971V11.935a5,5,0,0,0-.285-1.451Zm.159,5.183c.677.01.874-1.3,1.076-1.795A20.4,20.4,0,0,1,222.4,12.08l-.185-.178C221.5,12.147,220.134,15.118,220.243,15.726Zm-1.306-4.4c.021.153.264.665.314.948a8.406,8.406,0,0,1,.126,1.189,3.976,3.976,0,0,0,.6,1.983c.279-.8-.04-3.627-.725-4.21Zm.763,6.537c.839.048,1.382-.805,1.979-1.239a5.519,5.519,0,0,0,1.539-1.677l-.312-.185s-1.237,1.313-1.587,1.568-1.654,1.183-1.625,1.537Zm-1.524.612c.564.09,1.094-.793,1.365-1.094a8.88,8.88,0,0,1,1.4-1.149c.468-.365,2.606-2.342,2-2.916-.283-.266-.719,1.071-.962,1.413a4.5,4.5,0,0,1-1.312,1.239c-.528.365-2.635,1.841-2.493,2.512Zm-32.886,1.7v.055c.862.459,1.726,1.258,2.726,1.765a22.924,22.924,0,0,0,3.145,1.365,34.323,34.323,0,0,0,3.527.992,39.6,39.6,0,0,0,17.66-.468,37.43,37.43,0,0,0,6.89-2.363c5.028-2.436,6.877-3.866,10.353-8.11V13.3c-1,.786-1.923,1.849-3.088,2.726a30.491,30.491,0,0,1-3.564,2.25l.432-1.015-.161-.075-1.2,1.7-.13-.086,1.271-2.013-.21-.21-2.252,2.965-.21-.157,2.552-3.292-.13-.094c-.027.013-1.767,1.784-1.958,1.983-.583.608-1.025,2.027-1.887,2.134L219,20.07l1.564-2.015c-.671,0-1.216.824-1.64,1.287-.7.765-.543.964-1.505,1.43.084-1,1.845-1.887,1.853-2.346-2.136.5-2.246,2.4-2.975,2.726,0-1.614,1.627-2.591,1.627-3.273-1.3.342-2.128,2.4-2.43,3.529l-.629.161a5.961,5.961,0,0,1,2.162-3.248,4.193,4.193,0,0,0,1.258-1.442,2.536,2.536,0,0,0-.063-2.2c-.524.187-.109,1.39-.453,2.239-.294.725-.9.956-1.445,1.487a6.156,6.156,0,0,0-2.183,3.39l-.556.115a9.682,9.682,0,0,1,1.308-2.384c.252-.325,1.788-1.583,1.579-1.918l-.589.3c-.273-.224.723-1.111.763-1.772s.7-1.3.95-1.887c.472-1.094.849-.541.56-2.053-.3-1.549-1.109-1.147-1.858-1.411-.017-.075.34-.509.419-.738a6.339,6.339,0,0,0,.174-1.122c.113-1,.21-.8.979-1.348.21-.153.69.782,1.887.2.539-.266,1.224-.87,1.233-1.457-.6.1-1.642.805-1.677-.551a12.785,12.785,0,0,1,.4-2.4c1.218-5.183-6.888-3.866-5.527.369A7.67,7.67,0,0,0,209.764.158a5.659,5.659,0,0,0-5.736,2.269c-.493.774-.252.86-.461,1.516-.05.159-.723.734-.958,1.088a11.429,11.429,0,0,0-1.3,2.776c-.262.753.084.925-.692,1.346a4.936,4.936,0,0,0-1.092.958,12.421,12.421,0,0,0-1.317,2.646c-.95-.029-.992-.648-1.539-1.2-1.258,1.7,1.162,2.516,1.575,3.061a7.712,7.712,0,0,0,.331,1.805c.134.363.591,1.2.438,1.524a13.727,13.727,0,0,0-.535,1.614c-.335.99-.379.7-.872,1.325.023.419.937,2.331.21,2.6-.335-.021-1.281-2.4-2.675-2.6l-.073.059,1.971,2.34-.122.1c-.57,0-.874-.736-1.277-1.1a4.525,4.525,0,0,0-1.539-.86l-.1.107,1.866,1.661-.073.078c-.516.04-1.258-.918-1.776-1.21a5.447,5.447,0,0,0-2.338-.656c-.184.447.071.268.581.4a6.6,6.6,0,0,1,.874.3c.294.128,1.258.656,1.331.99-.656.057-1.8-1.235-2.365-.824l-.052.073.556.382a23.428,23.428,0,0,1-3.864-1.048C187.632,21.307,186.169,20.433,185.29,20.171ZM216.279.647c1.424-.839,2.162,1.107,1.478,1.631a2.516,2.516,0,0,0-.535-1.073C216.975.871,216.679.878,216.279.647Zm-10.517.822c.489-.57,3-1.214,3.179-.407.2.9.956,2.529.21,3.29-.151-.26-.071-1.109-.361-1.887A13.668,13.668,0,0,0,207.621.84a.325.325,0,0,0-.17-.086,7.549,7.549,0,0,1,.86,1.814L206.72.951l-.191.071,1.216,1.6Zm4.873.419-.558,3.52c-.535-.493.044-1.677-.193-2.306-.185-.495-.149-.711-.338-1.21-.136-.361-.5-.753-.482-1.048A2.1,2.1,0,0,1,211.349,2.6c.05.585.017,3.017-.736,3.118,0,0,.331-1.468.342-1.8a5.652,5.652,0,0,0-.321-2.025ZM218.321.75l.365.176c.1.6.1,1.847-.608,2.113l-.14-.344c.419-.327.407-1.472.384-1.935Zm-.816,3.415c.459-.658-1.956-1.809-2.786-1.577.117-.593.95-.493,1.354-.379a2.151,2.151,0,0,1,.736.27,2.051,2.051,0,0,0,.654.39c-.1-.969-1.975-1.166-2.256-1.327.3-1.029,1.744-.111,2.21.382a5.565,5.565,0,0,1,.195,2.8,3.06,3.06,0,0,0-1.365-.971c-.556-.266-1.39-.017-1.606-.335.505-.361,1.3-.107,1.633-.036a5.228,5.228,0,0,1,1.231.8Zm1.48-2.612a2.027,2.027,0,0,1,.289,1.407,1.79,1.79,0,0,1-1.019,1.214l-.134-.31A2.517,2.517,0,0,0,218.985,1.553Zm-7.428,4.319-.12-.168a4.79,4.79,0,0,0,.21-2.786c-.029-.21-.226-1.032-.224-1.048l.956.824c-.069.524.046,1.132-.025,1.721C212.316,4.719,211.857,5.784,211.557,5.872Zm-6.032-4.29A5.6,5.6,0,0,1,207.3,2.97l-.034.061-2.558-.61Zm1.552,2.061a3.594,3.594,0,0,0-2.862.585c-.262-.252.2-1.382.419-1.652.556.126,2.252.57,2.443,1.067Zm12.142-.21c.359.514-.566,1.438-.868,1.782l-.157-.109V4.752a3.893,3.893,0,0,0,1.025-1.319Zm-5.965.981c-.18.14-.229.7-.629.816a8.861,8.861,0,0,0,.082-1.747l.224.086Zm3.984.314c.587.283.4.593.361,1.082-.013.132-.111,1.126-.12,1.143-.547-.663-1.052-2.55-2.266-2.153l-.333-.449a2.7,2.7,0,0,1,2.361.377Zm-12.049,2.42c-.239-.055-1.709-2.516-.667-2.881.732-.258,2.428-.367,2.715.4-.344.13-1.048-.319-1.805.193-.187.126-.916.99-.639,1.344.359-.182.547-.715.975-.941.319-.166,1.258-.314,1.237.185C205.554,5.224,205.468,6.841,205.187,7.149Zm13.9-2.474c-.063.629-.224,2.9,1.115,2.187-.065.9-2.839,1.352-1.749-1.275C218.669,5.243,218.941,5.071,219.086,4.675Zm-6.554,1.981a2.023,2.023,0,0,0,1.048-1.212l.13-.057.776,1.723-.067.027c.459-.191.354-1.522-.331-1.9a2.737,2.737,0,0,1,1.627.585c.765.535-.086,1.39.084,1.644l.073.057.489-.619c.019.034.1,2.4.038,2.581a6.742,6.742,0,0,1-.629,1.013c0,.419.048.855.052,1.285.013.816-.071.614.333,1.268.338.545-.616.509-.839.862-.6.975-1.417-.8-2.032-.839-.5.992.872.761.9,1.363a3.858,3.858,0,0,1-1.048-.323A1.57,1.57,0,0,1,212.565,13c0-.294-.048-.9.159-1.136.147-.17.772-.482.545-.755-.153-.185-1.581.639-2.084-.658a2.239,2.239,0,0,1-.231-1.155c-.029-.629-.4-.549-.675-.956l1.2.111c.073-.864-.99-.619-1.317-.713H210.1l-.027-.874c.308.3,1.4.881,1.828.579l.04-.065c-2.072-1.445-.709-.247.6-.721Zm-4.449.055a1.469,1.469,0,0,0,.79-1.507,4.4,4.4,0,0,1,.56,2.74A1.738,1.738,0,0,1,208.083,6.711Zm-4.193,7.68c-.323-.153-1.331-1.029-1.122-.18a4.883,4.883,0,0,1-.736,3.191,8.583,8.583,0,0,1-2.187,2.516c-.7.652-.935.363-1.069,1.283-.048.338-.065,1.468-.294,1.648,0-1.652-.7-1.275.373-2.772a4.013,4.013,0,0,0,.872-2.441c-.04-1.468-1.43-4.527.56-5.311.419-.166,1.3-.073,1.333-.2.059-.21-.449-.9-.17-1.407.618-1.12,2.321,1.407,1.549-.839a4.44,4.44,0,0,1,.124-2.83A8.254,8.254,0,0,0,203.82,6c-.1-.281-.927.094-.059-.87a6.5,6.5,0,0,0,2.417,3.774,3.172,3.172,0,0,0,1.812.692c1.149.109,1.176-.285,1.983-.728l.459.419a5.951,5.951,0,0,1-.369,1.361c-.629.614-.975-.509-1.361-.669-.151.26.12.5-.314.893-.392.354-.952.174-1,.379a11.943,11.943,0,0,0,1.38.463,2.166,2.166,0,0,0,1.564.015c1.113-.245,1.692,1.621,1.2,2.166-.61.681-.8,1.887-1.239,2.726-.352.663-.075,2.707-1.35,2.082l-.149-.046.434-1.315-.034-.08-.667.558.052.055c-1.908-1.048-2.407.166-3.256.025a4.462,4.462,0,0,1,.327-1.422c.184-.21.962.136,1.348.17a3.732,3.732,0,0,0,1.5,0c1.317-.419.69-.254.767.379.132,1.067.964-1.868.973-1.887.306-.853.329-.583-.147-1.222-.333-.444-.115-1.277-.453-1.407-.577.256.384.767-1.352.468-.256-.044-1.562-.461-1.65-.43l-.071.04.314.522c-.732.333-2.057-.034-2.1-1-.036-.692.558-.459.115-1.218-.346-.587.038-1.124-.419-1.306-.015.4-.753,1.375-.48,2.334a4.5,4.5,0,0,0,.574,1.352c.21.264.147.432.344.593.27.222.268.109.505.451C205.263,14.915,204.342,14.607,203.889,14.391Zm3.239-8.783c.048.518.3.5.031,1.013-.419.8.377,2.139.168,2.306L207,8.732a3.077,3.077,0,0,1,.138-2.9c-.52.1-1.115,1.971-.839,2.5l-.082.055-.545-.667c.388-.1.1-1.747,1.457-2.107Zm1.287,3.059a1.718,1.718,0,0,1-.744-2.176,14.192,14.192,0,0,1,.53,1.4c.21.543.619.52.79.755l-.474.21Zm9.248,4.21-.444-.052c-.14.566.539.545-.419,2.118-.264.432-.711,1.784-.816,1.874l-.354-.461-.057.04c-.289.189.075,1.56-.455,1.365-.21-.073-.073-1.073-.036-1.285.111-.65.811-.419.916-1.065.036-.222.338-1.1.432-1.369a10.652,10.652,0,0,0,.1-2.673c.044-.816,1.767.669,1.132,1.51Zm-3.837,3.946-.136-.887-.377.109.057-.015-.111,4.42h-.12c.713-.491.721-1.18.8-1.887l.495-.34-.017.629.386.124-.069-.059L212.6,22.11l.122.078-.642.113a7.889,7.889,0,0,0,.889-3.262l.015-.874-.122-.912-.39.21a11.06,11.06,0,0,1-.279,3.057c-.2.673-.57,2.113-1.394,2.059l.866-1.168-.178-.143-1.667,1.564-.048-.046a4.121,4.121,0,0,1,1.067-1.346c.537-.424,1.166-.65,1.1-1.313l-1.191.721-.075-.377c.686-.53,1.34-.6,1.507-1.273l-.061-.1-2.264,1.21.084.046.147-1.134.765-2.83.172.044c.3.071.375.692,1.268.312.069-.029.979-.839,1.1-.973.778-.862.21-.606,1.21-.92a3.478,3.478,0,0,0,1.487-.767c-.21.317-.115,1.258-.805,1.524-.419.166-.327.493-.612.606C214.23,16.378,214.1,16.774,213.828,16.823Zm.22,1.231-.065.164c-.059-.082-.057.029-.057-.172s-.04-.113.082-.268l.08.1.333-.094C214.413,17.991,214.276,18.014,214.048,18.053Zm-11.878.419.013.017.132.013-.2,2.036.145.013c.616.138,2.032-.931,2.516-1.285a8.709,8.709,0,0,1,1.369-.69c.363-.136.5-.306.7-.023.338.476.164,0,.547-.052.482.455.189,1.432.579,2.015.606.906,1.038-.4,1.411.245l-1.317,2.266.063.05-1.048.159c0-.275.21-.839.21-1.258l.023-.277-.195-1.1h-.17l-.052.57v.545a6.587,6.587,0,0,1-.394,1.568l-.44.065h.063l.507-1.772-.082-.023c-.663-.038-.587,1.847-1.394,1.845l-.1-.046,1.168-2.306-.117-.055c-.3-.143-.759.826-.975,1.124-.291.4-.465,1.35-.876,1.384l-.113-.05,1.111-2.273-.153-.069a3.539,3.539,0,0,0-.9,1.019c-.157.275-.5,1.34-.606,1.386l-.136-.04.646-2.086h-.39l-.9,2.139.107.042c-.543,0-.283-.407-.12-.878a10.843,10.843,0,0,1,.4-1.092l-.356-.21-.082-.036-1.021,2.262c-.258-.1-.247-.977-.266-1.258-.048-.767-.465-.681-.465.015v.654c0,.275.107.319.113.6h-.449v-.273h-.059l.191-1.677-.356-.017c.115,1.717-1.937,3.241-.795-.663.287-.887,1.839-1.692,2.518-2.533Zm6.751,1.084-.166.878-.266.086-.453-.862.069-.038.258.3.285-.115.344-.363.052.052Zm.512.18.155-.1.138.321-.189.21.057.12-.3-.071.094-.3.113-.075Zm-.3,3.145-.38.048.48-.8.155.161Z" transform="translate(-146.441 -0.002)" fill="#363435" fill-rule="evenodd"/>
      <path id="Path_315" data-name="Path 315" d="M136.006,165.52v11.919a5.413,5.413,0,0,1-2.239,4.875,10.379,10.379,0,0,1-5.833,1.484,11.448,11.448,0,0,1-6.08-1.426,5.012,5.012,0,0,1-2.294-4.64V165.52h6.252v11.563a2.532,2.532,0,0,0,.606,1.887,2.7,2.7,0,0,0,1.944.593,3.506,3.506,0,0,0,1.828-.419,1.685,1.685,0,0,0,.851-.967,10.407,10.407,0,0,0,.14-2.111V165.52Z" transform="translate(-94.492 -130.817)" fill="#363435"/>
      <path id="Path_316" data-name="Path 316" d="M226.2,176.783h-6.531v6.737H213.68v-18h14.482v4.286h-8.5v2.929H226.2Z" transform="translate(-168.879 -130.817)" fill="#363435"/>
      <path id="Path_317" data-name="Path 317" d="M306.109,179.1v4.416H292.07v-18h6.145V179.1Z" transform="translate(-230.833 -130.817)" fill="#363435"/>
      <path id="Path_318" data-name="Path 318" d="M373.233,178.7a2.363,2.363,0,0,0,2.239-1.22,10.089,10.089,0,0,0,.681-4.46q0-4.7-2.8-4.7-3.025,0-3.025,5.353,0,5.032,2.906,5.032m.029,4.091a9.63,9.63,0,0,1-6.888-2.516,8.819,8.819,0,0,1-2.665-6.739,9.2,9.2,0,0,1,2.545-6.665,9.381,9.381,0,0,1,7.068-2.633,9.523,9.523,0,0,1,6.818,2.48,8.705,8.705,0,0,1,2.633,6.621,9.139,9.139,0,0,1-2.659,6.869,9.4,9.4,0,0,1-6.854,2.575Z" transform="translate(-287.453 -129.813)" fill="#363435"/>
      <path id="Path_319" data-name="Path 319" d="M484.136,183.52h-5l-5.491-7.953a29.322,29.322,0,0,1-2.128-3.717A11.275,11.275,0,0,1,472,174.8v8.718h-5v-18h5.812l4.671,6.6a24.591,24.591,0,0,1,2.113,3.453,23.774,23.774,0,0,1-.466-4.717V165.52h5Z" transform="translate(-369.086 -130.817)" fill="#363435"/>
      <path id="Path_320" data-name="Path 320" d="M21.774,165.52v18h-5.7V170.653L12.351,183.52H8.45L4.608,170.653V183.52H0v-18H8.024l2.906,9.561L13.7,165.52Z" transform="translate(0 -130.817)" fill="#363435"/>
      <path id="Path_321" data-name="Path 321" d="M562.173,152.047a1.359,1.359,0,0,0,.182.017.484.484,0,0,0,.357-.153.558.558,0,0,0,.149-.419.529.529,0,0,0-.138-.4.591.591,0,0,0-.419-.136h-.122Zm-.921-1.218h1.159a1.726,1.726,0,0,1,.816.136.629.629,0,0,1,.182.943.824.824,0,0,1-.432.252l.438.782a.906.906,0,0,0,.21.254.3.3,0,0,0,.138.057v.1h-.776l-.658-1.149h-.147v.629a.533.533,0,0,0,.071.34.491.491,0,0,0,.313.086v.1h-1.361v-.1a.352.352,0,0,0,.258-.067.577.577,0,0,0,.08-.359V151.37a.6.6,0,0,0-.057-.327.337.337,0,0,0-.229-.09Zm1.216-.652a2.061,2.061,0,0,0-.977.252,1.79,1.79,0,0,0-.744.717,1.887,1.887,0,0,0,0,1.935,1.833,1.833,0,0,0,.738.719,2.038,2.038,0,0,0,1.977,0,1.834,1.834,0,0,0,.734-.719,1.917,1.917,0,0,0,.264-.964,1.953,1.953,0,0,0-.266-.971,1.8,1.8,0,0,0-.742-.717,2.076,2.076,0,0,0-.988-.252Zm0-.277a2.373,2.373,0,0,1,1.118.285,2.057,2.057,0,0,1,.851.82,2.187,2.187,0,0,1,.308,1.111,2.219,2.219,0,0,1-.3,1.1,2.1,2.1,0,0,1-.839.82,2.327,2.327,0,0,1-2.262,0,2.1,2.1,0,0,1-.839-.82,2.172,2.172,0,0,1,0-2.216,2.069,2.069,0,0,1,.851-.82,2.38,2.38,0,0,1,1.109-.285Z" transform="translate(-442.746 -118.472)" fill="#363435"/>
    </g>
  </g>
</svg>
