<svg xmlns="http://www.w3.org/2000/svg" viewBox="0 0 973.13 627.33"><defs><style>.cls-1{fill:#010101;}.cls-2{fill:#030303;}.cls-3{fill:#020202;}.cls-4{fill:#040404;}.cls-5{fill:#080808;}.cls-6{fill:#1bb1a1;}.cls-7{fill:#6fb748;}.cls-8{fill:#b9d040;}</style></defs><title>bcp</title><g id="Layer_2" data-name="Layer 2"><g id="Layer_1-2" data-name="Layer 1"><path d="M519.06,230c6.12-2.83,10.34-6.55,12.45-12.39,5.58-15.51-4.88-31.24-22-31.78-18.94-.6-37.9-.13-56.86-.23-2.41,0-3.07.76-3.06,3.12q.1,42.62,0,85.24c0,2.6.74,3.41,3.37,3.4,18.79-.1,37.58,0,56.37-.1a32.4,32.4,0,0,0,6.9-1c10.61-2.43,17.78-11.14,18.61-22.47C535.62,242.72,530.06,234,519.06,230Zm-33.5-21.56H490c3,0,6,0,8.94,0,3.3.08,5.32,1.79,5.5,5.12s-1.72,5.61-4.87,5.77c-6.61.36-13.24.18-19.85.23-1.2,0-1.85-.51-1.82-1.75a4,4,0,0,0,0-.49C476.75,209,477.27,208.42,485.56,208.42ZM506.34,249c-.57,4.24-3.24,5.76-7.39,5.4-2.63-.22-5.3,0-7.95,0h-5c-8.13,0-10-2.45-8.16-10.48.42-1.88,1.52-1.85,2.87-1.85,6.29,0,12.59-.15,18.87.11C504.09,242.31,506.83,245.27,506.34,249Z"/><path d="M444.46,337.84c0-25.53,18.59-45.35,43.34-47.48,18.11-1.55,33.62,2.7,44.68,18.15,5.63,7.87,5.62,7.88-3.05,11.87-2,.9-3.88,1.87-5.84,2.77-3,1.4-5.93,3.57-9.06,3.93-3.94.45-3.87-4.47-6.2-6.58-6.52-5.9-15.18-7.69-23.06-3.94-7.73,3.67-13,13.21-12.29,22.26,1,12.94,9.71,21.71,21.54,21.56,7.66-.1,13.38-3.74,17-10.36,1.36-2.51,2.42-2.7,4.81-1.52,5.64,2.8,11.33,5.53,17.18,7.84,3.54,1.4,3.42,3,1.75,5.82-10.06,17.19-25.33,24.25-44.76,22.84-22.26-1.62-38.59-14.36-44.28-34.14A40,40,0,0,1,444.46,337.84Z"/><path d="M645.26,232.63c4-6.21,8.12-12.37,12-18.65a6,6,0,0,1,6-3.31c8.45.23,16.91.08,26.36.08-2.44,3.31-4.43,6.06-6.47,8.76-4.7,6.24-9.28,12.57-14.2,18.63-1.84,2.26-1.75,3.7-.16,6,6.74,9.68,13.26,19.51,19.84,29.28.71,1.06,1.33,2.18,2.36,3.88-9.9,0-19.14-.06-28.38,0-2.13,0-2.78-1.22-3.58-2.74-3.15-6-6.4-11.94-9.69-18-4.09,3.19-5.2,7-5,11.77.31,9,.09,9-9,9-4.16,0-8.33-.14-12.48,0-2.62.12-3.41-.75-3.41-3.38q.14-42.66,0-85.32c0-2.46.81-3.1,3.14-3,6.16.13,12.33.21,18.47,0,3-.11,3.5,1,3.48,3.68-.13,14.3-.06,28.61-.06,42.91Z"/><path d="M739.71,270.08c-8.6,7.94-17.82,9.56-27.77,8.41s-16.82-8.35-16.92-18.27c-.15-15.3,0-30.6-.1-45.9,0-2.83.78-3.74,3.63-3.63,5.49.21,11,.29,16.47,0,3.8-.21,5.17.71,5,4.84-.33,10.46,0,21-.15,31.43,0,4.41,1.05,7.95,5.63,9.4s10.69-.57,13.18-3.84c1.15-1.52.84-3.16.85-4.77,0-11,.13-22-.05-32.93-.06-3.3.93-4.28,4.21-4.13,5.82.27,11.66.2,17.48,0,2.63-.08,3.41.8,3.4,3.39q-.12,29.94,0,59.88c0,2.58-.76,3.49-3.4,3.38-4.82-.19-9.66-.19-14.48,0C742.4,277.5,738.13,278,739.71,270.08Z"/><path d="M607,233.2c-.49-11.67-6.33-18.77-17.62-22-14.89-4.21-29.18-2.25-42.74,5.35-3.2,1.8-3.7,3.47-1.51,6.48a41.19,41.19,0,0,1,4.29,7.82c1.3,3,2.46,3.86,5.59,1.72a26.09,26.09,0,0,1,15.61-4.22c9.65.18,12.84,4,11.35,14-6.7-5.28-14.44-6.33-22.53-5.86-11.17.66-18.37,6.75-19.85,16.67-1.62,10.83,3.85,20.59,14,24.13s19.82,1.44,29.19-6.08c-2.38,6.75,1.6,6.09,5.19,6,5.49-.06,11-.1,16.46,0,2.13.05,2.91-.57,2.89-2.78C607.16,260.76,607.54,247,607,233.2Zm-27.68,28a12.43,12.43,0,0,1-5.69,1.46c-3-.11-5-.17-6.85-1.14a4.22,4.22,0,0,1-2.6-3.88,4.1,4.1,0,0,1,2.73-4.27,15.29,15.29,0,0,1,12.53.4c1.54.69,2.77,1.72,2.75,3.75S580.77,260.5,579.28,261.23Z"/><path d="M732.83,339.69c-.42-11.7-6.1-18.79-17.32-22.25-13.63-4.21-27-2.61-39.75,3.43-7.41,3.5-7.33,3.69-3.5,10.67,1.19,2.18,2.64,4.25,3.63,6.52s1.91,2.42,4,1.08a28.91,28.91,0,0,1,17-4.76c9.14.33,12.5,4.69,10.78,14-6.46-4.89-13.85-6.2-21.62-5.86-11.94.5-19.65,7.07-20.74,17.49-1.26,12.09,5.43,21.68,17.18,24.36,9.16,2.08,17.39-.17,25.73-6.69-1.18,5.16,1,5.82,4.56,5.65,5.81-.28,11.65-.15,17.47,0,2,0,2.94-.36,2.91-2.69C733,367,733.32,353.31,732.83,339.69ZM706,366.82c-2.29,1.47-4.93,1.9-8.45,2a34.7,34.7,0,0,1-4.53-1,4.07,4.07,0,0,1-3-4.09,4.19,4.19,0,0,1,2.72-4.32,14.38,14.38,0,0,1,13.39,1C708.88,362.11,708.78,365,706,366.82Z"/><path d="M628.82,315.22c-15.39-.18-27.46,6.33-33.89,20.12-6.07,13-4.73,26.28,5,37.74,11.32,13.36,42.09,16,55.81,5,1.6-1.28,1.53-2.14.48-3.62a104.24,104.24,0,0,1-5.79-8.7c-1.84-3.18-3.23-4.64-7.42-2.38-7.4,4-20.72,3.9-24.86-5.92h5.36q18,0,35.91,0c1.74,0,3.55.54,3.69-2.5C664.07,332,650.19,315.47,628.82,315.22Zm7.35,26.66c-2.81-.07-5.63,0-8.44,0-2.16,0-4.31.06-6.46,0-1.07,0-2.61.6-3-.84-.2-.72.53-1.85,1.08-2.62,4.11-5.83,15.1-5.53,18.39.46C638.75,340.69,638.91,341.94,636.17,341.88Z"/><path d="M939,315.22c-16.32-.37-30.63,8.91-35.53,23-5.06,14.55-.71,31,11.37,39.27,15.13,10.33,31.36,9,47.48,2.37,5.74-2.36,5.58-2.77,2-8.13-1.85-2.76-3.84-5.42-5.53-8.27-1.09-1.82-2-2.11-3.83-.93a22.42,22.42,0,0,1-11.87,3.16c-6.21.13-11.75-1.3-15.19-8.26,14.27,0,27.73,0,41.19,0,1.55,0,3.47.95,3.81-2.25C975.24,333.52,960.23,315.69,939,315.22Zm-8.46,26.69c-3,.06-3-1.06-1.59-3.11,2.66-3.86,6.49-4.77,10.88-4.5s7.23,2.76,9.26,7.57C942.4,341.87,936.47,341.78,930.54,341.91Z"/><path d="M863.73,354.25c3.63-10.65,6.91-20.14,10.12-29.66,2.59-7.71,2.56-7.72,10.72-7.72,5,0,10,.09,15,0,2.44-.06,3.32.46,2.3,3q-11.91,30.28-23.65,60.63c-.79,2-1.7,2.84-3.91,2.8-7-.13-14-.08-21,0-1.8,0-2.9-.26-3.68-2.3-8.11-21.15-16.38-42.25-24.88-64.09,8.55,0,16.61,0,24.66,0,2.71,0,2.56,2.28,3.09,3.84C856.17,331.45,859.72,342.24,863.73,354.25Z"/><path d="M750.25,353.58c0-1.82,0-3.65,0-5.48,0-3,.86-6.6-.5-8.76s-5.24-.74-8-.77c-2.5,0-2.53-1.38-2.51-3.2,0-5,.19-10,0-14.95-.13-2.93,1-3.58,3.7-3.61,7.36-.09,7.35-.21,7.35-7.66,0-10.57,0-10.61,10.56-10.56,4.62,0,10.66-1.48,13.47.84,3,2.45,1,8.73.83,13.29-.13,3.84,1.51,4.24,4.68,4.21,9.09-.09,9.09,0,9.09,9,0,.5,0,1,0,1.5-.09,3.46,1.06,7.83-.62,10.14-1.85,2.54-6.49.77-9.89.86-2.31.06-3.26.66-3.19,3.11.16,5-.12,10,.11,14.94.25,5.15,2.77,7.1,7.83,6,2.19-.46,2.8,0,3.19,2.09a70,70,0,0,0,2.92,12c1.5,4-.36,5.44-3.53,6.48-7.62,2.5-15.34,2.91-23,.37-8-2.66-12.11-8.91-12.44-18.46C750.14,361.23,750.25,357.4,750.25,353.58Z"/><path d="M568.24,323.74c5.77-4.62,11.21-7.26,17.4-8.32,2.35-.4,3.68-.1,3.55,2.93-.26,5.81-.18,11.64,0,17.46.07,2.42-.47,3.29-3,2.73a18.54,18.54,0,0,0-5.47-.09c-10.1.87-11.83,2.75-11.83,12.7,0,9.32-.1,18.63.06,27.94,0,3.05-.46,4.45-4,4.25-6-.34-12-.2-18,0-2.39.06-3.12-.68-3.11-3.09.08-20,.11-39.92,0-59.87,0-3,1.15-3.61,3.81-3.52,4.82.17,9.66.19,14.48,0C566.46,316.66,570.53,316.49,568.24,323.74Z"/><path class="cls-1" d="M821.5,350.34c0,9.62-.09,19.25.06,28.87,0,3-.39,4.5-4,4.3-6-.34-12-.18-17.93-.05-2.33.05-3.18-.62-3.17-3.07q.12-30.11,0-60.22c0-2.52,1-3.05,3.23-3,6,.11,12,.2,17.93,0,3-.12,4,.68,4,3.84C821.37,330.76,821.5,340.55,821.5,350.34Z"/><path d="M823.15,298.28a14.12,14.12,0,1,1-14.29-14A13.83,13.83,0,0,1,823.15,298.28Z"/><path class="cls-2" d="M537.86,440.44l2.16-.67c7-2.22,10.45-7.17,9.73-14.14-.7-6.79-4.82-11-12-11.58-5.28-.44-10.61-.23-15.92-.41-1.91-.06-2.63.63-2.63,2.58.06,13.44,0,26.88.05,40.32,0,1.13-.15,2.38,1.66,2.41s2.38-.67,2.34-2.35c-.05-3.15,0-6.3,0-9.46,0-7.2,1.07-8,8.26-6.89,2.32.36,2.75,2.21,3.74,3.57,2.9,4,5.72,8.14,8.35,12.35,1.59,2.56,3.41,3.58,6.51,2.13ZM525,436.61c-1.64.06-1.84-1-1.83-2.25,0-2.48,0-5,0-7.44,0-9.23,0-9.24,9.25-9.22a37.06,37.06,0,0,1,4.95.15,8.89,8.89,0,0,1,7.92,8.74c.19,4.65-2.53,8.59-6.94,9.58S529.48,436.44,525,436.61Z"/><path class="cls-3" d="M606.29,413.05c-13,.07-21.49,9.27-21.52,23.4,0,13.76,8.86,23.41,21.62,23.48s21.82-9.6,21.84-23.26C628.25,422.52,619.39,413,606.29,413.05Zm.33,42.88c-10.46.08-18-8.21-17.83-19.72S596.07,417,606.51,417s17.55,7.91,17.55,19.34S616.8,455.85,606.62,455.93Z"/><path class="cls-4" d="M722.94,436.37c0-6.32.09-12.63-.05-18.94-.06-2.58.33-3.93,3.44-3.84,7.31.22,14.62.08,21.94.07,1.53,0,3.13-.14,3,2.17s-1.86,1.48-3,1.5c-6,.06-12,.15-18,0-2.64-.08-3.29.79-3.38,3.37-.47,13.3-.54,13.3,12.84,13.3h9c1.16,0,2.35-.19,2.4,1.63s-1.07,2.08-2.54,2.07c-6,0-12,.12-18-.07-2.7-.08-3.9.5-3.7,3.5.29,4.45-1.51,10.27.69,13s8.39.7,12.81.93c2.82.15,5.66,0,8.48,0,1.12,0,2.42-.27,2.38,1.59,0,1.31-.28,2.25-1.89,2.24q-12.23,0-24.44,0c-2.45,0-2-1.75-2-3.15C722.92,449.32,722.94,442.84,722.94,436.37Z"/><path class="cls-3" d="M939.67,413.19a18.94,18.94,0,0,1,13.39,4.41c1.19,1,2.18,1.82.64,3.54s-2.22.55-3.18-.29c-4-3.57-8.88-4.41-14-3.64-3.89.58-6.94,2.7-7.52,6.84s2.39,6.3,5.87,7.52c4.22,1.49,8.59,2.55,12.76,4.14,6,2.28,8.65,6.54,8.16,12.21s-4.46,10-10.32,11.24c-7.21,1.55-13.88.47-19.75-4.15-1.14-.9-3.17-1.68-1.52-3.89s2.67-.43,3.88.55c5.12,4.15,10.83,5.6,17.23,3.56,3.91-1.25,6.13-4,6.3-8,.15-3.85-2.3-6.12-5.64-7.36s-6.94-2.21-10.41-3.35c-8.4-2.77-11.74-7-10.6-13.28C926.07,417.09,931.77,413.21,939.67,413.19Z"/><path class="cls-3" d="M470.87,413.7c-4.65-.17-9.32.15-14-.09-3-.16-3.6,1-3.53,3.69.19,6.31.06,12.63.06,18.94,0,6.65,0,13.29,0,19.94,0,1.23-.39,2.68,1.77,2.79,2.36.12,2.24-1.32,2.22-2.87,0-1,0-2,0-3,.06-4.13-1.46-9.65.62-12,2.42-2.78,8.09-.81,12.34-.91,8.08-.2,13.79-5.58,13.8-13.24C484.23,419.5,478.78,414,470.87,413.7Zm.45,22.51a44.15,44.15,0,0,1-4.46.08c-9.42,0-9.42,0-9.42-9.89.4-2.61-1.35-7.66.75-8.37,4.14-1.39,9.1-.9,13.64-.41,5.17.56,7.92,4.5,7.74,9.77A8.7,8.7,0,0,1,471.32,436.21Z"/><path class="cls-3" d="M790.8,436.69c.14,7.74,3.06,13.93,10.21,17.47s13.9,2.43,19.73-3.06c1.39-1.31,2.44-1.51,3.78-.24,2,1.91-.45,2.57-1.19,3.31-6.38,6.36-17.2,7.38-26.42,2.65-7.49-3.84-12.18-14.91-10.38-24.65,1.68-9.11,6.72-15.45,15.76-18,7.85-2.25,15.16-1.21,21.23,4.77.8.79,2.61,1.56.93,3.13-1.24,1.17-2.29,1.26-3.72-.17C815,416.15,808,415.31,801,418.7,793.74,422.22,790.71,428.69,790.8,436.69Z"/><path class="cls-4" d="M871.92,438.11c0-5.8-.11-11.61.05-17.41.07-2.52-.56-3.61-3.29-3.4-3,.24-6,.07-8.95.05-1.31,0-2.76.17-2.63-1.94.11-1.68,1.23-1.73,2.42-1.73,9.63,0,19.26,0,28.88,0,1.49,0,2.59.17,2.53,2.09s-1.26,1.59-2.4,1.61c-.34,0-.67,0-1,0-3.61.22-8.31-1.53-10.56.69-2.48,2.44-.77,7.22-.82,11-.14,8.79,0,17.58-.08,26.37,0,1.43.84,3.49-2,3.57s-2.09-2-2.11-3.44C871.88,449.73,871.92,443.92,871.92,438.11Z"/><path class="cls-5" d="M680.31,431.37c0-5,0-9.95,0-14.93,0-1.76.31-2.89,2.41-2.8,1.9.08,2,1.26,2,2.71-.13,10.6-.15,21.22-.39,31.82-.12,5.42-3.16,9.15-8.17,10.71-5.48,1.69-10.85,1.12-15.42-2.88-1.32-1.16-1.7-2.14-.35-3.7s2.11-.51,3,.4c3.46,3.47,7.5,4.17,11.84,2.08,4.11-2,5.2-5.67,5.09-10C680.22,440.33,680.31,435.85,680.31,431.37Z"/><path class="cls-6" d="M160.16,0V382.07c107.72,0,195-85.52,195-191S267.88,0,160.16,0Z"/><path class="cls-7" d="M160.16,219.57V627.33c115,0,208.17-91.28,208.17-203.88S275.13,219.57,160.16,219.57Z"/><path class="cls-8" d="M203.61,113.26V512.11C91.16,512.11,0,422.83,0,312.69S91.16,113.26,203.61,113.26Z"/></g></g></svg>